<svg width="129.000000" height="29.000000" viewBox="0 0 129 29" fill="none" xmlns="http://www.w3.org/2000/svg" xmlns:xlink="http://www.w3.org/1999/xlink">
	<desc>
			Created with Pixso.
	</desc>
	<defs>
		<clipPath id="clip1_19">
			<rect id="Frame" width="50.000000" height="29.000000" transform="matrix(-1 0 0 1 50 0)" fill="white" fill-opacity="0"/>
		</clipPath>
		<clipPath id="clip1_23">
			<rect id="Frame" width="50.000000" height="29.000000" transform="matrix(-1 0 0 1 129 0)" fill="white" fill-opacity="0"/>
		</clipPath>
	</defs>
	<g opacity="0.500000">
		<rect id="Frame" width="50.000000" height="29.000000" transform="matrix(-1 0 0 1 50 0)" fill="#FFFFFF" fill-opacity="0"/>
		<g clip-path="url(#clip1_19)">
			<path id="Vector" d="M36.1071 0L36.1071 29L50 14.5094L36.1071 0Z" fill="#FFFFFF" fill-opacity="1.000000" fill-rule="nonzero"/>
			<path id="Vector" d="M18.0625 0L18.0625 29L31.9374 14.5094L18.0625 0Z" fill="#FFFFFF" fill-opacity="1.000000" fill-rule="nonzero"/>
			<path id="Vector" d="M3.05176e-05 0L3.05176e-05 29L13.8749 14.5094L3.05176e-05 0Z" fill="#FFFFFF" fill-opacity="1.000000" fill-rule="nonzero"/>
		</g>
	</g>
	<g opacity="0.500000">
		<rect id="Frame" width="50.000000" height="29.000000" transform="matrix(-1 0 0 1 129 0)" fill="#FFFFFF" fill-opacity="0"/>
		<g clip-path="url(#clip1_23)">
			<path id="Vector" d="M115.107 0L115.107 29L129 14.5094L115.107 0Z" fill="#FFFFFF" fill-opacity="1.000000" fill-rule="nonzero"/>
			<path id="Vector" d="M97.0625 0L97.0625 29L110.937 14.5094L97.0625 0Z" fill="#FFFFFF" fill-opacity="1.000000" fill-rule="nonzero"/>
			<path id="Vector" d="M79 0L79 29L92.8749 14.5094L79 0Z" fill="#FFFFFF" fill-opacity="1.000000" fill-rule="nonzero"/>
		</g>
	</g>
</svg>
