<svg width="168" height="50" viewBox="0 0 168 50" fill="none" xmlns="http://www.w3.org/2000/svg">
<rect width="168" height="50" rx="25" fill="url(#paint0_linear_1_463)"/>
<path d="M26.3736 28.848C26.1936 29.004 25.9416 29.16 25.6176 29.316C25.2936 29.472 24.9276 29.61 24.5196 29.73C24.1236 29.85 23.7156 29.946 23.2956 30.018C22.8756 30.102 22.4796 30.144 22.1076 30.144C21.0516 30.144 20.1036 29.982 19.2636 29.658C18.4236 29.334 17.7036 28.884 17.1036 28.308C16.5036 27.732 16.0416 27.06 15.7176 26.292C15.4056 25.512 15.2496 24.666 15.2496 23.754C15.2496 22.638 15.4296 21.648 15.7896 20.784C16.1496 19.92 16.6356 19.194 17.2476 18.606C17.8716 18.006 18.5856 17.556 19.3896 17.256C20.2056 16.944 21.0576 16.788 21.9456 16.788C22.7256 16.788 23.4456 16.878 24.1056 17.058C24.7776 17.238 25.3536 17.472 25.8336 17.76L25.2036 19.524C24.9636 19.392 24.6636 19.266 24.3036 19.146C23.9556 19.014 23.5956 18.912 23.2236 18.84C22.8516 18.768 22.5096 18.732 22.1976 18.732C21.4296 18.732 20.7396 18.846 20.1276 19.074C19.5276 19.29 19.0116 19.608 18.5796 20.028C18.1476 20.448 17.8116 20.958 17.5716 21.558C17.3436 22.158 17.2296 22.836 17.2296 23.592C17.2296 24.276 17.3496 24.906 17.5896 25.482C17.8296 26.046 18.1656 26.538 18.5976 26.958C19.0296 27.366 19.5456 27.684 20.1456 27.912C20.7456 28.128 21.4116 28.236 22.1436 28.236C22.5636 28.236 22.9776 28.194 23.3856 28.11C23.7936 28.026 24.1416 27.906 24.4296 27.75V25.374H21.9096V23.52H26.3736V28.848ZM32.7619 30.18C31.8859 30.18 31.1359 30.012 30.5119 29.676C29.8879 29.328 29.4079 28.854 29.0719 28.254C28.7359 27.642 28.5679 26.946 28.5679 26.166C28.5679 25.422 28.7539 24.75 29.1259 24.15C29.5099 23.538 30.0199 23.052 30.6559 22.692C31.3039 22.332 32.0179 22.152 32.7979 22.152C33.8059 22.152 34.6399 22.446 35.2999 23.034C35.9719 23.622 36.4219 24.444 36.6499 25.5L30.5119 27.624L30.0799 26.544L34.9939 24.78L34.6159 25.014C34.4719 24.642 34.2439 24.318 33.9319 24.042C33.6199 23.754 33.1939 23.61 32.6539 23.61C32.2219 23.61 31.8319 23.718 31.4839 23.934C31.1479 24.138 30.8779 24.426 30.6739 24.798C30.4819 25.158 30.3859 25.584 30.3859 26.076C30.3859 26.58 30.4879 27.024 30.6919 27.408C30.9079 27.78 31.1959 28.074 31.5559 28.29C31.9279 28.506 32.3419 28.614 32.7979 28.614C33.1219 28.614 33.4279 28.554 33.7159 28.434C34.0159 28.314 34.2979 28.164 34.5619 27.984L35.4079 29.352C35.0119 29.604 34.5799 29.808 34.1119 29.964C33.6559 30.108 33.2059 30.18 32.7619 30.18ZM39.4281 19.146H41.2821V22.476H43.2981V23.934H41.2821V30H39.4281V23.934H38.0961V22.476H39.4281V19.146ZM58.2484 19.434C57.7924 19.194 57.3004 18.99 56.7724 18.822C56.2444 18.654 55.7344 18.57 55.2424 18.57C54.5704 18.57 54.0364 18.726 53.6404 19.038C53.2444 19.338 53.0464 19.752 53.0464 20.28C53.0464 20.652 53.1784 20.976 53.4424 21.252C53.7064 21.528 54.0484 21.768 54.4684 21.972C54.8884 22.176 55.3324 22.368 55.8004 22.548C56.1964 22.692 56.5864 22.866 56.9704 23.07C57.3664 23.262 57.7204 23.502 58.0324 23.79C58.3564 24.078 58.6084 24.438 58.7884 24.87C58.9804 25.29 59.0764 25.806 59.0764 26.418C59.0764 27.114 58.9024 27.744 58.5544 28.308C58.2184 28.872 57.7264 29.322 57.0784 29.658C56.4424 29.982 55.6684 30.144 54.7564 30.144C54.2044 30.144 53.6644 30.084 53.1364 29.964C52.6204 29.832 52.1284 29.664 51.6604 29.46C51.2044 29.244 50.7904 29.01 50.4184 28.758L51.2824 27.264C51.5704 27.468 51.9004 27.666 52.2724 27.858C52.6444 28.038 53.0284 28.182 53.4244 28.29C53.8324 28.398 54.2164 28.452 54.5764 28.452C54.9724 28.452 55.3624 28.386 55.7464 28.254C56.1304 28.11 56.4484 27.894 56.7004 27.606C56.9524 27.306 57.0784 26.916 57.0784 26.436C57.0784 26.028 56.9644 25.686 56.7364 25.41C56.5204 25.122 56.2264 24.876 55.8544 24.672C55.4944 24.468 55.1044 24.288 54.6844 24.132C54.2764 23.976 53.8624 23.802 53.4424 23.61C53.0224 23.418 52.6324 23.19 52.2724 22.926C51.9124 22.65 51.6184 22.314 51.3904 21.918C51.1744 21.51 51.0664 21.012 51.0664 20.424C51.0664 19.728 51.2284 19.122 51.5524 18.606C51.8884 18.078 52.3504 17.664 52.9384 17.364C53.5264 17.064 54.2044 16.896 54.9724 16.86C55.8484 16.86 56.6104 16.968 57.2584 17.184C57.9064 17.4 58.4824 17.658 58.9864 17.958L58.2484 19.434ZM62.227 19.146H64.081V22.476H66.097V23.934H64.081V30H62.227V23.934H60.895V22.476H62.227V19.146ZM71.2488 30.18C70.5408 30.18 69.8988 30.036 69.3228 29.748C68.7468 29.448 68.2908 29.004 67.9548 28.416C67.6188 27.828 67.4508 27.102 67.4508 26.238C67.4508 25.386 67.6248 24.654 67.9728 24.042C68.3328 23.43 68.8008 22.962 69.3768 22.638C69.9648 22.302 70.6008 22.134 71.2848 22.134C72.0048 22.134 72.5928 22.29 73.0488 22.602C73.5168 22.902 73.8828 23.256 74.1468 23.664L74.0208 23.952L74.2008 22.458H75.9108V30H74.0568V28.11L74.2548 28.56C74.2068 28.656 74.1048 28.794 73.9488 28.974C73.7928 29.142 73.5828 29.322 73.3188 29.514C73.0668 29.706 72.7668 29.868 72.4188 30C72.0828 30.12 71.6928 30.18 71.2488 30.18ZM71.7528 28.668C72.1488 28.668 72.5028 28.596 72.8148 28.452C73.1268 28.308 73.3908 28.104 73.6068 27.84C73.8228 27.576 73.9728 27.264 74.0568 26.904V25.338C73.9608 25.002 73.7988 24.714 73.5708 24.474C73.3428 24.222 73.0668 24.024 72.7428 23.88C72.4308 23.736 72.0828 23.664 71.6988 23.664C71.2668 23.664 70.8708 23.772 70.5108 23.988C70.1508 24.192 69.8628 24.48 69.6468 24.852C69.4308 25.224 69.3228 25.656 69.3228 26.148C69.3228 26.616 69.4308 27.042 69.6468 27.426C69.8748 27.81 70.1748 28.116 70.5468 28.344C70.9188 28.56 71.3208 28.668 71.7528 28.668ZM80.4071 22.458L80.5871 24.618L80.4971 24.33C80.7011 23.874 80.9891 23.484 81.3611 23.16C81.7331 22.836 82.1171 22.59 82.5131 22.422C82.9211 22.242 83.2631 22.152 83.5391 22.152L83.4491 23.988C82.8731 23.952 82.3691 24.06 81.9371 24.312C81.5171 24.564 81.1871 24.9 80.9471 25.32C80.7071 25.74 80.5871 26.19 80.5871 26.67V30H78.7511V22.458H80.4071ZM86.3617 19.146H88.2157V22.476H90.2317V23.934H88.2157V30H86.3617V23.934H85.0297V22.476H86.3617V19.146ZM95.7795 30.18C94.9035 30.18 94.1535 30.012 93.5295 29.676C92.9055 29.328 92.4255 28.854 92.0895 28.254C91.7535 27.642 91.5855 26.946 91.5855 26.166C91.5855 25.422 91.7715 24.75 92.1435 24.15C92.5275 23.538 93.0375 23.052 93.6735 22.692C94.3215 22.332 95.0355 22.152 95.8155 22.152C96.8235 22.152 97.6575 22.446 98.3175 23.034C98.9895 23.622 99.4395 24.444 99.6675 25.5L93.5295 27.624L93.0975 26.544L98.0115 24.78L97.6335 25.014C97.4895 24.642 97.2615 24.318 96.9495 24.042C96.6375 23.754 96.2115 23.61 95.6715 23.61C95.2395 23.61 94.8495 23.718 94.5015 23.934C94.1655 24.138 93.8955 24.426 93.6915 24.798C93.4995 25.158 93.4035 25.584 93.4035 26.076C93.4035 26.58 93.5055 27.024 93.7095 27.408C93.9255 27.78 94.2135 28.074 94.5735 28.29C94.9455 28.506 95.3595 28.614 95.8155 28.614C96.1395 28.614 96.4455 28.554 96.7335 28.434C97.0335 28.314 97.3155 28.164 97.5795 27.984L98.4255 29.352C98.0295 29.604 97.5975 29.808 97.1295 29.964C96.6735 30.108 96.2235 30.18 95.7795 30.18ZM104.804 30.18C104.096 30.18 103.46 30.018 102.896 29.694C102.332 29.358 101.888 28.884 101.564 28.272C101.24 27.66 101.078 26.946 101.078 26.13C101.078 25.29 101.252 24.576 101.6 23.988C101.948 23.388 102.416 22.932 103.004 22.62C103.604 22.296 104.276 22.134 105.02 22.134C105.596 22.134 106.142 22.254 106.658 22.494C107.186 22.722 107.594 23.046 107.882 23.466L107.828 24.096V16.014H109.664V30H107.81V28.218L108.008 28.704C107.636 29.124 107.18 29.478 106.64 29.766C106.1 30.042 105.488 30.18 104.804 30.18ZM105.38 28.614C105.8 28.614 106.172 28.542 106.496 28.398C106.82 28.254 107.096 28.05 107.324 27.786C107.552 27.51 107.714 27.192 107.81 26.832V25.32C107.726 24.984 107.564 24.69 107.324 24.438C107.096 24.174 106.814 23.97 106.478 23.826C106.142 23.682 105.776 23.61 105.38 23.61C104.936 23.61 104.528 23.718 104.156 23.934C103.796 24.138 103.502 24.426 103.274 24.798C103.058 25.17 102.95 25.602 102.95 26.094C102.95 26.562 103.058 26.988 103.274 27.372C103.502 27.756 103.802 28.062 104.174 28.29C104.546 28.506 104.948 28.614 105.38 28.614ZM130.04 30.45L119.978 20.46L120.536 20.64L120.59 30H118.646V16.518H118.736L128.672 26.526L128.222 26.4L128.186 16.932H130.094V30.45H130.04ZM132.718 26.148C132.718 25.392 132.898 24.714 133.258 24.114C133.618 23.502 134.116 23.022 134.752 22.674C135.388 22.326 136.114 22.152 136.93 22.152C137.758 22.152 138.484 22.326 139.108 22.674C139.732 23.022 140.212 23.502 140.548 24.114C140.896 24.714 141.07 25.392 141.07 26.148C141.07 26.904 140.896 27.588 140.548 28.2C140.212 28.812 139.732 29.298 139.108 29.658C138.484 30.006 137.752 30.18 136.912 30.18C136.108 30.18 135.388 30.018 134.752 29.694C134.128 29.37 133.63 28.908 133.258 28.308C132.898 27.696 132.718 26.976 132.718 26.148ZM134.59 26.166C134.59 26.634 134.692 27.06 134.896 27.444C135.1 27.816 135.376 28.116 135.724 28.344C136.072 28.56 136.462 28.668 136.894 28.668C137.338 28.668 137.734 28.56 138.082 28.344C138.43 28.116 138.7 27.816 138.892 27.444C139.096 27.06 139.198 26.634 139.198 26.166C139.198 25.698 139.096 25.278 138.892 24.906C138.7 24.534 138.43 24.234 138.082 24.006C137.734 23.778 137.338 23.664 136.894 23.664C136.45 23.664 136.054 23.778 135.706 24.006C135.358 24.234 135.082 24.54 134.878 24.924C134.686 25.296 134.59 25.71 134.59 26.166ZM147.984 22.458L150.09 27.3L149.73 27.318L151.656 22.458H153.474L150.018 30.45L147.606 25.32L145.392 30.45L141.918 22.458H143.736L145.968 27.534L145.32 27.426L146.94 23.682L146.382 22.458H147.984Z" fill="white"/>
<defs>
<linearGradient id="paint0_linear_1_463" x1="31.7333" y1="-9.83529e-06" x2="150.549" y2="32.5643" gradientUnits="userSpaceOnUse">
<stop stop-color="#4499D9"/>
<stop offset="1" stop-color="#7367BE"/>
</linearGradient>
</defs>
</svg>
