<svg width="251.488098" height="135.000000" viewBox="0 0 251.488 135" fill="none" xmlns="http://www.w3.org/2000/svg" xmlns:xlink="http://www.w3.org/1999/xlink">
	<desc>
			Created with Pixso.
	</desc>
	<defs>
		<filter id="filter_1_171_dd" x="0.000000" y="0.000000" width="251.488098" height="135.000000" filterUnits="userSpaceOnUse" color-interpolation-filters="sRGB">
			<feFlood flood-opacity="0" result="BackgroundImageFix"/>
			<feColorMatrix in="SourceAlpha" type="matrix" values="0 0 0 0 0 0 0 0 0 0 0 0 0 0 0 0 0 0 127 0" result="hardAlpha"/>
			<feOffset dx="0" dy="10"/>
			<feGaussianBlur stdDeviation="6.66667"/>
			<feComposite in2="hardAlpha" operator="out" k2="-1" k3="1"/>
			<feColorMatrix type="matrix" values="0 0 0 0 0.92157 0 0 0 0 0.51373 0 0 0 0 0.5098 0 0 0 0.4 0"/>
			<feBlend mode="normal" in2="BackgroundImageFix" result="effect_dropShadow_1"/>
			<feBlend mode="normal" in="SourceGraphic" in2="effect_dropShadow_1" result="shape"/>
		</filter>
		<clipPath id="clip1_218">
			<rect id="bi:star-fill" width="6.785714" height="6.785714" transform="translate(148.928467 74.463989)" fill="white" fill-opacity="0"/>
		</clipPath>
		<clipPath id="clip1_221">
			<rect id="bi:star-fill" width="6.785714" height="6.785714" transform="translate(138.750000 74.463989)" fill="white" fill-opacity="0"/>
		</clipPath>
		<clipPath id="clip1_224">
			<rect id="bi:star-fill" width="6.785714" height="6.785714" transform="translate(128.571411 74.463989)" fill="white" fill-opacity="0"/>
		</clipPath>
		<clipPath id="clip1_227">
			<rect id="bi:star-fill" width="6.785714" height="6.785714" transform="translate(118.392822 74.464111)" fill="white" fill-opacity="0"/>
		</clipPath>
		<clipPath id="clip1_230">
			<rect id="bi:star-fill" width="6.785714" height="6.785714" transform="translate(159.107178 74.463989)" fill="white" fill-opacity="0"/>
		</clipPath>
		<clipPath id="clip1_233">
			<rect id="bi:star-half" width="6.785714" height="6.785714" transform="translate(159.107178 74.463989)" fill="white" fill-opacity="0"/>
		</clipPath>
		<linearGradient id="paint_linear_1_175_0" x1="51.832031" y1="28.598324" x2="50.220448" y2="35.505184" gradientUnits="userSpaceOnUse">
			<stop stop-color="#E474C6"/>
			<stop offset="0.989200" stop-color="#0E7CF7"/>
		</linearGradient>
		<linearGradient id="paint_linear_1_176_0" x1="84.117691" y1="28.626505" x2="87.600006" y2="35.028194" gradientUnits="userSpaceOnUse">
			<stop stop-color="#E474C6"/>
			<stop offset="0.989200" stop-color="#0E7CF7"/>
		</linearGradient>
		<linearGradient id="paint_linear_1_178_0" x1="69.123779" y1="42.960094" x2="68.936111" y2="79.023247" gradientUnits="userSpaceOnUse">
			<stop stop-color="#826F8C"/>
			<stop offset="1.000000" stop-color="#446381"/>
		</linearGradient>
		<linearGradient id="paint_linear_1_179_0" x1="69.364494" y1="33.229183" x2="68.666962" y2="99.751656" gradientUnits="userSpaceOnUse">
			<stop stop-color="#826F8C"/>
			<stop offset="0.994600" stop-color="#446381"/>
		</linearGradient>
		<linearGradient id="paint_linear_1_181_0" x1="70.620697" y1="30.185389" x2="68.820930" y2="73.242882" gradientUnits="userSpaceOnUse">
			<stop stop-color="#8F4EB6"/>
			<stop offset="0.994600" stop-color="#446381"/>
		</linearGradient>
		<linearGradient id="paint_linear_1_183_0" x1="60.225822" y1="49.308712" x2="59.900826" y2="61.299198" gradientUnits="userSpaceOnUse">
			<stop stop-color="#8F4EB6"/>
			<stop offset="0.994600" stop-color="#5141AE"/>
		</linearGradient>
		<linearGradient id="paint_linear_1_184_0" x1="60.062004" y1="52.585434" x2="59.975918" y2="69.128922" gradientUnits="userSpaceOnUse">
			<stop stop-color="#6F469E"/>
			<stop offset="1.000000" stop-color="#360F6E"/>
		</linearGradient>
		<linearGradient id="paint_linear_1_185_0" x1="54.833389" y1="53.201248" x2="64.029518" y2="53.249100" gradientUnits="userSpaceOnUse">
			<stop stop-color="#CB9DFF"/>
			<stop offset="0.989200" stop-color="#796AFB"/>
		</linearGradient>
		<linearGradient id="paint_linear_1_186_0" x1="59.131180" y1="50.697250" x2="60.389004" y2="61.295437" gradientUnits="userSpaceOnUse">
			<stop stop-color="#CB9DFF"/>
			<stop offset="0.989200" stop-color="#796AFB"/>
		</linearGradient>
		<linearGradient id="paint_linear_1_188_0" x1="75.409149" y1="47.108677" x2="75.507172" y2="61.946274" gradientUnits="userSpaceOnUse">
			<stop stop-color="#8F4EB6"/>
			<stop offset="0.994600" stop-color="#5141AE"/>
		</linearGradient>
		<linearGradient id="paint_linear_1_189_0" x1="75.486168" y1="52.665604" x2="75.400085" y2="69.209091" gradientUnits="userSpaceOnUse">
			<stop stop-color="#6F469E"/>
			<stop offset="1.000000" stop-color="#360F6E"/>
		</linearGradient>
		<linearGradient id="paint_linear_1_190_0" x1="70.257462" y1="53.281685" x2="79.453598" y2="53.329536" gradientUnits="userSpaceOnUse">
			<stop stop-color="#CB9DFF"/>
			<stop offset="0.989200" stop-color="#796AFB"/>
		</linearGradient>
		<linearGradient id="paint_linear_1_191_0" x1="74.331802" y1="48.893314" x2="75.589691" y2="59.491501" gradientUnits="userSpaceOnUse">
			<stop stop-color="#CB9DFF"/>
			<stop offset="0.989200" stop-color="#796AFB"/>
		</linearGradient>
		<linearGradient id="paint_linear_1_194_0" x1="87.620270" y1="36.613796" x2="87.532997" y2="44.972805" gradientUnits="userSpaceOnUse">
			<stop stop-color="#8F4EB6"/>
			<stop offset="0.994600" stop-color="#5141AE"/>
		</linearGradient>
		<linearGradient id="paint_linear_1_195_0" x1="86.924034" y1="37.456581" x2="88.114845" y2="44.115349" gradientUnits="userSpaceOnUse">
			<stop stop-color="#D2F9FF"/>
			<stop offset="0.994600" stop-color="#618DD6"/>
		</linearGradient>
		<linearGradient id="paint_linear_1_197_0" x1="87.608490" y1="45.353615" x2="87.487930" y2="51.699196" gradientUnits="userSpaceOnUse">
			<stop stop-color="#8F4EB6"/>
			<stop offset="0.994600" stop-color="#5141AE"/>
		</linearGradient>
		<linearGradient id="paint_linear_1_198_0" x1="87.041222" y1="46.786133" x2="87.977173" y2="51.955490" gradientUnits="userSpaceOnUse">
			<stop stop-color="#D2F9FF"/>
			<stop offset="0.994600" stop-color="#618DD6"/>
		</linearGradient>
		<linearGradient id="paint_linear_1_200_0" x1="92.061531" y1="39.871616" x2="91.937157" y2="46.961220" gradientUnits="userSpaceOnUse">
			<stop stop-color="#8F4EB6"/>
			<stop offset="0.994600" stop-color="#5141AE"/>
		</linearGradient>
		<linearGradient id="paint_linear_1_201_0" x1="91.004738" y1="42.184795" x2="92.899017" y2="48.234489" gradientUnits="userSpaceOnUse">
			<stop stop-color="#D2F9FF"/>
			<stop offset="0.994600" stop-color="#618DD6"/>
		</linearGradient>
		<linearGradient id="paint_linear_1_203_0" x1="83.605347" y1="41.280098" x2="83.702484" y2="47.845623" gradientUnits="userSpaceOnUse">
			<stop stop-color="#8F4EB6"/>
			<stop offset="0.994600" stop-color="#5141AE"/>
		</linearGradient>
		<linearGradient id="paint_linear_1_204_0" x1="83.131752" y1="42.739681" x2="84.242760" y2="47.910004" gradientUnits="userSpaceOnUse">
			<stop stop-color="#D2F9FF"/>
			<stop offset="0.994600" stop-color="#618DD6"/>
		</linearGradient>
		<linearGradient id="paint_linear_1_206_0" x1="49.452461" y1="32.992672" x2="49.877441" y2="52.252319" gradientUnits="userSpaceOnUse">
			<stop stop-color="#8F4EB6"/>
			<stop offset="0.994600" stop-color="#5141AE"/>
		</linearGradient>
		<linearGradient id="paint_linear_1_207_0" x1="52.537956" y1="32.261246" x2="48.069374" y2="49.919769" gradientUnits="userSpaceOnUse">
			<stop stop-color="#E474C6"/>
			<stop offset="0.989200" stop-color="#0E7CF7"/>
		</linearGradient>
		<linearGradient id="paint_linear_1_208_0" x1="47.893616" y1="37.660179" x2="50.647682" y2="46.690468" gradientUnits="userSpaceOnUse">
			<stop stop-color="#D2F9FF"/>
			<stop offset="0.994600" stop-color="#618DD6"/>
		</linearGradient>
		<linearGradient id="paint_linear_1_210_0" x1="64.598755" y1="42.984150" x2="64.479309" y2="49.110977" gradientUnits="userSpaceOnUse">
			<stop stop-color="#E474C6"/>
			<stop offset="0.989200" stop-color="#7142A2"/>
		</linearGradient>
		<linearGradient id="paint_linear_1_211_0" x1="72.841911" y1="43.144936" x2="72.722458" y2="49.271767" gradientUnits="userSpaceOnUse">
			<stop stop-color="#E474C6"/>
			<stop offset="0.989200" stop-color="#7142A2"/>
		</linearGradient>
	</defs>
	<g filter="url(#filter_1_171_dd)">
		<g opacity="0.400000">
			<rect id="Rectangle 3" x="20.000000" y="10.000000" rx="10.000000" width="211.488098" height="95.000000" fill="#FFFFFF" fill-opacity="1.000000"/>
		</g>
		<path id="Vector" d="M46.7518 30.6339C49.2776 30.1102 51.8023 29.8012 54.3256 29.7606C55.1845 29.7651 55.8779 30.6276 55.8723 31.7013C55.8075 33.8483 55.5815 35.9944 55.1412 38.0857C52.0858 37.2109 48.9737 36.9263 45.8605 36.8564C45.9223 35.2999 45.7693 33.7423 45.5624 32.2382C45.405 31.5394 45.9457 30.7907 46.7518 30.6339Z" fill="url(#paint_linear_1_175_0)" fill-opacity="1.000000" fill-rule="nonzero"/>
		<path id="Vector" d="M91.2536 30.8657C88.7334 30.3157 86.2121 29.9805 83.6893 29.9137C82.8304 29.9092 82.1281 30.7645 82.1225 31.8381C82.165 33.9857 82.3686 36.134 82.7871 38.2298C85.8514 37.3868 88.9663 37.1346 92.0801 37.0972C92.0345 35.5401 92.2037 33.9842 92.4262 32.4822C92.5909 31.7852 92.058 31.0309 91.2536 30.8657Z" fill="url(#paint_linear_1_176_0)" fill-opacity="1.000000" fill-rule="nonzero"/>
		<path id="Vector" d="M104.604 65.0772C104.029 62.1217 103.131 59.1644 102.448 56.4767C100.92 50.8858 98.9621 45.4 96.8965 40.021C95.5192 36.4708 92.1496 34.0912 88.3382 34.0714L86.2446 34.0604C83.99 34.0487 81.7846 34.8962 80.059 36.3903L78.441 37.8313C76.4993 39.5927 73.9175 40.5456 71.2872 40.5319L69.0862 40.5204L66.8853 40.509C64.2549 40.4953 61.7369 39.5159 59.7599 37.7341L58.157 36.2763C56.4471 34.7643 54.3043 33.8942 51.996 33.8822L50.0098 33.8719C46.1984 33.8521 42.8042 36.1964 41.3901 39.7321C39.2683 45.1431 37.2539 50.5545 35.6681 56.1293C34.9026 58.8094 34.0286 61.7037 33.4224 64.7068C32.7067 68.1388 32.3667 71.5727 33.0481 74.7435C34.3055 80.7089 41.9659 83.8086 46.8724 79.7006C49.5682 77.46 53.5647 72.864 56.32 69.4963C58.3727 67.0377 61.3862 65.6575 64.5533 65.674L69.0626 65.6975L73.5718 65.7209C76.739 65.7374 79.7376 67.2025 81.7649 69.6288C84.4854 72.9713 88.4335 77.6622 91.1058 79.9307C95.9693 84.0897 103.662 81.0698 104.981 75.1179C105.588 71.9537 105.284 68.5164 104.604 65.0772Z" fill="url(#paint_linear_1_178_0)" fill-opacity="1.000000" fill-rule="nonzero"/>
		<path id="Vector" d="M104.613 63.1985C104.038 60.243 103.141 57.2858 102.457 54.5981C100.929 49.0071 98.9717 43.5213 96.9061 38.1423C95.5288 34.5921 92.1592 32.2125 88.3478 32.1927L86.2543 32.1818C83.9997 32.17 81.7943 33.0175 80.0686 34.5117L78.4507 35.9526C76.5089 37.7141 73.9272 38.6669 71.2968 38.6533L69.0959 38.6418L66.895 38.6303C64.2646 38.6166 61.7466 37.6373 59.7696 35.8555L58.1667 34.3976C56.4567 32.8857 54.3139 32.0156 52.0056 32.0035L50.0194 31.9932C46.2081 31.9734 42.8139 34.3177 41.3997 37.8535C39.2782 43.2107 37.2635 48.6758 35.6777 54.2506C34.9122 56.9307 34.0382 59.8251 33.4321 62.8281C32.7163 66.2601 32.3764 69.694 33.0578 72.8649C34.3151 78.8302 41.9756 81.9299 46.8821 77.8219C49.5779 75.5813 53.5743 70.9854 56.3297 67.6177C58.3824 65.159 61.3958 63.7789 64.563 63.7953L69.0722 63.8188L73.5815 63.8423C76.7486 63.8588 79.7473 65.3239 81.7746 67.7501C84.495 71.0926 88.4431 75.7835 91.1154 78.0521C95.9789 82.211 103.671 79.1911 104.991 73.2392C105.598 70.0751 105.294 66.5841 104.613 63.1985Z" fill="url(#paint_linear_1_179_0)" fill-opacity="1.000000" fill-rule="nonzero"/>
		<path id="Vector" d="M104.902 69.5881C103.591 73.9832 95.9027 76.2516 91.034 73.1127C88.3586 71.4346 84.404 67.9783 81.6791 65.4947C79.6487 63.6589 76.6482 62.5697 73.481 62.5532L68.9718 62.5297L64.4625 62.5063C61.2953 62.4898 58.2836 63.5478 56.2342 65.3623C53.4836 67.8174 49.4933 71.2323 46.8006 72.8825C41.8997 75.9169 34.235 73.6223 32.9696 69.2137C32.8113 68.6761 32.707 68.0851 32.6564 67.4943C32.5396 69.3189 32.5837 71.1443 32.9506 72.8641C34.2079 78.8294 41.8684 81.9292 46.7749 77.8212C49.4707 75.5805 53.4672 70.9846 56.2225 67.6169C58.2752 65.1582 61.2886 63.7781 64.4558 63.7946L68.9651 63.8181L73.4743 63.8416C76.6415 63.858 79.6401 65.3231 81.6674 67.7493C84.3878 71.0918 88.3359 75.7828 91.0083 78.0513C95.8717 82.2102 103.564 79.1903 104.883 73.2384C105.268 71.5226 105.331 69.6977 105.233 67.8719C105.177 68.4622 105.067 68.9984 104.902 69.5881Z" fill="url(#paint_linear_1_181_0)" fill-opacity="1.000000" fill-rule="nonzero"/>
		<path id="Vector" d="M66.4286 56.0208C66.4102 59.5489 63.5353 62.394 60.0073 62.3757C56.4792 62.3573 53.6341 59.4824 53.6524 55.9543C53.6708 52.4263 56.5457 49.5812 60.0737 49.5995C63.6018 49.6179 66.4469 52.4928 66.4286 56.0208Z" fill="url(#paint_linear_1_183_0)" fill-opacity="1.000000" fill-rule="evenodd"/>
		<path id="Vector" d="M65.5696 56.0164C65.5537 59.0701 63.0653 61.5327 60.0117 61.5168C56.958 61.5009 54.4954 59.0125 54.5113 55.9589C54.5272 52.9052 57.0155 50.4426 60.0692 50.4584C63.1229 50.4744 65.5855 52.9627 65.5696 56.0164Z" fill="url(#paint_linear_1_184_0)" fill-opacity="1.000000" fill-rule="evenodd"/>
		<path id="Vector" d="M64.0273 53.2703C64.014 55.82 61.9363 57.8762 59.3867 57.8629C56.837 57.8496 54.7808 55.772 54.7941 53.2223C54.8074 50.6726 56.885 48.6165 59.4347 48.6298C61.9844 48.643 64.0405 50.7207 64.0273 53.2703Z" fill="url(#paint_linear_1_185_0)" fill-opacity="1.000000" fill-rule="evenodd"/>
		<path id="Vector" d="M63.2218 53.2663C63.2327 51.1727 61.5238 49.446 59.4303 49.4351C57.3367 49.4242 55.61 51.1331 55.5991 53.2266C55.5882 55.3202 57.297 57.0469 59.3906 57.0579C61.4844 57.0151 63.2109 55.3599 63.2218 53.2663Z" fill="url(#paint_linear_1_186_0)" fill-opacity="1.000000" fill-rule="nonzero"/>
		<path id="Vector" d="M81.8352 56.1012C81.8168 59.6293 78.9419 62.4744 75.4139 62.4561C71.8858 62.4377 69.0407 59.5627 69.0591 56.0347C69.0774 52.5067 71.9523 49.6616 75.4803 49.6799C79.0084 49.6982 81.8535 52.5732 81.8352 56.1012Z" fill="url(#paint_linear_1_188_0)" fill-opacity="1.000000" fill-rule="evenodd"/>
		<path id="Vector" d="M80.9762 56.0965C80.9603 59.1501 78.472 61.6127 75.4183 61.5969C72.3646 61.581 69.902 59.0926 69.9179 56.0389C69.9338 52.9852 72.4221 50.5226 75.4758 50.5385C78.5295 50.5544 80.9921 53.0428 80.9762 56.0965Z" fill="url(#paint_linear_1_189_0)" fill-opacity="1.000000" fill-rule="evenodd"/>
		<path id="Vector" d="M79.4875 53.351C79.4742 55.9006 77.3965 57.9568 74.8469 57.9435C72.2972 57.9302 70.241 55.8526 70.2543 53.3029C70.2676 50.7532 72.3452 48.6971 74.8949 48.7104C77.4446 48.7236 79.5007 50.8013 79.4875 53.351Z" fill="url(#paint_linear_1_190_0)" fill-opacity="1.000000" fill-rule="evenodd"/>
		<path id="Vector" d="M78.6285 53.3466C78.6394 51.2531 76.9306 49.5263 74.837 49.5154C72.7434 49.5045 71.0167 51.2134 71.0058 53.3069C70.9949 55.4005 72.7038 57.1273 74.7973 57.1382C76.9449 57.0956 78.6176 55.4402 78.6285 53.3466Z" fill="url(#paint_linear_1_191_0)" fill-opacity="1.000000" fill-rule="nonzero"/>
		<path id="Vector" d="M90.1802 41.1133C90.1738 42.348 88.9878 43.3081 87.5384 43.3006C86.089 43.293 84.9133 42.267 84.9194 41.0859C84.9259 39.8513 86.1119 38.8912 87.5613 38.8987C89.011 38.8526 90.1866 39.8787 90.1802 41.1133Z" fill="url(#paint_linear_1_194_0)" fill-opacity="1.000000" fill-rule="nonzero"/>
		<path id="Vector" d="M89.6434 41.1105C89.6383 42.0888 88.6968 42.8771 87.5406 42.871C86.3843 42.8651 85.4511 42.067 85.4562 41.0887C85.4613 40.1103 86.4028 39.3221 87.559 39.3281C88.7153 39.3341 89.6485 40.1321 89.6434 41.1105Z" fill="url(#paint_linear_1_195_0)" fill-opacity="1.000000" fill-rule="evenodd"/>
		<path id="Vector" d="M90.1367 49.4874C90.1303 50.722 88.9443 51.6822 87.4949 51.6746C86.0455 51.6671 84.8698 50.641 84.876 49.46C84.8824 48.2253 86.0684 47.2653 87.5178 47.2728C88.9672 47.2803 90.1432 48.2527 90.1367 49.4874Z" fill="url(#paint_linear_1_197_0)" fill-opacity="1.000000" fill-rule="nonzero"/>
		<path id="Vector" d="M89.6 49.4845C89.5949 50.4628 88.6535 51.2511 87.4973 51.2451C86.341 51.2391 85.4078 50.441 85.4129 49.4627C85.418 48.4843 86.3594 47.6961 87.5157 47.7021C88.6719 47.7081 89.6051 48.5061 89.6 49.4845Z" fill="url(#paint_linear_1_198_0)" fill-opacity="1.000000" fill-rule="evenodd"/>
		<path id="Vector" d="M94.6143 45.2698C94.6079 46.5045 93.4219 47.4646 91.9725 47.457C90.5231 47.4495 89.3474 46.4234 89.3535 45.2424C89.36 44.0078 90.546 43.0477 91.9954 43.0552C93.4448 43.0627 94.6207 44.0352 94.6143 45.2698Z" fill="url(#paint_linear_1_200_0)" fill-opacity="1.000000" fill-rule="nonzero"/>
		<path id="Vector" d="M94.0773 45.2671C94.0723 46.2333 93.1555 47.0338 91.9745 47.0276C90.8473 47.0218 89.8852 46.2115 89.8902 45.2453C89.8952 44.2791 90.812 43.4786 91.993 43.4847C93.1203 43.4906 94.0824 44.3008 94.0773 45.2671Z" fill="url(#paint_linear_1_201_0)" fill-opacity="1.000000" fill-rule="nonzero"/>
		<path id="Vector" d="M86.2937 45.2267C86.2873 46.4614 85.1013 47.4215 83.6519 47.4139C82.2025 47.4064 81.0268 46.3803 81.033 45.1993C81.0394 43.9647 82.2254 43.0046 83.6748 43.0121C85.1242 43.0197 86.3002 43.9921 86.2937 45.2267Z" fill="url(#paint_linear_1_203_0)" fill-opacity="1.000000" fill-rule="nonzero"/>
		<path id="Vector" d="M85.7569 45.2239C85.7519 46.1901 84.8351 46.9906 83.6541 46.9844C82.5268 46.9786 81.5647 46.1683 81.5698 45.2021C81.5748 44.2358 82.4916 43.4354 83.6725 43.4415C84.7999 43.4474 85.7619 44.2576 85.7569 45.2239Z" fill="url(#paint_linear_1_204_0)" fill-opacity="1.000000" fill-rule="nonzero"/>
		<path id="Vector" d="M55.757 43.5644C55.7396 46.9146 53.0096 49.6163 49.6595 49.5988C46.3093 49.5814 43.6076 46.8514 43.6251 43.5013C43.6425 40.1511 46.3724 37.4495 49.7226 37.4669C53.0728 37.4843 55.7744 40.2143 55.757 43.5644Z" fill="url(#paint_linear_1_206_0)" fill-opacity="1.000000" fill-rule="evenodd"/>
		<path id="Vector" d="M55.1129 43.561C55.0973 46.5554 52.6572 48.9702 49.6629 48.9546C46.6685 48.939 44.2537 46.499 44.2693 43.5046C44.2849 40.5102 46.7249 38.0954 49.7193 38.111C52.7137 38.1266 55.1284 40.5666 55.1129 43.561Z" fill="url(#paint_linear_1_207_0)" fill-opacity="1.000000" fill-rule="evenodd"/>
		<path id="Vector" d="M52.8644 42.3682L51.3614 42.3604C51.093 42.359 50.8794 42.1432 50.8808 41.8748L50.8886 40.3717C50.89 40.1033 50.6764 39.8875 50.408 39.886L48.9586 39.8785C48.6902 39.8771 48.4743 40.0908 48.4729 40.3591L48.4651 41.8622C48.4637 42.1306 48.2479 42.3442 47.9795 42.3428L46.4764 42.335C46.208 42.3336 45.9921 42.5472 45.9908 42.8156L45.9832 44.265C45.9818 44.5334 46.1954 44.7493 46.4638 44.7507L47.9669 44.7585C48.2353 44.7599 48.4489 44.9757 48.4475 45.2441L48.4397 46.7472C48.4383 47.0156 48.6519 47.2314 48.9203 47.2328L50.3697 47.2404C50.6381 47.2418 50.8539 47.0282 50.8553 46.7598L50.8632 45.2567C50.8646 44.9883 51.0804 44.7747 51.3488 44.7761L52.8519 44.7839C53.1203 44.7853 53.3361 44.5717 53.3375 44.3033L53.3451 42.8539C53.2928 42.5852 53.0792 42.3694 52.8644 42.3682Z" fill="url(#paint_linear_1_208_0)" fill-opacity="1.000000" fill-rule="nonzero"/>
		<path id="Vector" d="M67.3524 43.5712L61.8232 43.5424C61.5548 43.541 61.3927 43.7549 61.3916 43.9696L61.3837 45.4727C61.3824 45.7411 61.5962 45.9033 61.8109 45.9044L67.3401 45.9332C67.6085 45.9345 67.7707 45.7206 67.7718 45.5059L67.7796 44.0029C67.781 43.7344 67.5671 43.5723 67.3524 43.5712Z" fill="url(#paint_linear_1_210_0)" fill-opacity="1.000000" fill-rule="nonzero"/>
		<path id="Vector" d="M75.5653 43.614L70.0361 43.5853C69.7677 43.5839 69.6056 43.7977 69.6045 44.0125L69.5966 45.5155C69.5952 45.7839 69.8091 45.9461 70.0239 45.9472L75.553 45.976C75.8214 45.9774 75.9836 45.7635 75.9847 45.5488L75.9925 44.0457C75.9939 43.7773 75.8337 43.6154 75.5653 43.614Z" fill="url(#paint_linear_1_211_0)" fill-opacity="1.000000" fill-rule="nonzero"/>
		<path id="Sony Dualshock 4 Wireless Controller" d="M120.931 26.2014C120.678 26.068 120.404 25.9547 120.111 25.8613C119.818 25.768 119.534 25.7213 119.261 25.7213C118.888 25.7213 118.591 25.808 118.371 25.9813C118.151 26.148 118.041 26.378 118.041 26.6714C118.041 26.878 118.114 27.058 118.261 27.2113C118.408 27.3647 118.598 27.498 118.831 27.6114C119.064 27.7247 119.311 27.8314 119.571 27.9314C119.791 28.0113 120.008 28.108 120.221 28.2213C120.441 28.328 120.638 28.4613 120.811 28.6213C120.991 28.7813 121.131 28.9813 121.231 29.2213C121.338 29.4547 121.391 29.7414 121.391 30.0814C121.391 30.468 121.294 30.818 121.101 31.1313C120.914 31.4447 120.641 31.6947 120.281 31.8814C119.928 32.0613 119.498 32.1514 118.991 32.1514C118.684 32.1514 118.384 32.118 118.091 32.0513C117.804 31.978 117.531 31.8847 117.271 31.7714C117.018 31.6514 116.788 31.5214 116.581 31.3813L117.061 30.5513C117.221 30.6647 117.404 30.7747 117.611 30.8813C117.818 30.9813 118.031 31.0613 118.251 31.1213C118.478 31.1814 118.691 31.2113 118.891 31.2113C119.111 31.2113 119.328 31.1747 119.541 31.1013C119.754 31.0214 119.931 30.9014 120.071 30.7414C120.211 30.5747 120.281 30.358 120.281 30.0914C120.281 29.8647 120.218 29.6747 120.091 29.5214C119.971 29.3614 119.808 29.2247 119.601 29.1114C119.401 28.998 119.184 28.898 118.951 28.8113C118.724 28.7247 118.494 28.628 118.261 28.5214C118.028 28.4147 117.811 28.288 117.611 28.1413C117.411 27.988 117.248 27.8013 117.121 27.5814C117.001 27.3547 116.941 27.078 116.941 26.7514C116.941 26.3647 117.031 26.028 117.211 25.7414C117.398 25.448 117.654 25.218 117.981 25.0513C118.308 24.8847 118.684 24.7913 119.111 24.7714C119.598 24.7714 120.021 24.8314 120.381 24.9514C120.741 25.0714 121.061 25.2147 121.341 25.3813L120.931 26.2014ZM122.381 29.9314C122.381 29.5113 122.481 29.1347 122.681 28.8013C122.881 28.4613 123.158 28.1947 123.511 28.0014C123.865 27.808 124.268 27.7113 124.721 27.7113C125.181 27.7113 125.585 27.808 125.931 28.0014C126.278 28.1947 126.545 28.4613 126.731 28.8013C126.925 29.1347 127.021 29.5113 127.021 29.9314C127.021 30.3513 126.925 30.7313 126.731 31.0714C126.545 31.4114 126.278 31.6814 125.931 31.8814C125.585 32.0747 125.178 32.1713 124.711 32.1713C124.265 32.1713 123.865 32.0814 123.511 31.9014C123.165 31.7213 122.888 31.4647 122.681 31.1313C122.481 30.7913 122.381 30.3913 122.381 29.9314ZM123.421 29.9413C123.421 30.2014 123.478 30.438 123.591 30.6514C123.705 30.858 123.858 31.0247 124.051 31.1514C124.245 31.2714 124.461 31.3314 124.701 31.3314C124.948 31.3314 125.168 31.2714 125.361 31.1514C125.555 31.0247 125.705 30.858 125.811 30.6514C125.925 30.438 125.981 30.2014 125.981 29.9413C125.981 29.6814 125.925 29.448 125.811 29.2414C125.705 29.0347 125.555 28.868 125.361 28.7414C125.168 28.6147 124.948 28.5513 124.701 28.5513C124.455 28.5513 124.235 28.6147 124.041 28.7414C123.848 28.868 123.695 29.038 123.581 29.2514C123.475 29.458 123.421 29.688 123.421 29.9413ZM129.159 27.8813L129.249 28.8414L129.209 28.7113C129.349 28.4114 129.566 28.1714 129.859 27.9914C130.153 27.8047 130.499 27.7113 130.899 27.7113C131.293 27.7113 131.616 27.828 131.869 28.0613C132.129 28.2947 132.263 28.598 132.269 28.9713L132.269 32.0714L131.239 32.0714L131.239 29.3314C131.233 29.118 131.169 28.9447 131.049 28.8113C130.929 28.6714 130.743 28.598 130.489 28.5914C130.263 28.5914 130.056 28.6614 129.869 28.8013C129.683 28.9347 129.536 29.118 129.429 29.3513C129.323 29.5847 129.269 29.8547 129.269 30.1614L129.269 32.0714L128.239 32.0714L128.239 27.8813L129.159 27.8813ZM134.038 34.0814L136.808 27.8813L137.748 27.8813L135.048 34.0814L134.038 34.0814ZM135.098 32.1013L133.068 27.8813L134.228 27.8813L135.888 31.5814L135.098 32.1013ZM142.122 32.0714L142.122 24.8113L144.142 24.8113C144.862 24.8113 145.475 24.9213 145.982 25.1413C146.488 25.3614 146.895 25.6514 147.202 26.0114C147.515 26.3713 147.742 26.7714 147.882 27.2113C148.028 27.6514 148.102 28.0947 148.102 28.5413C148.102 29.0814 148.005 29.568 147.812 30.0014C147.618 30.4347 147.355 30.808 147.022 31.1213C146.688 31.428 146.305 31.6647 145.872 31.8314C145.438 31.9914 144.978 32.0714 144.492 32.0714L142.122 32.0714ZM143.192 31.0413L144.292 31.0413C144.685 31.0413 145.045 30.9847 145.372 30.8713C145.705 30.758 145.992 30.5914 146.232 30.3713C146.478 30.1514 146.668 29.8813 146.802 29.5613C146.935 29.2414 147.002 28.8747 147.002 28.4613C147.002 28.0147 146.925 27.628 146.772 27.3013C146.625 26.968 146.428 26.6947 146.182 26.4813C145.935 26.2613 145.658 26.1013 145.352 26.0014C145.052 25.8947 144.745 25.8414 144.432 25.8414L143.192 25.8414L143.192 31.0413ZM150.8 32.2413C150.413 32.2413 150.097 32.1247 149.85 31.8913C149.603 31.658 149.473 31.358 149.46 30.9914L149.46 27.8813L150.49 27.8813L150.49 30.6213C150.503 30.8347 150.563 31.0114 150.67 31.1514C150.783 31.2847 150.963 31.3547 151.21 31.3614C151.437 31.3614 151.637 31.2947 151.81 31.1614C151.99 31.0214 152.13 30.8347 152.23 30.6013C152.337 30.3614 152.39 30.088 152.39 29.7813L152.39 27.8813L153.42 27.8813L153.42 32.0714L152.49 32.0714L152.41 31.1013L152.45 31.2614C152.363 31.448 152.24 31.618 152.08 31.7714C151.92 31.918 151.73 32.0313 151.51 32.1114C151.29 32.198 151.053 32.2413 150.8 32.2413ZM156.747 32.1713C156.354 32.1713 155.997 32.0914 155.677 31.9314C155.357 31.7647 155.104 31.518 154.917 31.1913C154.73 30.8647 154.637 30.4613 154.637 29.9813C154.637 29.508 154.734 29.1013 154.927 28.7613C155.127 28.4213 155.387 28.1614 155.707 27.9813C156.034 27.7947 156.387 27.7014 156.767 27.7014C157.167 27.7014 157.494 27.788 157.747 27.9613C158.007 28.128 158.21 28.3247 158.357 28.5513L158.287 28.7113L158.387 27.8813L159.337 27.8813L159.337 32.0714L158.307 32.0714L158.307 31.0214L158.417 31.2714C158.39 31.3247 158.334 31.4014 158.247 31.5014C158.16 31.5947 158.044 31.6947 157.897 31.8013C157.757 31.908 157.59 31.998 157.397 32.0714C157.21 32.138 156.994 32.1713 156.747 32.1713ZM157.027 31.3314C157.247 31.3314 157.444 31.2913 157.617 31.2113C157.79 31.1313 157.937 31.018 158.057 30.8713C158.177 30.7247 158.26 30.5513 158.307 30.3513L158.307 29.4813C158.254 29.2947 158.164 29.1347 158.037 29.0014C157.91 28.8614 157.757 28.7514 157.577 28.6714C157.404 28.5914 157.21 28.5513 156.997 28.5513C156.757 28.5513 156.537 28.6114 156.337 28.7313C156.137 28.8447 155.977 29.0047 155.857 29.2113C155.737 29.418 155.677 29.658 155.677 29.9314C155.677 30.1913 155.737 30.428 155.857 30.6413C155.984 30.8547 156.15 31.0247 156.357 31.1514C156.564 31.2714 156.787 31.3314 157.027 31.3314ZM160.915 24.3013L161.945 24.3013L161.945 32.0714L160.915 32.0714L160.915 24.3013ZM164.733 32.1614C164.426 32.1614 164.129 32.108 163.843 32.0014C163.556 31.888 163.319 31.7247 163.133 31.5114L163.573 30.9314C163.753 31.098 163.933 31.2247 164.113 31.3113C164.299 31.3913 164.476 31.4314 164.643 31.4314C164.776 31.4314 164.896 31.418 165.003 31.3913C165.109 31.358 165.196 31.3047 165.263 31.2313C165.329 31.158 165.363 31.0613 165.363 30.9413C165.363 30.8013 165.316 30.6913 165.223 30.6114C165.129 30.5313 165.009 30.4647 164.863 30.4114C164.716 30.358 164.559 30.308 164.393 30.2614C164.039 30.148 163.773 29.988 163.593 29.7813C163.413 29.568 163.323 29.318 163.323 29.0313C163.323 28.8113 163.376 28.6047 163.483 28.4114C163.596 28.2113 163.766 28.048 163.993 27.9214C164.219 27.7947 164.499 27.7313 164.833 27.7313C165.139 27.7313 165.409 27.768 165.643 27.8414C165.876 27.908 166.093 28.0247 166.293 28.1913L165.893 28.8113C165.773 28.6913 165.629 28.6013 165.463 28.5413C165.303 28.4747 165.156 28.438 165.023 28.4314C164.903 28.4314 164.793 28.4514 164.693 28.4914C164.593 28.5247 164.513 28.578 164.453 28.6514C164.393 28.718 164.363 28.798 164.363 28.8913C164.356 29.0247 164.399 29.1347 164.493 29.2213C164.593 29.3013 164.719 29.368 164.873 29.4214C165.026 29.468 165.176 29.518 165.323 29.5714C165.529 29.6313 165.713 29.7147 165.873 29.8214C166.033 29.9214 166.159 30.0447 166.253 30.1913C166.346 30.338 166.393 30.5247 166.393 30.7514C166.393 30.998 166.333 31.2313 166.213 31.4514C166.093 31.6647 165.909 31.838 165.663 31.9713C165.416 32.098 165.106 32.1614 164.733 32.1614ZM167.663 32.0714L167.663 24.3013L168.663 24.3013L168.663 28.8314L168.653 28.6614C168.793 28.388 169.006 28.1614 169.293 27.9813C169.58 27.8013 169.923 27.7113 170.323 27.7113C170.716 27.7113 171.04 27.828 171.293 28.0613C171.553 28.2947 171.686 28.598 171.693 28.9713L171.693 32.0714L170.663 32.0714L170.663 29.3314C170.656 29.118 170.593 28.9447 170.473 28.8113C170.353 28.6714 170.166 28.598 169.913 28.5914C169.686 28.5914 169.48 28.6614 169.293 28.8013C169.106 28.9347 168.96 29.1213 168.853 29.3614C168.746 29.5947 168.693 29.8614 168.693 30.1614L168.693 32.0714L167.663 32.0714ZM172.909 29.9314C172.909 29.5113 173.009 29.1347 173.209 28.8013C173.409 28.4613 173.685 28.1947 174.039 28.0014C174.392 27.808 174.795 27.7113 175.249 27.7113C175.709 27.7113 176.112 27.808 176.459 28.0014C176.805 28.1947 177.072 28.4613 177.259 28.8013C177.452 29.1347 177.549 29.5113 177.549 29.9314C177.549 30.3513 177.452 30.7313 177.259 31.0714C177.072 31.4114 176.805 31.6814 176.459 31.8814C176.112 32.0747 175.705 32.1713 175.239 32.1713C174.792 32.1713 174.392 32.0814 174.039 31.9014C173.692 31.7213 173.415 31.4647 173.209 31.1313C173.009 30.7913 172.909 30.3913 172.909 29.9314ZM173.949 29.9413C173.949 30.2014 174.005 30.438 174.119 30.6514C174.232 30.858 174.385 31.0247 174.579 31.1514C174.772 31.2714 174.989 31.3314 175.229 31.3314C175.475 31.3314 175.695 31.2714 175.889 31.1514C176.082 31.0247 176.232 30.858 176.339 30.6514C176.452 30.438 176.509 30.2014 176.509 29.9413C176.509 29.6814 176.452 29.448 176.339 29.2414C176.232 29.0347 176.082 28.868 175.889 28.7414C175.695 28.6147 175.475 28.5513 175.229 28.5513C174.982 28.5513 174.762 28.6147 174.569 28.7414C174.375 28.868 174.222 29.038 174.109 29.2514C174.002 29.458 173.949 29.688 173.949 29.9413ZM182.197 31.6814C182.01 31.8347 181.783 31.9547 181.517 32.0414C181.257 32.128 180.993 32.1713 180.727 32.1713C180.267 32.1713 179.86 32.0814 179.507 31.9014C179.16 31.7213 178.89 31.468 178.697 31.1413C178.503 30.8147 178.407 30.4247 178.407 29.9713C178.407 29.5247 178.51 29.138 178.717 28.8113C178.923 28.478 179.197 28.2247 179.537 28.0513C179.877 27.8713 180.237 27.7813 180.617 27.7813C180.963 27.7813 181.27 27.828 181.537 27.9214C181.803 28.0147 182.033 28.1447 182.227 28.3113L181.717 28.9813C181.603 28.888 181.46 28.8047 181.287 28.7313C181.12 28.658 180.927 28.6213 180.707 28.6213C180.473 28.6213 180.26 28.6814 180.067 28.8013C179.873 28.9147 179.72 29.0747 179.607 29.2813C179.493 29.4813 179.437 29.7113 179.437 29.9713C179.437 30.218 179.493 30.448 179.607 30.6614C179.727 30.868 179.89 31.0313 180.097 31.1514C180.303 31.2714 180.54 31.3314 180.807 31.3314C180.98 31.3314 181.14 31.308 181.287 31.2614C181.433 31.208 181.563 31.1347 181.677 31.0413L182.197 31.6814ZM183.376 32.0714L183.376 24.3013L184.406 24.3013L184.406 32.0714L183.376 32.0714ZM185.426 29.2714L187.346 32.0714L186.146 32.0714L184.746 29.8614L185.426 29.2714ZM184.086 30.7813L183.986 29.7913L186.526 27.7913L187.156 28.3414L184.086 30.7813ZM190.968 30.5114L190.968 30.5014L195.028 25.4014L195.038 25.4014L195.038 29.6913L195.878 29.6913L195.878 30.5114L195.038 30.5114L195.038 32.0714L193.968 32.0714L193.968 30.5114L190.968 30.5114ZM194.028 27.7913L192.528 29.7414L192.378 29.6913L193.968 29.6913L193.968 27.6313L194.028 27.7913ZM116.521 36.8513L117.761 36.8513L119.641 42.1913L119.461 42.1213L120.881 38.4714L121.371 39.9213L119.411 44.4114L116.521 36.8513ZM120.041 36.8513L121.101 36.8513L123.161 42.1013L122.951 42.0613L124.711 36.8513L125.851 36.8513L123.011 44.3913L120.041 36.8513ZM126.911 39.8813L127.941 39.8813L127.941 44.0714L126.911 44.0714L126.911 39.8813ZM126.851 38.3813C126.851 38.2214 126.914 38.088 127.041 37.9813C127.168 37.8747 127.304 37.8214 127.451 37.8214C127.604 37.8214 127.741 37.8747 127.861 37.9813C127.981 38.088 128.041 38.2214 128.041 38.3813C128.041 38.5414 127.981 38.6747 127.861 38.7813C127.741 38.8813 127.604 38.9314 127.451 38.9314C127.304 38.9314 127.168 38.8813 127.041 38.7813C126.914 38.6747 126.851 38.5414 126.851 38.3813ZM130.429 39.8813L130.529 41.0814L130.479 40.9213C130.592 40.668 130.752 40.4513 130.959 40.2714C131.165 40.0914 131.379 39.9547 131.599 39.8614C131.825 39.7613 132.015 39.7113 132.169 39.7113L132.119 40.7313C131.799 40.7113 131.519 40.7714 131.279 40.9114C131.045 41.0513 130.862 41.238 130.729 41.4714C130.595 41.7047 130.529 41.9547 130.529 42.2214L130.529 44.0714L129.509 44.0714L129.509 39.8813L130.429 39.8813ZM135.131 44.1713C134.644 44.1713 134.228 44.078 133.881 43.8913C133.534 43.698 133.268 43.4347 133.081 43.1013C132.894 42.7614 132.801 42.3747 132.801 41.9413C132.801 41.528 132.904 41.1547 133.111 40.8214C133.324 40.4813 133.608 40.2113 133.961 40.0113C134.321 39.8113 134.718 39.7113 135.151 39.7113C135.711 39.7113 136.174 39.8747 136.541 40.2013C136.914 40.528 137.164 40.9847 137.291 41.5714L133.881 42.7514L133.641 42.1514L136.371 41.1713L136.161 41.3013C136.081 41.0947 135.954 40.9147 135.781 40.7613C135.608 40.6013 135.371 40.5214 135.071 40.5214C134.831 40.5214 134.614 40.5814 134.421 40.7013C134.234 40.8147 134.084 40.9747 133.971 41.1814C133.864 41.3813 133.811 41.618 133.811 41.8913C133.811 42.1713 133.868 42.418 133.981 42.6313C134.101 42.838 134.261 43.0014 134.461 43.1213C134.668 43.2413 134.898 43.3013 135.151 43.3013C135.331 43.3013 135.501 43.268 135.661 43.2013C135.828 43.1347 135.984 43.0513 136.131 42.9513L136.601 43.7113C136.381 43.8513 136.141 43.9647 135.881 44.0513C135.628 44.1313 135.378 44.1713 135.131 44.1713ZM138.435 36.3013L139.465 36.3013L139.465 44.0714L138.435 44.0714L138.435 36.3013ZM143.002 44.1713C142.516 44.1713 142.099 44.078 141.752 43.8913C141.406 43.698 141.139 43.4347 140.952 43.1013C140.766 42.7614 140.672 42.3747 140.672 41.9413C140.672 41.528 140.776 41.1547 140.982 40.8214C141.196 40.4813 141.479 40.2113 141.832 40.0113C142.192 39.8113 142.589 39.7113 143.022 39.7113C143.582 39.7113 144.046 39.8747 144.412 40.2013C144.786 40.528 145.036 40.9847 145.162 41.5714L141.752 42.7514L141.512 42.1514L144.242 41.1713L144.032 41.3013C143.952 41.0947 143.826 40.9147 143.652 40.7613C143.479 40.6013 143.242 40.5214 142.942 40.5214C142.702 40.5214 142.486 40.5814 142.292 40.7013C142.106 40.8147 141.956 40.9747 141.842 41.1814C141.736 41.3813 141.682 41.618 141.682 41.8913C141.682 42.1713 141.739 42.418 141.852 42.6313C141.972 42.838 142.132 43.0014 142.332 43.1213C142.539 43.2413 142.769 43.3013 143.022 43.3013C143.202 43.3013 143.372 43.268 143.532 43.2013C143.699 43.1347 143.856 43.0513 144.002 42.9513L144.472 43.7113C144.252 43.8513 144.012 43.9647 143.752 44.0513C143.499 44.1313 143.249 44.1713 143.002 44.1713ZM147.526 44.1614C147.219 44.1614 146.922 44.108 146.636 44.0014C146.349 43.888 146.112 43.7247 145.926 43.5114L146.366 42.9314C146.546 43.098 146.726 43.2247 146.906 43.3113C147.092 43.3913 147.269 43.4314 147.436 43.4314C147.569 43.4314 147.689 43.418 147.796 43.3913C147.902 43.358 147.989 43.3047 148.056 43.2313C148.122 43.158 148.156 43.0613 148.156 42.9413C148.156 42.8013 148.109 42.6913 148.016 42.6114C147.922 42.5313 147.802 42.4647 147.656 42.4114C147.509 42.358 147.352 42.308 147.186 42.2614C146.832 42.148 146.566 41.988 146.386 41.7813C146.206 41.568 146.116 41.318 146.116 41.0313C146.116 40.8113 146.169 40.6047 146.276 40.4114C146.389 40.2113 146.559 40.048 146.786 39.9213C147.012 39.7947 147.292 39.7313 147.626 39.7313C147.932 39.7313 148.202 39.768 148.436 39.8414C148.669 39.908 148.886 40.0247 149.086 40.1913L148.686 40.8113C148.566 40.6913 148.422 40.6013 148.256 40.5414C148.096 40.4747 147.949 40.438 147.816 40.4314C147.696 40.4314 147.586 40.4513 147.486 40.4913C147.386 40.5247 147.306 40.578 147.246 40.6514C147.186 40.718 147.156 40.798 147.156 40.8913C147.149 41.0247 147.192 41.1347 147.286 41.2214C147.386 41.3013 147.512 41.368 147.666 41.4213C147.819 41.468 147.969 41.518 148.116 41.5714C148.322 41.6313 148.506 41.7147 148.666 41.8214C148.826 41.9213 148.952 42.0447 149.046 42.1913C149.139 42.338 149.186 42.5247 149.186 42.7514C149.186 42.998 149.126 43.2313 149.006 43.4513C148.886 43.6647 148.702 43.838 148.456 43.9714C148.209 44.098 147.899 44.1614 147.526 44.1614ZM151.676 44.1614C151.369 44.1614 151.073 44.108 150.786 44.0014C150.499 43.888 150.263 43.7247 150.076 43.5114L150.516 42.9314C150.696 43.098 150.876 43.2247 151.056 43.3113C151.243 43.3913 151.419 43.4314 151.586 43.4314C151.719 43.4314 151.839 43.418 151.946 43.3913C152.053 43.358 152.139 43.3047 152.206 43.2313C152.273 43.158 152.306 43.0613 152.306 42.9413C152.306 42.8013 152.259 42.6913 152.166 42.6114C152.073 42.5313 151.953 42.4647 151.806 42.4114C151.659 42.358 151.503 42.308 151.336 42.2614C150.983 42.148 150.716 41.988 150.536 41.7813C150.356 41.568 150.266 41.318 150.266 41.0313C150.266 40.8113 150.319 40.6047 150.426 40.4114C150.539 40.2113 150.709 40.048 150.936 39.9213C151.163 39.7947 151.443 39.7313 151.776 39.7313C152.083 39.7313 152.353 39.768 152.586 39.8414C152.819 39.908 153.036 40.0247 153.236 40.1913L152.836 40.8113C152.716 40.6913 152.573 40.6013 152.406 40.5414C152.246 40.4747 152.099 40.438 151.966 40.4314C151.846 40.4314 151.736 40.4513 151.636 40.4913C151.536 40.5247 151.456 40.578 151.396 40.6514C151.336 40.718 151.306 40.798 151.306 40.8913C151.299 41.0247 151.343 41.1347 151.436 41.2214C151.536 41.3013 151.663 41.368 151.816 41.4213C151.969 41.468 152.119 41.518 152.266 41.5714C152.473 41.6313 152.656 41.7147 152.816 41.8214C152.976 41.9213 153.103 42.0447 153.196 42.1913C153.289 42.338 153.336 42.5247 153.336 42.7514C153.336 42.998 153.276 43.2313 153.156 43.4513C153.036 43.6647 152.853 43.838 152.606 43.9714C152.359 44.098 152.049 44.1614 151.676 44.1614ZM163.37 43.5214C163.263 43.5947 163.103 43.6847 162.89 43.7914C162.683 43.8913 162.437 43.978 162.15 44.0513C161.87 44.1247 161.56 44.158 161.22 44.1514C160.653 44.1447 160.143 44.0447 159.69 43.8513C159.243 43.658 158.863 43.3947 158.55 43.0613C158.237 42.7214 157.993 42.3347 157.82 41.9014C157.653 41.4613 157.57 40.9947 157.57 40.5014C157.57 39.9547 157.657 39.4547 157.83 39.0014C158.003 38.5414 158.25 38.1413 158.57 37.8013C158.897 37.4613 159.277 37.198 159.71 37.0113C160.15 36.8247 160.63 36.7313 161.15 36.7313C161.597 36.7313 162 36.7914 162.36 36.9114C162.72 37.0313 163.023 37.1713 163.27 37.3314L162.85 38.3314C162.657 38.198 162.417 38.0714 162.13 37.9513C161.85 37.8247 161.537 37.7613 161.19 37.7613C160.85 37.7613 160.527 37.8314 160.22 37.9714C159.92 38.1047 159.653 38.2947 159.42 38.5414C159.193 38.7813 159.013 39.0647 158.88 39.3913C158.747 39.7113 158.68 40.0613 158.68 40.4413C158.68 40.828 158.74 41.1847 158.86 41.5114C158.98 41.838 159.15 42.1213 159.37 42.3614C159.597 42.6013 159.867 42.788 160.18 42.9213C160.493 43.0547 160.847 43.1213 161.24 43.1213C161.613 43.1213 161.94 43.0647 162.22 42.9513C162.507 42.838 162.74 42.708 162.92 42.5613L163.37 43.5214ZM164.383 41.9314C164.383 41.5114 164.483 41.1347 164.683 40.8013C164.883 40.4613 165.16 40.1947 165.513 40.0014C165.866 39.808 166.27 39.7113 166.723 39.7113C167.183 39.7113 167.586 39.808 167.933 40.0014C168.28 40.1947 168.546 40.4613 168.733 40.8013C168.926 41.1347 169.023 41.5114 169.023 41.9314C169.023 42.3513 168.926 42.7313 168.733 43.0714C168.546 43.4114 168.28 43.6814 167.933 43.8813C167.586 44.0747 167.18 44.1713 166.713 44.1713C166.266 44.1713 165.866 44.0814 165.513 43.9014C165.166 43.7214 164.89 43.4647 164.683 43.1313C164.483 42.7914 164.383 42.3913 164.383 41.9314ZM165.423 41.9413C165.423 42.2013 165.48 42.438 165.593 42.6514C165.706 42.858 165.86 43.0247 166.053 43.1514C166.246 43.2714 166.463 43.3314 166.703 43.3314C166.95 43.3314 167.17 43.2714 167.363 43.1514C167.556 43.0247 167.706 42.858 167.813 42.6514C167.926 42.438 167.983 42.2013 167.983 41.9413C167.983 41.6814 167.926 41.448 167.813 41.2413C167.706 41.0347 167.556 40.868 167.363 40.7413C167.17 40.6147 166.95 40.5513 166.703 40.5513C166.456 40.5513 166.236 40.6147 166.043 40.7413C165.85 40.868 165.696 41.038 165.583 41.2514C165.476 41.458 165.423 41.688 165.423 41.9413ZM171.161 39.8813L171.251 40.8414L171.211 40.7113C171.351 40.4114 171.568 40.1713 171.861 39.9913C172.155 39.8047 172.501 39.7113 172.901 39.7113C173.295 39.7113 173.618 39.828 173.871 40.0613C174.131 40.2947 174.264 40.598 174.271 40.9714L174.271 44.0714L173.241 44.0714L173.241 41.3314C173.234 41.118 173.171 40.9447 173.051 40.8113C172.931 40.6713 172.745 40.598 172.491 40.5914C172.264 40.5914 172.058 40.6614 171.871 40.8013C171.685 40.9347 171.538 41.118 171.431 41.3513C171.325 41.5847 171.271 41.8547 171.271 42.1614L171.271 44.0714L170.241 44.0714L170.241 39.8813L171.161 39.8813ZM176.247 38.0414L177.277 38.0414L177.277 39.8913L178.397 39.8913L178.397 40.7013L177.277 40.7013L177.277 44.0714L176.247 44.0714L176.247 40.7013L175.507 40.7013L175.507 39.8913L176.247 39.8913L176.247 38.0414ZM180.429 39.8813L180.529 41.0814L180.479 40.9213C180.592 40.668 180.752 40.4513 180.959 40.2714C181.165 40.0914 181.379 39.9547 181.599 39.8614C181.825 39.7613 182.015 39.7113 182.169 39.7113L182.119 40.7313C181.799 40.7113 181.519 40.7714 181.279 40.9114C181.045 41.0513 180.862 41.238 180.729 41.4714C180.595 41.7047 180.529 41.9547 180.529 42.2214L180.529 44.0714L179.509 44.0714L179.509 39.8813L180.429 39.8813ZM182.801 41.9314C182.801 41.5114 182.901 41.1347 183.101 40.8013C183.301 40.4613 183.578 40.1947 183.931 40.0014C184.284 39.808 184.688 39.7113 185.141 39.7113C185.601 39.7113 186.004 39.808 186.351 40.0014C186.698 40.1947 186.964 40.4613 187.151 40.8013C187.344 41.1347 187.441 41.5114 187.441 41.9314C187.441 42.3513 187.344 42.7313 187.151 43.0714C186.964 43.4114 186.698 43.6814 186.351 43.8813C186.004 44.0747 185.598 44.1713 185.131 44.1713C184.684 44.1713 184.284 44.0814 183.931 43.9014C183.584 43.7214 183.308 43.4647 183.101 43.1313C182.901 42.7914 182.801 42.3913 182.801 41.9314ZM183.841 41.9413C183.841 42.2013 183.898 42.438 184.011 42.6514C184.124 42.858 184.278 43.0247 184.471 43.1514C184.664 43.2714 184.881 43.3314 185.121 43.3314C185.368 43.3314 185.588 43.2714 185.781 43.1514C185.974 43.0247 186.124 42.858 186.231 42.6514C186.344 42.438 186.401 42.2013 186.401 41.9413C186.401 41.6814 186.344 41.448 186.231 41.2413C186.124 41.0347 185.974 40.868 185.781 40.7413C185.588 40.6147 185.368 40.5513 185.121 40.5513C184.874 40.5513 184.654 40.6147 184.461 40.7413C184.268 40.868 184.114 41.038 184.001 41.2514C183.894 41.458 183.841 41.688 183.841 41.9413ZM188.659 36.3013L189.689 36.3013L189.689 44.0714L188.659 44.0714L188.659 36.3013ZM191.257 36.3013L192.287 36.3013L192.287 44.0714L191.257 44.0714L191.257 36.3013ZM195.824 44.1713C195.338 44.1713 194.921 44.078 194.574 43.8913C194.228 43.698 193.961 43.4347 193.774 43.1013C193.588 42.7614 193.494 42.3747 193.494 41.9413C193.494 41.528 193.598 41.1547 193.804 40.8214C194.018 40.4813 194.301 40.2113 194.654 40.0113C195.014 39.8113 195.411 39.7113 195.844 39.7113C196.404 39.7113 196.868 39.8747 197.234 40.2013C197.608 40.528 197.858 40.9847 197.984 41.5714L194.574 42.7514L194.334 42.1514L197.064 41.1713L196.854 41.3013C196.774 41.0947 196.648 40.9147 196.474 40.7613C196.301 40.6013 196.064 40.5214 195.764 40.5214C195.524 40.5214 195.308 40.5814 195.114 40.7013C194.928 40.8147 194.778 40.9747 194.664 41.1814C194.558 41.3813 194.504 41.618 194.504 41.8913C194.504 42.1713 194.561 42.418 194.674 42.6313C194.794 42.838 194.954 43.0014 195.154 43.1213C195.361 43.2413 195.591 43.3013 195.844 43.3013C196.024 43.3013 196.194 43.268 196.354 43.2013C196.521 43.1347 196.678 43.0513 196.824 42.9513L197.294 43.7113C197.074 43.8513 196.834 43.9647 196.574 44.0513C196.321 44.1313 196.071 44.1713 195.824 44.1713ZM200.048 39.8813L200.148 41.0814L200.098 40.9213C200.211 40.668 200.371 40.4513 200.578 40.2714C200.785 40.0914 200.998 39.9547 201.218 39.8614C201.445 39.7613 201.635 39.7113 201.788 39.7113L201.738 40.7313C201.418 40.7113 201.138 40.7714 200.898 40.9114C200.665 41.0513 200.481 41.238 200.348 41.4714C200.215 41.7047 200.148 41.9547 200.148 42.2214L200.148 44.0714L199.128 44.0714L199.128 39.8813L200.048 39.8813Z" fill="#446381" fill-opacity="1.000000" fill-rule="evenodd"/>
		<path id="$50 Per Hour" d="M123.27 55.6201L122.83 56.6201C122.577 56.5267 122.323 56.4534 122.07 56.4001C121.817 56.3401 121.58 56.3034 121.36 56.2901L121.36 58.2101C121.607 58.3034 121.857 58.4067 122.11 58.5201C122.37 58.6334 122.603 58.7734 122.81 58.9401C123.017 59.1067 123.183 59.3101 123.31 59.5501C123.443 59.7834 123.51 60.0701 123.51 60.4101C123.51 60.9901 123.317 61.4634 122.93 61.8301C122.55 62.1967 122.027 62.4301 121.36 62.5301L121.36 63.1801L120.66 63.1801L120.66 62.5801L120.64 62.5801C120.353 62.5801 120.09 62.5601 119.85 62.5201C119.61 62.4801 119.393 62.4301 119.2 62.3701C119.013 62.3034 118.847 62.2367 118.7 62.1701C118.56 62.0967 118.44 62.0301 118.34 61.9701L118.87 60.9001C119.15 61.0534 119.45 61.1734 119.77 61.2601C120.09 61.3401 120.373 61.3801 120.62 61.3801L120.66 61.3801L120.66 59.1401C120.42 59.0534 120.183 58.9567 119.95 58.8501C119.723 58.7434 119.517 58.6167 119.33 58.4701C119.143 58.3234 118.993 58.1501 118.88 57.9501C118.767 57.7434 118.71 57.5001 118.71 57.2201C118.71 56.9934 118.75 56.7701 118.83 56.5501C118.91 56.3301 119.03 56.1301 119.19 55.9501C119.357 55.7634 119.56 55.6067 119.8 55.4801C120.047 55.3467 120.333 55.2567 120.66 55.2101L120.66 54.5401L121.36 54.5401L121.36 55.1801C121.6 55.1934 121.827 55.2234 122.04 55.2701C122.26 55.3101 122.457 55.3567 122.63 55.4101C122.803 55.4567 122.947 55.5034 123.06 55.5501C123.173 55.5901 123.243 55.6134 123.27 55.6201ZM122.3 60.4001C122.3 60.1667 122.21 59.9734 122.03 59.8201C121.85 59.6667 121.627 59.5334 121.36 59.4201L121.36 61.2801C121.48 61.2534 121.593 61.2167 121.7 61.1701C121.813 61.1167 121.913 61.0567 122 60.9901C122.093 60.9167 122.167 60.8334 122.22 60.7401C122.273 60.6401 122.3 60.5267 122.3 60.4001ZM119.92 57.1401C119.92 57.3267 119.987 57.4834 120.12 57.6101C120.26 57.7367 120.44 57.8467 120.66 57.9401L120.66 56.3601C120.427 56.4267 120.243 56.5301 120.11 56.6701C119.983 56.8034 119.92 56.9601 119.92 57.1401ZM124.708 59.5101L124.708 55.9001L127.628 55.9001L127.628 56.8901L125.598 56.8901L125.598 58.1601C125.631 58.1467 125.661 58.1367 125.688 58.1301C125.721 58.1234 125.768 58.1201 125.828 58.1201C126.168 58.1201 126.478 58.1801 126.758 58.3001C127.038 58.4134 127.275 58.5701 127.468 58.7701C127.661 58.9701 127.811 59.2034 127.918 59.4701C128.025 59.7301 128.078 60.0067 128.078 60.3001C128.078 60.6201 128.018 60.9201 127.898 61.2001C127.778 61.4801 127.615 61.7234 127.408 61.9301C127.201 62.1301 126.961 62.2901 126.688 62.4101C126.415 62.5234 126.125 62.5801 125.818 62.5801C125.518 62.5801 125.235 62.5267 124.968 62.4201C124.708 62.3067 124.475 62.1501 124.268 61.9501C124.395 61.8301 124.521 61.7134 124.648 61.6001C124.775 61.4867 124.898 61.3734 125.018 61.2601C125.125 61.3534 125.245 61.4301 125.378 61.4901C125.518 61.5501 125.671 61.5801 125.838 61.5801C126.005 61.5801 126.161 61.5467 126.308 61.4801C126.455 61.4134 126.581 61.3267 126.688 61.2201C126.801 61.1067 126.891 60.9767 126.958 60.8301C127.025 60.6767 127.058 60.5134 127.058 60.3401C127.058 60.1734 127.025 60.0167 126.958 59.8701C126.891 59.7167 126.801 59.5834 126.688 59.4701C126.581 59.3567 126.451 59.2701 126.298 59.2101C126.151 59.1434 125.995 59.1101 125.828 59.1101C125.655 59.1101 125.468 59.1334 125.268 59.1801C125.068 59.2201 124.881 59.3301 124.708 59.5101ZM128.948 59.1701C128.948 58.6101 129.022 58.1201 129.168 57.7001C129.315 57.2801 129.512 56.9301 129.758 56.6501C130.012 56.3701 130.302 56.1634 130.628 56.0301C130.962 55.8901 131.312 55.8201 131.678 55.8201C132.078 55.8201 132.445 55.9001 132.778 56.0601C133.112 56.2134 133.398 56.4367 133.638 56.7301C133.878 57.0234 134.065 57.3801 134.198 57.8001C134.332 58.2201 134.395 58.6934 134.388 59.2201C134.382 59.7534 134.308 60.2301 134.168 60.6501C134.028 61.0701 133.835 61.4234 133.588 61.7101C133.348 61.9967 133.062 62.2167 132.728 62.3701C132.395 62.5167 132.035 62.5901 131.648 62.5901C131.275 62.5901 130.922 62.5167 130.588 62.3701C130.262 62.2167 129.975 61.9967 129.728 61.7101C129.488 61.4234 129.298 61.0667 129.158 60.6401C129.018 60.2134 128.948 59.7234 128.948 59.1701ZM129.978 59.2001C129.978 59.5201 130.018 59.8234 130.098 60.1101C130.185 60.3967 130.302 60.6501 130.448 60.8701C130.602 61.0834 130.782 61.2567 130.988 61.3901C131.195 61.5167 131.415 61.5801 131.648 61.5801C131.882 61.5801 132.102 61.5167 132.308 61.3901C132.515 61.2634 132.695 61.0934 132.848 60.8801C133.002 60.6601 133.122 60.4067 133.208 60.1201C133.302 59.8267 133.348 59.5201 133.348 59.2001C133.348 58.9867 133.322 58.7434 133.268 58.4701C133.222 58.1901 133.135 57.9301 133.008 57.6901C132.888 57.4434 132.718 57.2367 132.498 57.0701C132.285 56.8967 132.015 56.8101 131.688 56.8101C131.342 56.8101 131.058 56.9001 130.838 57.0801C130.618 57.2601 130.445 57.4767 130.318 57.7301C130.192 57.9767 130.102 58.2367 130.048 58.5101C130.002 58.7834 129.978 59.0134 129.978 59.2001ZM139.181 58.8401L140.161 58.8401C140.414 58.8401 140.624 58.7967 140.791 58.7101C140.958 58.6234 141.091 58.5167 141.191 58.3901C141.291 58.2567 141.361 58.1201 141.401 57.9801C141.441 57.8334 141.461 57.7034 141.461 57.5901C141.461 57.4834 141.441 57.3601 141.401 57.2201C141.368 57.0734 141.301 56.9367 141.201 56.8101C141.108 56.6834 140.978 56.5767 140.811 56.4901C140.644 56.4034 140.431 56.3601 140.171 56.3601L139.181 56.3601L139.181 58.8401ZM137.961 62.5001L137.961 55.2101L140.021 55.2101C140.421 55.2101 140.784 55.2634 141.111 55.3701C141.444 55.4767 141.724 55.6301 141.951 55.8301C142.184 56.0301 142.364 56.2767 142.491 56.5701C142.618 56.8634 142.681 57.1934 142.681 57.5601C142.681 57.8534 142.638 58.1467 142.551 58.4401C142.464 58.7267 142.321 58.9867 142.121 59.2201C141.928 59.4467 141.674 59.6334 141.361 59.7801C141.048 59.9201 140.661 59.9901 140.201 59.9901L139.181 59.9901L139.181 62.5001L137.961 62.5001ZM146.693 62.0101C146.486 62.1967 146.236 62.3434 145.943 62.4501C145.65 62.5567 145.35 62.6101 145.043 62.6101C144.73 62.6101 144.433 62.5534 144.153 62.4401C143.88 62.3201 143.64 62.1601 143.433 61.9601C143.233 61.7534 143.073 61.5167 142.953 61.2501C142.833 60.9767 142.773 60.6867 142.773 60.3801C142.773 60.0734 142.833 59.7867 142.953 59.5201C143.073 59.2467 143.233 59.0101 143.433 58.8101C143.64 58.6034 143.876 58.4434 144.143 58.3301C144.416 58.2101 144.703 58.1501 145.003 58.1501C145.483 58.1501 145.903 58.2967 146.263 58.5901C146.63 58.8767 146.89 59.2567 147.043 59.7301C146.843 59.8034 146.61 59.8934 146.343 60.0001C146.083 60.1001 145.81 60.2067 145.523 60.3201C145.236 60.4334 144.95 60.5501 144.663 60.6701C144.376 60.7834 144.113 60.8867 143.873 60.9801C143.986 61.1867 144.143 61.3534 144.343 61.4801C144.543 61.6067 144.77 61.6701 145.023 61.6701C145.196 61.6701 145.37 61.6401 145.543 61.5801C145.723 61.5134 145.87 61.4267 145.983 61.3201L146.693 62.0101ZM145.853 59.5101C145.773 59.3634 145.653 59.2567 145.493 59.1901C145.333 59.1167 145.176 59.0801 145.023 59.0801C144.843 59.0801 144.673 59.1167 144.513 59.1901C144.353 59.2567 144.216 59.3501 144.103 59.4701C143.99 59.5834 143.9 59.7167 143.833 59.8701C143.766 60.0167 143.733 60.1701 143.733 60.3301L143.733 60.3701C143.9 60.3034 144.076 60.2334 144.263 60.1601C144.456 60.0801 144.646 60.0001 144.833 59.9201C145.026 59.8401 145.21 59.7667 145.383 59.7001C145.556 59.6267 145.713 59.5634 145.853 59.5101ZM150.159 59.3801C149.973 59.3801 149.793 59.4034 149.619 59.4501C149.453 59.4967 149.303 59.5701 149.169 59.6701C149.043 59.7634 148.939 59.8834 148.859 60.0301C148.779 60.1701 148.739 60.3367 148.739 60.5301L148.739 62.5001L147.779 62.5001L147.779 58.2501L148.619 58.2501C148.633 58.4901 148.646 58.6867 148.659 58.8401C148.679 58.9867 148.696 59.1534 148.709 59.3401C148.796 59.1534 148.913 58.9867 149.059 58.8401C149.206 58.6934 149.356 58.5701 149.509 58.4701C149.669 58.3634 149.826 58.2834 149.979 58.2301C150.133 58.1701 150.263 58.1401 150.369 58.1401L150.159 59.3801ZM153.352 62.5001L153.352 55.2101L154.582 55.2101L154.582 58.2501L158.062 58.2501L158.062 55.2101L159.302 55.2101C159.302 55.2901 159.302 55.5134 159.302 55.8801C159.302 56.2467 159.302 56.6901 159.302 57.2101C159.302 57.7234 159.298 58.2734 159.292 58.8601C159.292 59.4401 159.292 59.9901 159.292 60.5101C159.292 61.0234 159.292 61.4634 159.292 61.8301C159.292 62.1967 159.292 62.4201 159.292 62.5001L158.062 62.5001L158.062 59.4201L154.582 59.4201L154.582 62.5001L153.352 62.5001ZM160.283 60.3701C160.283 60.0634 160.34 59.7767 160.453 59.5101C160.573 59.2367 160.736 59.0001 160.943 58.8001C161.15 58.6001 161.39 58.4434 161.663 58.3301C161.943 58.2101 162.24 58.1501 162.553 58.1501C162.873 58.1501 163.17 58.2101 163.443 58.3301C163.716 58.4434 163.95 58.6001 164.143 58.8001C164.343 59.0001 164.5 59.2367 164.613 59.5101C164.726 59.7767 164.783 60.0634 164.783 60.3701C164.783 60.6767 164.726 60.9667 164.613 61.2401C164.506 61.5134 164.353 61.7534 164.153 61.9601C163.953 62.1601 163.716 62.3201 163.443 62.4401C163.17 62.5534 162.87 62.6101 162.543 62.6101C162.23 62.6101 161.936 62.5567 161.663 62.4501C161.39 62.3434 161.15 62.1934 160.943 62.0001C160.743 61.8001 160.583 61.5634 160.463 61.2901C160.343 61.0101 160.283 60.7034 160.283 60.3701ZM161.233 60.3801C161.233 60.5601 161.266 60.7301 161.333 60.8901C161.4 61.0434 161.49 61.1801 161.603 61.3001C161.723 61.4134 161.86 61.5034 162.013 61.5701C162.173 61.6367 162.343 61.6701 162.523 61.6701C162.703 61.6701 162.87 61.6367 163.023 61.5701C163.183 61.5034 163.32 61.4134 163.433 61.3001C163.553 61.1801 163.646 61.0434 163.713 60.8901C163.786 60.7301 163.823 60.5601 163.823 60.3801C163.823 60.2001 163.786 60.0334 163.713 59.8801C163.646 59.7201 163.553 59.5834 163.433 59.4701C163.32 59.3501 163.183 59.2567 163.023 59.1901C162.87 59.1167 162.703 59.0801 162.523 59.0801C162.343 59.0801 162.173 59.1167 162.013 59.1901C161.86 59.2567 161.723 59.3501 161.603 59.4701C161.49 59.5834 161.4 59.7201 161.333 59.8801C161.266 60.0334 161.233 60.2001 161.233 60.3801ZM169.73 62.6001L168.93 62.6001L168.81 61.4201C168.656 61.7601 168.443 62.0434 168.17 62.2701C167.903 62.4901 167.55 62.6001 167.11 62.6001C166.67 62.6001 166.32 62.4867 166.06 62.2601C165.806 62.0267 165.673 61.7201 165.66 61.3401L165.66 58.2501L166.62 58.2501L166.62 60.8901C166.633 61.0967 166.703 61.2734 166.83 61.4201C166.963 61.5601 167.173 61.6367 167.46 61.6501C167.653 61.6501 167.83 61.6167 167.99 61.5501C168.15 61.4834 168.286 61.3901 168.4 61.2701C168.52 61.1501 168.613 61.0067 168.68 60.8401C168.746 60.6734 168.78 60.4934 168.78 60.3001L168.78 58.2501L169.73 58.2501L169.73 62.6001ZM173.294 59.3801C173.108 59.3801 172.928 59.4034 172.754 59.4501C172.588 59.4967 172.438 59.5701 172.304 59.6701C172.178 59.7634 172.074 59.8834 171.994 60.0301C171.914 60.1701 171.874 60.3367 171.874 60.5301L171.874 62.5001L170.914 62.5001L170.914 58.2501L171.754 58.2501C171.768 58.4901 171.781 58.6867 171.794 58.8401C171.814 58.9867 171.831 59.1534 171.844 59.3401C171.931 59.1534 172.048 58.9867 172.194 58.8401C172.341 58.6934 172.491 58.5701 172.644 58.4701C172.804 58.3634 172.961 58.2834 173.114 58.2301C173.268 58.1701 173.398 58.1401 173.504 58.1401L173.294 59.3801Z" fill="#EB8382" fill-opacity="1.000000" fill-rule="evenodd"/>
		<path id="125+Review" d="M171.964 74.9301L173.388 74.9301L173.388 80.2021L172.532 80.2021L172.532 75.7542L171.964 75.7542L171.964 74.9301ZM174.636 80.2021C174.967 79.8661 175.287 79.5408 175.596 79.2262C175.905 78.9115 176.183 78.6048 176.428 78.3062C176.679 78.0075 176.873 77.7195 177.012 77.4421C177.156 77.1648 177.228 76.8955 177.228 76.6341C177.228 76.4742 177.201 76.3355 177.148 76.2181C177.1 76.0955 177.031 75.9968 176.94 75.9221C176.849 75.8421 176.748 75.7835 176.636 75.7461C176.524 75.7035 176.404 75.6822 176.276 75.6822C176.111 75.6822 175.969 75.7088 175.852 75.7621C175.735 75.8155 175.639 75.8848 175.564 75.9701C175.495 76.0501 175.441 76.1381 175.404 76.2341C175.367 76.3301 175.348 76.4261 175.348 76.5221C175.348 76.6982 175.375 76.8555 175.428 76.9941C175.487 77.1328 175.564 77.2528 175.66 77.3541L175.14 77.8342C175.007 77.7542 174.892 77.6395 174.796 77.4902C174.705 77.3355 174.636 77.1728 174.588 77.0022C174.54 76.8315 174.516 76.6795 174.516 76.5462C174.516 76.2528 174.588 75.9808 174.732 75.7301C174.881 75.4742 175.097 75.2662 175.38 75.1061C175.668 74.9462 176.015 74.8661 176.42 74.8661C176.761 74.8661 177.057 74.9435 177.308 75.0981C177.564 75.2528 177.761 75.4608 177.9 75.7221C178.044 75.9781 178.116 76.2581 178.116 76.5621C178.116 76.8235 178.065 77.0795 177.964 77.3301C177.863 77.5808 177.727 77.8288 177.556 78.0742C177.391 78.3141 177.204 78.5541 176.996 78.7942C176.793 79.0288 176.591 79.2662 176.388 79.5061L176.004 79.3782L178.268 79.3782L178.268 80.2021L174.636 80.2021ZM180.578 80.2662C180.29 80.2662 180.012 80.2128 179.746 80.1061C179.479 79.9995 179.266 79.8688 179.106 79.7141L179.554 79.0421C179.66 79.1648 179.802 79.2635 179.978 79.3382C180.159 79.4128 180.335 79.4501 180.506 79.4501C180.692 79.4501 180.855 79.4101 180.994 79.3301C181.138 79.2501 181.25 79.1381 181.33 78.9941C181.415 78.8502 181.458 78.6848 181.458 78.4981C181.458 78.2955 181.42 78.1168 181.346 77.9622C181.271 77.8021 181.159 77.6768 181.01 77.5862C180.86 77.4955 180.679 77.4501 180.466 77.4501C180.284 77.4501 180.114 77.4768 179.954 77.5302C179.799 77.5781 179.631 77.6528 179.45 77.7542L179.442 77.7542L179.442 74.9301L181.986 74.9301L181.986 75.7461L180.186 75.7461L180.186 76.9941L180.074 76.8181C180.164 76.7915 180.26 76.7701 180.362 76.7542C180.463 76.7382 180.564 76.7301 180.666 76.7301C181.028 76.7301 181.332 76.8102 181.578 76.9701C181.828 77.1301 182.018 77.3408 182.146 77.6021C182.274 77.8635 182.338 78.1515 182.338 78.4661C182.338 78.8021 182.26 79.1061 182.106 79.3782C181.956 79.6501 181.748 79.8661 181.482 80.0261C181.215 80.1861 180.914 80.2662 180.578 80.2662ZM184.589 76.8661L185.341 76.8661L185.341 77.9701L186.421 77.9701L186.421 78.6901L185.341 78.6901L185.341 79.7861L184.589 79.7861L184.589 78.6901L183.509 78.6901L183.509 77.9701L184.589 77.9701L184.589 76.8661ZM189.62 74.3941C189.924 74.3941 190.204 74.4368 190.46 74.5221C190.721 74.6021 190.942 74.7195 191.124 74.8741C191.31 75.0288 191.454 75.2208 191.556 75.4501C191.662 75.6741 191.716 75.9355 191.716 76.2341C191.716 76.4635 191.681 76.6901 191.612 76.9141C191.542 77.1381 191.43 77.3408 191.276 77.5221C191.121 77.7035 190.918 77.8502 190.668 77.9622C190.417 78.0688 190.105 78.1221 189.732 78.1221L188.884 78.1221L188.884 80.2021L188.028 80.2021L188.028 74.3941L189.62 74.3941ZM189.716 77.3062C189.934 77.3062 190.116 77.2715 190.26 77.2021C190.409 77.1328 190.524 77.0475 190.604 76.9462C190.689 76.8395 190.748 76.7275 190.78 76.6101C190.817 76.4875 190.836 76.3701 190.836 76.2581C190.836 76.1515 190.817 76.0395 190.78 75.9221C190.748 75.8048 190.689 75.6928 190.604 75.5862C190.524 75.4795 190.414 75.3915 190.276 75.3222C190.137 75.2528 189.966 75.2181 189.764 75.2181L188.884 75.2181L188.884 77.3062L189.716 77.3062ZM190.7 77.8021L192.204 80.2021L191.212 80.2021L189.684 77.8261L190.7 77.8021ZM194.623 80.2822C194.233 80.2822 193.9 80.2075 193.623 80.0582C193.345 79.9035 193.132 79.6928 192.983 79.4261C192.833 79.1541 192.759 78.8448 192.759 78.4981C192.759 78.1675 192.841 77.8688 193.007 77.6021C193.177 77.3301 193.404 77.1142 193.687 76.9541C193.975 76.7942 194.292 76.7141 194.639 76.7141C195.087 76.7141 195.457 76.8448 195.751 77.1061C196.049 77.3675 196.249 77.7328 196.351 78.2021L193.623 79.1461L193.431 78.6661L195.615 77.8821L195.447 77.9861C195.383 77.8208 195.281 77.6768 195.143 77.5541C195.004 77.4261 194.815 77.3622 194.575 77.3622C194.383 77.3622 194.209 77.4101 194.055 77.5061C193.905 77.5968 193.785 77.7248 193.695 77.8902C193.609 78.0501 193.567 78.2395 193.567 78.4581C193.567 78.6822 193.612 78.8795 193.703 79.0501C193.799 79.2155 193.927 79.3461 194.087 79.4421C194.252 79.5381 194.436 79.5862 194.639 79.5862C194.783 79.5862 194.919 79.5595 195.047 79.5061C195.18 79.4528 195.305 79.3861 195.423 79.3062L195.799 79.9141C195.623 80.0261 195.431 80.1168 195.223 80.1861C195.02 80.2502 194.82 80.2822 194.623 80.2822ZM198.541 80.2901L196.645 76.8502L197.621 76.8502L198.853 79.4421L198.349 79.4182L199.469 76.8502L200.389 76.8502L198.573 80.2901L198.541 80.2901ZM201.156 76.8502L201.98 76.8502L201.98 80.2021L201.156 80.2021L201.156 76.8502ZM201.108 75.6501C201.108 75.5221 201.159 75.4155 201.26 75.3301C201.362 75.2448 201.471 75.2021 201.588 75.2021C201.711 75.2021 201.82 75.2448 201.916 75.3301C202.012 75.4155 202.06 75.5221 202.06 75.6501C202.06 75.7781 202.012 75.8848 201.916 75.9701C201.82 76.0501 201.711 76.0901 201.588 76.0901C201.471 76.0901 201.362 76.0501 201.26 75.9701C201.159 75.8848 201.108 75.7781 201.108 75.6501ZM204.81 80.2822C204.421 80.2822 204.088 80.2075 203.81 80.0582C203.533 79.9035 203.32 79.6928 203.17 79.4261C203.021 79.1541 202.946 78.8448 202.946 78.4981C202.946 78.1675 203.029 77.8688 203.194 77.6021C203.365 77.3301 203.592 77.1142 203.874 76.9541C204.162 76.7942 204.48 76.7141 204.826 76.7141C205.274 76.7141 205.645 76.8448 205.938 77.1061C206.237 77.3675 206.437 77.7328 206.538 78.2021L203.81 79.1461L203.618 78.6661L205.802 77.8821L205.634 77.9861C205.57 77.8208 205.469 77.6768 205.33 77.5541C205.192 77.4261 205.002 77.3622 204.762 77.3622C204.57 77.3622 204.397 77.4101 204.242 77.5061C204.093 77.5968 203.973 77.7248 203.882 77.8902C203.797 78.0501 203.754 78.2395 203.754 78.4581C203.754 78.6822 203.8 78.8795 203.89 79.0501C203.986 79.2155 204.114 79.3461 204.274 79.4421C204.44 79.5381 204.624 79.5862 204.826 79.5862C204.97 79.5862 205.106 79.5595 205.234 79.5061C205.368 79.4528 205.493 79.3861 205.61 79.3062L205.986 79.9141C205.81 80.0261 205.618 80.1168 205.41 80.1861C205.208 80.2502 205.008 80.2822 204.81 80.2822ZM209.559 76.8502L210.495 79.0022L210.335 79.0101L211.191 76.8502L211.999 76.8502L210.463 80.4021L209.391 78.1221L208.407 80.4021L206.863 76.8502L207.671 76.8502L208.663 79.1061L208.375 79.0582L209.095 77.3941L208.847 76.8502L209.559 76.8502Z" fill="#446381" fill-opacity="1.000000" fill-rule="evenodd"/>
		<rect id="bi:star-fill" width="6.785714" height="6.785714" transform="translate(148.928467 74.463989)" fill="#FFFFFF" fill-opacity="0"/>
		<g clip-path="url(#clip1_218)">
			<path id="Vector" d="M150.46 81.0135C150.297 81.0975 150.111 80.9503 150.144 80.7624L150.496 78.7564L149.002 77.3331C148.862 77.1999 148.935 76.9565 149.122 76.9302L151.199 76.635L152.125 74.7999C152.209 74.6345 152.435 74.6345 152.519 74.7999L153.445 76.635L155.522 76.9302C155.709 76.9565 155.782 77.1999 155.642 77.3331L154.148 78.7564L154.5 80.7624C154.533 80.9503 154.347 81.0975 154.184 81.0135L152.321 80.0567L150.46 81.0135L150.46 81.0135Z" fill="#FFB359" fill-opacity="1.000000" fill-rule="nonzero"/>
		</g>
		<rect id="bi:star-fill" width="6.785714" height="6.785714" transform="translate(138.750000 74.463989)" fill="#FFFFFF" fill-opacity="0"/>
		<g clip-path="url(#clip1_221)">
			<path id="Vector" d="M140.282 81.0135C140.118 81.0975 139.932 80.9503 139.965 80.7624L140.317 78.7564L138.823 77.3331C138.684 77.1999 138.756 76.9565 138.943 76.9302L141.021 76.635L141.947 74.7999C142.03 74.6345 142.256 74.6345 142.34 74.7999L143.266 76.635L145.344 76.9302C145.531 76.9565 145.603 77.1999 145.463 77.3331L143.969 78.7564L144.321 80.7624C144.354 80.9503 144.169 81.0975 144.005 81.0135L142.143 80.0567L140.281 81.0135L140.282 81.0135Z" fill="#FFB359" fill-opacity="1.000000" fill-rule="nonzero"/>
		</g>
		<rect id="bi:star-fill" width="6.785714" height="6.785714" transform="translate(128.571411 74.463989)" fill="#FFFFFF" fill-opacity="0"/>
		<g clip-path="url(#clip1_224)">
			<path id="Vector" d="M130.103 81.0135C129.94 81.0975 129.754 80.9503 129.787 80.7624L130.139 78.7564L128.645 77.3331C128.505 77.1999 128.578 76.9565 128.765 76.9302L130.842 76.635L131.768 74.7999C131.852 74.6345 132.078 74.6345 132.161 74.7999L133.088 76.635L135.165 76.9302C135.352 76.9565 135.425 77.1999 135.285 77.3331L133.791 78.7564L134.143 80.7624C134.176 80.9503 133.99 81.0975 133.827 81.0135L131.964 80.0567L130.103 81.0135L130.103 81.0135Z" fill="#FFB359" fill-opacity="1.000000" fill-rule="nonzero"/>
		</g>
		<rect id="bi:star-fill" width="6.785714" height="6.785714" transform="translate(118.392822 74.464111)" fill="#FFFFFF" fill-opacity="0"/>
		<g clip-path="url(#clip1_227)">
			<path id="Vector" d="M119.925 81.0135C119.761 81.0975 119.575 80.9504 119.608 80.7625L119.96 78.7565L118.466 77.3331C118.327 77.2 118.399 76.9565 118.586 76.9302L120.663 76.6351L121.59 74.7999C121.673 74.6346 121.899 74.6346 121.983 74.7999L122.909 76.6351L124.986 76.9302C125.173 76.9565 125.246 77.2 125.106 77.3331L123.612 78.7565L123.964 80.7625C123.997 80.9504 123.812 81.0975 123.648 81.0135L121.786 80.0568L119.924 81.0135L119.925 81.0135Z" fill="#FFB359" fill-opacity="1.000000" fill-rule="nonzero"/>
		</g>
		<rect id="bi:star-fill" width="6.785714" height="6.785714" transform="translate(159.107178 74.463989)" fill="#FFFFFF" fill-opacity="0"/>
		<g clip-path="url(#clip1_230)">
			<path id="Vector" d="M160.639 81.0135C160.475 81.0975 160.289 80.9503 160.323 80.7624L160.675 78.7564L159.18 77.3331C159.041 77.1999 159.113 76.9565 159.3 76.9302L161.378 76.635L162.304 74.7999C162.388 74.6345 162.614 74.6345 162.697 74.7999L163.623 76.635L165.701 76.9302C165.888 76.9565 165.96 77.1999 165.82 77.3331L164.327 78.7564L164.679 80.7624C164.712 80.9503 164.526 81.0975 164.362 81.0135L162.5 80.0567L160.639 81.0135L160.639 81.0135Z" fill="#FFB359" fill-opacity="1.000000" fill-rule="nonzero"/>
		</g>
	</g>
</svg>
