<svg width="251.488098" height="135.000000" viewBox="0 0 251.488 135" fill="none" xmlns="http://www.w3.org/2000/svg" xmlns:xlink="http://www.w3.org/1999/xlink">
	<desc>
			Created with Pixso.
	</desc>
	<defs>
		<filter id="filter_1_134_dd" x="0.000000" y="0.000000" width="251.488098" height="135.000000" filterUnits="userSpaceOnUse" color-interpolation-filters="sRGB">
			<feFlood flood-opacity="0" result="BackgroundImageFix"/>
			<feColorMatrix in="SourceAlpha" type="matrix" values="0 0 0 0 0 0 0 0 0 0 0 0 0 0 0 0 0 0 127 0" result="hardAlpha"/>
			<feOffset dx="0" dy="10"/>
			<feGaussianBlur stdDeviation="6.66667"/>
			<feComposite in2="hardAlpha" operator="out" k2="-1" k3="1"/>
			<feColorMatrix type="matrix" values="0 0 0 0 0.92157 0 0 0 0 0.51373 0 0 0 0 0.5098 0 0 0 0.4 0"/>
			<feBlend mode="normal" in2="BackgroundImageFix" result="effect_dropShadow_1"/>
			<feBlend mode="normal" in="SourceGraphic" in2="effect_dropShadow_1" result="shape"/>
		</filter>
		<clipPath id="clip1_153">
			<rect id="bi:star-fill" width="6.785714" height="6.785714" transform="translate(68.928589 79.463867)" fill="white" fill-opacity="0"/>
		</clipPath>
		<clipPath id="clip1_156">
			<rect id="bi:star-fill" width="6.785714" height="6.785714" transform="translate(58.750061 79.463867)" fill="white" fill-opacity="0"/>
		</clipPath>
		<clipPath id="clip1_159">
			<rect id="bi:star-fill" width="6.785714" height="6.785714" transform="translate(48.571472 79.463867)" fill="white" fill-opacity="0"/>
		</clipPath>
		<clipPath id="clip1_162">
			<rect id="bi:star-fill" width="6.785714" height="6.785714" transform="translate(38.392883 79.463989)" fill="white" fill-opacity="0"/>
		</clipPath>
		<clipPath id="clip1_165">
			<rect id="bi:star-fill" width="6.785714" height="6.785714" transform="translate(79.107178 79.463867)" fill="white" fill-opacity="0"/>
		</clipPath>
		<clipPath id="clip1_168">
			<rect id="bi:star-half" width="6.785714" height="6.785714" transform="translate(79.107178 79.463867)" fill="white" fill-opacity="0"/>
		</clipPath>
		<linearGradient id="paint_linear_1_138_0" x1="193.858459" y1="19.713638" x2="183.281189" y2="63.609665" gradientUnits="userSpaceOnUse">
			<stop stop-color="#EEBA9C"/>
			<stop offset="0.989200" stop-color="#EB8382"/>
		</linearGradient>
		<linearGradient id="paint_linear_1_139_0" x1="150.908630" y1="41.232246" x2="204.615829" y2="88.875710" gradientUnits="userSpaceOnUse">
			<stop stop-color="#826F8C"/>
			<stop offset="0.994600" stop-color="#446381"/>
		</linearGradient>
		<linearGradient id="paint_linear_1_140_0" x1="154.530853" y1="37.592316" x2="182.031952" y2="102.466782" gradientUnits="userSpaceOnUse">
			<stop stop-color="#E474C6"/>
			<stop offset="0.989200" stop-color="#0E7CF7"/>
		</linearGradient>
		<linearGradient id="paint_linear_1_141_0" x1="162.460190" y1="46.378693" x2="170.569489" y2="94.329529" gradientUnits="userSpaceOnUse">
			<stop stop-color="#D2F9FF"/>
			<stop offset="0.994600" stop-color="#618DD6"/>
		</linearGradient>
		<linearGradient id="paint_linear_1_142_0" x1="171.751434" y1="38.530956" x2="178.626678" y2="52.634014" gradientUnits="userSpaceOnUse">
			<stop stop-color="#6F469E"/>
			<stop offset="1.000000" stop-color="#360F6E"/>
		</linearGradient>
		<linearGradient id="paint_linear_1_144_0" x1="177.456879" y1="81.504692" x2="99.594658" y2="-42.036530" gradientUnits="userSpaceOnUse">
			<stop stop-color="#D2F9FF"/>
			<stop offset="0.436400" stop-color="#A0CAED"/>
			<stop offset="0.994600" stop-color="#618DD6"/>
		</linearGradient>
		<linearGradient id="paint_linear_1_145_0" x1="192.956238" y1="82.642990" x2="116.094177" y2="-12.376831" gradientUnits="userSpaceOnUse">
			<stop stop-color="#D2F9FF"/>
			<stop offset="0.994600" stop-color="#618DD6"/>
		</linearGradient>
		<linearGradient id="paint_linear_1_146_0" x1="161.747467" y1="55.667725" x2="151.635117" y2="101.662384" gradientUnits="userSpaceOnUse">
			<stop stop-color="#95C5FF" stop-opacity="0.000000"/>
			<stop offset="0.166700" stop-color="#ABD2FD"/>
			<stop offset="0.525600" stop-color="#9CC9FE" stop-opacity="0.450980"/>
			<stop offset="0.822600" stop-color="#95C5FF" stop-opacity="0.000000"/>
		</linearGradient>
	</defs>
	<g filter="url(#filter_1_134_dd)">
		<g opacity="0.400000">
			<rect id="Rectangle 3" x="20.000000" y="10.000000" rx="10.000000" width="211.488098" height="95.000000" fill="#FFFFFF" fill-opacity="1.000000"/>
		</g>
		<path id="Vector" d="M168.184 42.7386L152.67 41.6035C179.861 34.8463 199.375 32.4138 205.916 33.1165C212.457 33.8192 219.701 37.8735 220.241 45.4415C220.782 53.0095 220.62 57.8746 220.62 57.8746C219.214 63.5507 204.673 70.0916 204.673 70.0916C204.673 70.0916 200.565 63.1722 200.456 58.9558C200.348 54.7394 201.159 51.7662 201.159 51.7662C204.186 50.5229 210.457 48.7931 212.079 45.3875C216.511 36.0896 194.402 38.7384 190.834 39.1168C183.266 39.9277 175.644 41.0629 168.184 42.7386Z" fill="url(#paint_linear_1_138_0)" fill-opacity="1.000000" fill-rule="nonzero"/>
		<path id="Vector" d="M136.669 52.1451C137.642 49.2802 139.318 46.5773 142.021 45.4421C142.021 45.4421 142.075 45.4421 142.075 45.3881L155.157 39.6039C155.968 39.1715 156.887 38.9012 157.86 38.7931C164.401 38.1985 171.536 39.8202 178.293 40.9014C178.51 40.9553 178.726 40.9553 178.942 41.0094C179.158 41.0635 179.375 41.1176 179.591 41.1716C186.402 42.6852 193.483 43.8204 200.132 46.9557C204.133 48.8477 206.619 53.1183 207.971 57.1184C210.187 63.8756 209.106 71.4436 204.295 74.4708L204.241 74.4708C203.592 74.8491 202.943 75.1736 202.187 75.3898L189.97 81.0117C188.294 81.8766 186.294 82.2009 183.861 81.8766C176.185 80.8495 165.914 78.7413 165.914 78.7413C165.914 78.7413 155.697 76.9033 147.967 75.0114C137.588 72.3625 133.967 60.2538 136.669 52.1451Z" fill="url(#paint_linear_1_139_0)" fill-opacity="1.000000" fill-rule="nonzero"/>
		<path id="Vector" d="M136.669 52.1443C137.858 48.6306 140.183 45.2791 144.183 44.9006C150.724 44.306 157.859 45.9277 164.617 47.0089C164.833 47.0629 165.049 47.0629 165.265 47.1169C165.482 47.171 165.698 47.2251 165.914 47.2792C172.725 48.7927 179.807 49.928 186.456 53.0632C190.456 54.9552 192.943 59.2257 194.294 63.226C197.321 72.4156 194.186 83.2272 183.807 81.8217C176.131 80.7946 165.86 78.6863 165.86 78.6863C165.86 78.6863 155.643 76.8484 147.913 74.9564C137.588 72.3617 133.966 60.2528 136.669 52.1443Z" fill="url(#paint_linear_1_140_0)" fill-opacity="1.000000" fill-rule="nonzero"/>
		<path id="Vector" d="M139.101 53.4421C140.182 50.3069 142.291 47.3337 145.912 47.0094C151.859 46.5228 158.346 47.9283 164.508 48.9014C164.724 48.9554 164.886 48.9554 165.103 49.0095C165.319 49.0636 165.481 49.1176 165.697 49.1176C171.86 50.469 178.347 51.4961 184.347 54.2531C188.023 55.9288 190.239 59.7128 191.483 63.2805C194.24 71.4432 191.374 81.0114 181.969 79.822C174.995 78.9031 165.697 77.0111 165.697 77.0111C165.697 77.0111 156.4 75.3894 149.372 73.6595C139.912 71.3351 136.669 60.6317 139.101 53.4421Z" fill="url(#paint_linear_1_141_0)" fill-opacity="1.000000" fill-rule="nonzero"/>
		<path id="Vector" d="M166.346 44.3065L171.968 42.4144C172.184 42.3605 172.454 42.3064 172.725 42.4144L183.05 44.6849C183.428 44.7389 183.59 45.2255 183.266 45.3335L177.644 47.2256C177.428 47.2797 177.157 47.3336 176.887 47.2256L166.562 44.9552C166.238 44.9011 166.022 44.4146 166.346 44.3065Z" fill="url(#paint_linear_1_142_0)" fill-opacity="1.000000" fill-rule="nonzero"/>
		<path id="Vector" d="M164.509 48.9006C164.725 48.9547 164.887 48.9547 165.103 49.0088C165.32 49.0629 165.482 49.1168 165.698 49.1168L177.915 79.2267C172.617 78.4158 167.212 77.3347 165.914 77.0643L153.751 47.2249C157.373 47.6573 160.995 48.3601 164.509 48.9006Z" fill="url(#paint_linear_1_144_0)" fill-opacity="1.000000" fill-rule="nonzero"/>
		<path id="Vector" d="M177.104 51.6578L188.132 78.6864C186.51 79.6594 184.51 80.1459 181.969 79.8215C181.807 79.8215 181.591 79.7675 181.374 79.7675L169.212 49.928C171.86 50.4146 174.509 50.9551 177.104 51.6578Z" fill="url(#paint_linear_1_145_0)" fill-opacity="1.000000" fill-rule="nonzero"/>
		<path id="Sony Dualshock 4 Wireless Controller" d="M40.931 31.2013C40.6777 31.068 40.4043 30.9546 40.111 30.8613C39.8176 30.768 39.5343 30.7213 39.261 30.7213C38.8876 30.7213 38.591 30.808 38.371 30.9813C38.151 31.148 38.041 31.378 38.041 31.6713C38.041 31.878 38.1143 32.058 38.261 32.2113C38.4076 32.3646 38.5976 32.498 38.831 32.6113C39.0643 32.7246 39.311 32.8313 39.571 32.9313C39.791 33.0113 40.0076 33.108 40.221 33.2213C40.441 33.328 40.6376 33.4613 40.811 33.6213C40.991 33.7813 41.131 33.9813 41.231 34.2213C41.3376 34.4546 41.391 34.7413 41.391 35.0813C41.391 35.468 41.2943 35.818 41.101 36.1313C40.9143 36.4446 40.641 36.6946 40.281 36.8813C39.9276 37.0613 39.4977 37.1513 38.991 37.1513C38.6843 37.1513 38.3843 37.118 38.091 37.0513C37.8043 36.978 37.531 36.8846 37.271 36.7713C37.0176 36.6513 36.7876 36.5213 36.581 36.3813L37.061 35.5513C37.221 35.6646 37.4043 35.7746 37.611 35.8813C37.8176 35.9813 38.031 36.0613 38.251 36.1213C38.4776 36.1813 38.691 36.2113 38.891 36.2113C39.111 36.2113 39.3276 36.1746 39.541 36.1013C39.7543 36.0213 39.931 35.9013 40.071 35.7413C40.211 35.5746 40.281 35.358 40.281 35.0913C40.281 34.8646 40.2176 34.6746 40.091 34.5213C39.971 34.3613 39.8076 34.2246 39.601 34.1113C39.401 33.998 39.1843 33.898 38.951 33.8113C38.7243 33.7246 38.4943 33.628 38.261 33.5213C38.0276 33.4146 37.811 33.288 37.611 33.1413C37.411 32.988 37.2476 32.8013 37.121 32.5813C37.001 32.3546 36.941 32.078 36.941 31.7513C36.941 31.3646 37.031 31.028 37.211 30.7413C37.3976 30.448 37.6543 30.218 37.981 30.0513C38.3076 29.8846 38.6843 29.7913 39.111 29.7713C39.5976 29.7713 40.021 29.8313 40.381 29.9513C40.741 30.0713 41.061 30.2146 41.341 30.3813L40.931 31.2013ZM42.3813 34.9313C42.3813 34.5113 42.4813 34.1346 42.6813 33.8013C42.8813 33.4613 43.158 33.1946 43.5113 33.0013C43.8646 32.808 44.268 32.7113 44.7213 32.7113C45.1813 32.7113 45.5846 32.808 45.9313 33.0013C46.278 33.1946 46.5446 33.4613 46.7313 33.8013C46.9246 34.1346 47.0213 34.5113 47.0213 34.9313C47.0213 35.3513 46.9246 35.7313 46.7313 36.0713C46.5446 36.4113 46.278 36.6813 45.9313 36.8813C45.5846 37.0746 45.178 37.1713 44.7113 37.1713C44.2646 37.1713 43.8646 37.0813 43.5113 36.9013C43.1646 36.7213 42.888 36.4646 42.6813 36.1313C42.4813 35.7913 42.3813 35.3913 42.3813 34.9313ZM43.4213 34.9413C43.4213 35.2013 43.478 35.438 43.5913 35.6513C43.7046 35.858 43.858 36.0246 44.0513 36.1513C44.2446 36.2713 44.4613 36.3313 44.7013 36.3313C44.948 36.3313 45.168 36.2713 45.3613 36.1513C45.5546 36.0246 45.7046 35.858 45.8113 35.6513C45.9246 35.438 45.9813 35.2013 45.9813 34.9413C45.9813 34.6813 45.9246 34.448 45.8113 34.2413C45.7046 34.0346 45.5546 33.868 45.3613 33.7413C45.168 33.6146 44.948 33.5513 44.7013 33.5513C44.4546 33.5513 44.2346 33.6146 44.0413 33.7413C43.848 33.868 43.6946 34.038 43.5813 34.2513C43.4746 34.458 43.4213 34.688 43.4213 34.9413ZM49.1593 32.8813L49.2493 33.8413L49.2093 33.7113C49.3493 33.4113 49.566 33.1713 49.8593 32.9913C50.1527 32.8046 50.4993 32.7113 50.8993 32.7113C51.2927 32.7113 51.616 32.828 51.8693 33.0613C52.1293 33.2946 52.2627 33.598 52.2693 33.9713L52.2693 37.0713L51.2393 37.0713L51.2393 34.3313C51.2327 34.118 51.1693 33.9446 51.0493 33.8113C50.9293 33.6713 50.7427 33.598 50.4893 33.5913C50.2627 33.5913 50.056 33.6613 49.8693 33.8013C49.6827 33.9346 49.536 34.118 49.4293 34.3513C49.3227 34.5846 49.2693 34.8546 49.2693 35.1613L49.2693 37.0713L48.2393 37.0713L48.2393 32.8813L49.1593 32.8813ZM54.0386 39.0813L56.8086 32.8813L57.7486 32.8813L55.0486 39.0813L54.0386 39.0813ZM55.0986 37.1013L53.0686 32.8813L54.2286 32.8813L55.8886 36.5813L55.0986 37.1013ZM62.1217 37.0713L62.1217 29.8113L64.1417 29.8113C64.8617 29.8113 65.475 29.9213 65.9817 30.1413C66.4883 30.3613 66.895 30.6513 67.2017 31.0113C67.515 31.3713 67.7417 31.7713 67.8817 32.2113C68.0284 32.6513 68.1017 33.0946 68.1017 33.5413C68.1017 34.0813 68.005 34.568 67.8117 35.0013C67.6183 35.4346 67.355 35.808 67.0217 36.1213C66.6884 36.428 66.305 36.6646 65.8717 36.8313C65.4384 36.9913 64.9783 37.0713 64.4917 37.0713L62.1217 37.0713ZM63.1917 36.0413L64.2917 36.0413C64.685 36.0413 65.045 35.9846 65.3717 35.8713C65.705 35.758 65.9917 35.5913 66.2317 35.3713C66.4783 35.1513 66.6684 34.8813 66.8017 34.5613C66.935 34.2413 67.0017 33.8746 67.0017 33.4613C67.0017 33.0146 66.925 32.628 66.7717 32.3013C66.625 31.968 66.4284 31.6946 66.1817 31.4813C65.935 31.2613 65.6584 31.1013 65.3517 31.0013C65.0517 30.8946 64.745 30.8413 64.4317 30.8413L63.1917 30.8413L63.1917 36.0413ZM70.8 37.2413C70.4134 37.2413 70.0967 37.1246 69.85 36.8913C69.6034 36.658 69.4734 36.358 69.46 35.9913L69.46 32.8813L70.49 32.8813L70.49 35.6213C70.5034 35.8346 70.5634 36.0113 70.67 36.1513C70.7834 36.2846 70.9634 36.3546 71.21 36.3613C71.4367 36.3613 71.6367 36.2946 71.81 36.1613C71.99 36.0213 72.13 35.8346 72.23 35.6013C72.3367 35.3613 72.39 35.088 72.39 34.7813L72.39 32.8813L73.42 32.8813L73.42 37.0713L72.49 37.0713L72.41 36.1013L72.45 36.2613C72.3634 36.448 72.24 36.618 72.08 36.7713C71.92 36.918 71.73 37.0313 71.51 37.1113C71.29 37.198 71.0534 37.2413 70.8 37.2413ZM76.7472 37.1713C76.3538 37.1713 75.9972 37.0913 75.6772 36.9313C75.3572 36.7646 75.1038 36.518 74.9172 36.1913C74.7305 35.8646 74.6372 35.4613 74.6372 34.9813C74.6372 34.508 74.7338 34.1013 74.9272 33.7613C75.1272 33.4213 75.3872 33.1613 75.7072 32.9813C76.0338 32.7946 76.3872 32.7013 76.7672 32.7013C77.1672 32.7013 77.4938 32.788 77.7472 32.9613C78.0072 33.128 78.2105 33.3246 78.3572 33.5513L78.2872 33.7113L78.3872 32.8813L79.3372 32.8813L79.3372 37.0713L78.3072 37.0713L78.3072 36.0213L78.4172 36.2713C78.3905 36.3246 78.3338 36.4013 78.2472 36.5013C78.1605 36.5946 78.0438 36.6946 77.8972 36.8013C77.7572 36.908 77.5905 36.998 77.3972 37.0713C77.2105 37.138 76.9938 37.1713 76.7472 37.1713ZM77.0272 36.3313C77.2472 36.3313 77.4438 36.2913 77.6172 36.2113C77.7905 36.1313 77.9371 36.018 78.0572 35.8713C78.1772 35.7246 78.2605 35.5513 78.3072 35.3513L78.3072 34.4813C78.2538 34.2946 78.1638 34.1346 78.0372 34.0013C77.9105 33.8613 77.7572 33.7513 77.5771 33.6713C77.4038 33.5913 77.2105 33.5513 76.9972 33.5513C76.7572 33.5513 76.5372 33.6113 76.3372 33.7313C76.1372 33.8446 75.9772 34.0046 75.8572 34.2113C75.7372 34.418 75.6772 34.658 75.6772 34.9313C75.6772 35.1913 75.7372 35.428 75.8572 35.6413C75.9838 35.8546 76.1505 36.0246 76.3572 36.1513C76.5638 36.2713 76.7872 36.3313 77.0272 36.3313ZM80.9151 29.3013L81.9451 29.3013L81.9451 37.0713L80.9151 37.0713L80.9151 29.3013ZM84.7328 37.1613C84.4261 37.1613 84.1294 37.108 83.8428 37.0013C83.5561 36.888 83.3194 36.7246 83.1328 36.5113L83.5728 35.9313C83.7528 36.098 83.9328 36.2246 84.1128 36.3113C84.2994 36.3913 84.4761 36.4313 84.6428 36.4313C84.7761 36.4313 84.8961 36.418 85.0028 36.3913C85.1094 36.358 85.1961 36.3046 85.2628 36.2313C85.3294 36.158 85.3628 36.0613 85.3628 35.9413C85.3628 35.8013 85.3161 35.6913 85.2228 35.6113C85.1294 35.5313 85.0094 35.4646 84.8628 35.4113C84.7161 35.358 84.5594 35.308 84.3928 35.2613C84.0394 35.148 83.7728 34.988 83.5928 34.7813C83.4128 34.568 83.3228 34.318 83.3228 34.0313C83.3228 33.8113 83.3761 33.6046 83.4828 33.4113C83.5961 33.2113 83.7661 33.048 83.9928 32.9213C84.2194 32.7946 84.4995 32.7313 84.8328 32.7313C85.1395 32.7313 85.4094 32.768 85.6428 32.8413C85.8761 32.908 86.0928 33.0246 86.2928 33.1913L85.8928 33.8113C85.7728 33.6913 85.6294 33.6013 85.4628 33.5413C85.3028 33.4746 85.1561 33.438 85.0228 33.4313C84.9028 33.4313 84.7928 33.4513 84.6928 33.4913C84.5928 33.5246 84.5128 33.578 84.4528 33.6513C84.3928 33.718 84.3628 33.798 84.3628 33.8913C84.3561 34.0246 84.3994 34.1346 84.4928 34.2213C84.5928 34.3013 84.7194 34.368 84.8728 34.4213C85.0261 34.468 85.1761 34.518 85.3228 34.5713C85.5294 34.6313 85.7128 34.7146 85.8728 34.8213C86.0328 34.9213 86.1594 35.0446 86.2528 35.1913C86.3461 35.338 86.3928 35.5246 86.3928 35.7513C86.3928 35.998 86.3328 36.2313 86.2128 36.4513C86.0928 36.6646 85.9094 36.838 85.6628 36.9713C85.4161 37.098 85.1061 37.1613 84.7328 37.1613ZM87.6632 37.0713L87.6632 29.3013L88.6632 29.3013L88.6632 33.8313L88.6532 33.6613C88.7932 33.388 89.0065 33.1613 89.2932 32.9813C89.5798 32.8013 89.9232 32.7113 90.3232 32.7113C90.7165 32.7113 91.0398 32.828 91.2932 33.0613C91.5532 33.2946 91.6865 33.598 91.6932 33.9713L91.6932 37.0713L90.6632 37.0713L90.6632 34.3313C90.6565 34.118 90.5932 33.9446 90.4732 33.8113C90.3532 33.6713 90.1665 33.598 89.9132 33.5913C89.6865 33.5913 89.4798 33.6613 89.2932 33.8013C89.1065 33.9346 88.9598 34.1213 88.8532 34.3613C88.7465 34.5946 88.6932 34.8613 88.6932 35.1613L88.6932 37.0713L87.6632 37.0713ZM92.9086 34.9313C92.9086 34.5113 93.0086 34.1346 93.2086 33.8013C93.4086 33.4613 93.6853 33.1946 94.0386 33.0013C94.392 32.808 94.7953 32.7113 95.2486 32.7113C95.7086 32.7113 96.112 32.808 96.4586 33.0013C96.8053 33.1946 97.072 33.4613 97.2586 33.8013C97.452 34.1346 97.5486 34.5113 97.5486 34.9313C97.5486 35.3513 97.452 35.7313 97.2586 36.0713C97.072 36.4113 96.8053 36.6813 96.4586 36.8813C96.112 37.0746 95.7053 37.1713 95.2386 37.1713C94.792 37.1713 94.392 37.0813 94.0386 36.9013C93.692 36.7213 93.4153 36.4646 93.2086 36.1313C93.0086 35.7913 92.9086 35.3913 92.9086 34.9313ZM93.9486 34.9413C93.9486 35.2013 94.0053 35.438 94.1186 35.6513C94.232 35.858 94.3853 36.0246 94.5786 36.1513C94.772 36.2713 94.9886 36.3313 95.2286 36.3313C95.4753 36.3313 95.6953 36.2713 95.8886 36.1513C96.082 36.0246 96.232 35.858 96.3386 35.6513C96.452 35.438 96.5086 35.2013 96.5086 34.9413C96.5086 34.6813 96.452 34.448 96.3386 34.2413C96.232 34.0346 96.082 33.868 95.8886 33.7413C95.6953 33.6146 95.4753 33.5513 95.2286 33.5513C94.982 33.5513 94.762 33.6146 94.5686 33.7413C94.3753 33.868 94.222 34.038 94.1086 34.2513C94.002 34.458 93.9486 34.688 93.9486 34.9413ZM102.197 36.6813C102.01 36.8346 101.783 36.9546 101.517 37.0413C101.257 37.128 100.993 37.1713 100.727 37.1713C100.267 37.1713 99.86 37.0813 99.5067 36.9013C99.16 36.7213 98.89 36.468 98.6967 36.1413C98.5034 35.8146 98.4067 35.4246 98.4067 34.9713C98.4067 34.5246 98.51 34.138 98.7167 33.8113C98.9234 33.478 99.1967 33.2246 99.5367 33.0513C99.8767 32.8713 100.237 32.7813 100.617 32.7813C100.963 32.7813 101.27 32.828 101.537 32.9213C101.803 33.0146 102.033 33.1446 102.227 33.3113L101.717 33.9813C101.603 33.888 101.46 33.8046 101.287 33.7313C101.12 33.658 100.927 33.6213 100.707 33.6213C100.473 33.6213 100.26 33.6813 100.067 33.8013C99.8734 33.9146 99.72 34.0746 99.6067 34.2813C99.4933 34.4813 99.4367 34.7113 99.4367 34.9713C99.4367 35.218 99.4933 35.448 99.6067 35.6613C99.7267 35.868 99.89 36.0313 100.097 36.1513C100.303 36.2713 100.54 36.3313 100.807 36.3313C100.98 36.3313 101.14 36.308 101.287 36.2613C101.433 36.208 101.563 36.1346 101.677 36.0413L102.197 36.6813ZM103.376 37.0713L103.376 29.3013L104.406 29.3013L104.406 37.0713L103.376 37.0713ZM105.426 34.2713L107.346 37.0713L106.146 37.0713L104.746 34.8613L105.426 34.2713ZM104.086 35.7813L103.986 34.7913L106.526 32.7913L107.156 33.3413L104.086 35.7813ZM110.968 35.5113L110.968 35.5013L115.028 30.4013L115.038 30.4013L115.038 34.6913L115.878 34.6913L115.878 35.5113L115.038 35.5113L115.038 37.0713L113.968 37.0713L113.968 35.5113L110.968 35.5113ZM114.028 32.7913L112.528 34.7413L112.378 34.6913L113.968 34.6913L113.968 32.6313L114.028 32.7913ZM36.521 41.8513L37.761 41.8513L39.641 47.1913L39.461 47.1213L40.881 43.4713L41.371 44.9213L39.411 49.4113L36.521 41.8513ZM40.041 41.8513L41.101 41.8513L43.161 47.1013L42.951 47.0613L44.711 41.8513L45.851 41.8513L43.011 49.3913L40.041 41.8513ZM46.9112 44.8813L47.9412 44.8813L47.9412 49.0713L46.9112 49.0713L46.9112 44.8813ZM46.8512 43.3813C46.8512 43.2213 46.9146 43.088 47.0412 42.9813C47.1679 42.8746 47.3046 42.8213 47.4512 42.8213C47.6045 42.8213 47.7412 42.8746 47.8612 42.9813C47.9812 43.088 48.0412 43.2213 48.0412 43.3813C48.0412 43.5413 47.9812 43.6746 47.8612 43.7813C47.7412 43.8813 47.6045 43.9313 47.4512 43.9313C47.3046 43.9313 47.1679 43.8813 47.0412 43.7813C46.9146 43.6746 46.8512 43.5413 46.8512 43.3813ZM50.4289 44.8813L50.5289 46.0813L50.4789 45.9213C50.5922 45.668 50.7522 45.4513 50.9589 45.2713C51.1655 45.0913 51.3789 44.9546 51.5989 44.8613C51.8255 44.7613 52.0155 44.7113 52.1689 44.7113L52.1189 45.7313C51.7989 45.7113 51.5189 45.7713 51.2789 45.9113C51.0455 46.0513 50.8622 46.238 50.7289 46.4713C50.5955 46.7046 50.5289 46.9546 50.5289 47.2213L50.5289 49.0713L49.5089 49.0713L49.5089 44.8813L50.4289 44.8813ZM55.1312 49.1713C54.6445 49.1713 54.2279 49.078 53.8812 48.8913C53.5345 48.698 53.2679 48.4346 53.0812 48.1013C52.8945 47.7613 52.8012 47.3746 52.8012 46.9413C52.8012 46.528 52.9045 46.1546 53.1112 45.8213C53.3245 45.4813 53.6079 45.2113 53.9612 45.0113C54.3212 44.8113 54.7179 44.7113 55.1512 44.7113C55.7112 44.7113 56.1745 44.8746 56.5412 45.2013C56.9146 45.528 57.1646 45.9846 57.2912 46.5713L53.8812 47.7513L53.6412 47.1513L56.3712 46.1713L56.1612 46.3013C56.0812 46.0946 55.9546 45.9146 55.7812 45.7613C55.6079 45.6013 55.3712 45.5213 55.0712 45.5213C54.8312 45.5213 54.6145 45.5813 54.4212 45.7013C54.2346 45.8146 54.0845 45.9746 53.9712 46.1813C53.8645 46.3813 53.8112 46.618 53.8112 46.8913C53.8112 47.1713 53.8679 47.418 53.9812 47.6313C54.1012 47.838 54.2612 48.0013 54.4612 48.1213C54.6679 48.2413 54.8979 48.3013 55.1512 48.3013C55.3312 48.3013 55.5012 48.268 55.6612 48.2013C55.8279 48.1346 55.9846 48.0513 56.1312 47.9513L56.6012 48.7113C56.3812 48.8513 56.1412 48.9646 55.8812 49.0513C55.6279 49.1313 55.3779 49.1713 55.1312 49.1713ZM58.4347 41.3013L59.4647 41.3013L59.4647 49.0713L58.4347 49.0713L58.4347 41.3013ZM63.0023 49.1713C62.5156 49.1713 62.099 49.078 61.7523 48.8913C61.4056 48.698 61.139 48.4346 60.9523 48.1013C60.7656 47.7613 60.6723 47.3746 60.6723 46.9413C60.6723 46.528 60.7756 46.1546 60.9823 45.8213C61.1956 45.4813 61.479 45.2113 61.8323 45.0113C62.1923 44.8113 62.589 44.7113 63.0223 44.7113C63.5823 44.7113 64.0456 44.8746 64.4123 45.2013C64.7856 45.528 65.0356 45.9846 65.1623 46.5713L61.7523 47.7513L61.5123 47.1513L64.2423 46.1713L64.0323 46.3013C63.9523 46.0946 63.8256 45.9146 63.6523 45.7613C63.479 45.6013 63.2423 45.5213 62.9423 45.5213C62.7023 45.5213 62.4856 45.5813 62.2923 45.7013C62.1056 45.8146 61.9556 45.9746 61.8423 46.1813C61.7356 46.3813 61.6823 46.618 61.6823 46.8913C61.6823 47.1713 61.739 47.418 61.8523 47.6313C61.9723 47.838 62.1323 48.0013 62.3323 48.1213C62.539 48.2413 62.769 48.3013 63.0223 48.3013C63.2023 48.3013 63.3723 48.268 63.5323 48.2013C63.699 48.1346 63.8556 48.0513 64.0023 47.9513L64.4723 48.7113C64.2523 48.8513 64.0123 48.9646 63.7523 49.0513C63.499 49.1313 63.249 49.1713 63.0023 49.1713ZM67.5257 49.1613C67.2191 49.1613 66.9224 49.108 66.6357 49.0013C66.3491 48.888 66.1124 48.7246 65.9258 48.5113L66.3657 47.9313C66.5457 48.098 66.7257 48.2246 66.9057 48.3113C67.0924 48.3913 67.2691 48.4313 67.4357 48.4313C67.5691 48.4313 67.6891 48.418 67.7957 48.3913C67.9024 48.358 67.9891 48.3046 68.0557 48.2313C68.1224 48.158 68.1557 48.0613 68.1557 47.9413C68.1557 47.8013 68.1091 47.6913 68.0157 47.6113C67.9224 47.5313 67.8024 47.4646 67.6557 47.4113C67.5091 47.358 67.3524 47.308 67.1857 47.2613C66.8324 47.148 66.5658 46.988 66.3857 46.7813C66.2057 46.568 66.1157 46.318 66.1157 46.0313C66.1157 45.8113 66.1691 45.6046 66.2757 45.4113C66.3891 45.2113 66.5591 45.048 66.7858 44.9213C67.0124 44.7946 67.2924 44.7313 67.6257 44.7313C67.9324 44.7313 68.2024 44.768 68.4357 44.8413C68.6691 44.908 68.8857 45.0246 69.0857 45.1913L68.6857 45.8113C68.5658 45.6913 68.4224 45.6013 68.2558 45.5413C68.0957 45.4746 67.9491 45.438 67.8158 45.4313C67.6957 45.4313 67.5857 45.4513 67.4857 45.4913C67.3857 45.5246 67.3057 45.578 67.2457 45.6513C67.1857 45.718 67.1557 45.798 67.1557 45.8913C67.1491 46.0246 67.1924 46.1346 67.2858 46.2213C67.3857 46.3013 67.5124 46.368 67.6657 46.4213C67.8191 46.468 67.9691 46.518 68.1157 46.5713C68.3224 46.6313 68.5058 46.7146 68.6657 46.8213C68.8257 46.9213 68.9524 47.0446 69.0457 47.1913C69.1391 47.338 69.1857 47.5246 69.1857 47.7513C69.1857 47.998 69.1257 48.2313 69.0058 48.4513C68.8857 48.6646 68.7024 48.838 68.4557 48.9713C68.2091 49.098 67.8991 49.1613 67.5257 49.1613ZM71.6761 49.1613C71.3695 49.1613 71.0728 49.108 70.7861 49.0013C70.4995 48.888 70.2628 48.7246 70.0761 48.5113L70.5161 47.9313C70.6961 48.098 70.8761 48.2246 71.0561 48.3113C71.2428 48.3913 71.4195 48.4313 71.5861 48.4313C71.7195 48.4313 71.8395 48.418 71.9461 48.3913C72.0528 48.358 72.1395 48.3046 72.2061 48.2313C72.2728 48.158 72.3061 48.0613 72.3061 47.9413C72.3061 47.8013 72.2595 47.6913 72.1661 47.6113C72.0728 47.5313 71.9528 47.4646 71.8061 47.4113C71.6595 47.358 71.5028 47.308 71.3361 47.2613C70.9828 47.148 70.7161 46.988 70.5361 46.7813C70.3561 46.568 70.2661 46.318 70.2661 46.0313C70.2661 45.8113 70.3195 45.6046 70.4261 45.4113C70.5395 45.2113 70.7095 45.048 70.9361 44.9213C71.1628 44.7946 71.4428 44.7313 71.7761 44.7313C72.0828 44.7313 72.3528 44.768 72.5861 44.8413C72.8195 44.908 73.0361 45.0246 73.2361 45.1913L72.8361 45.8113C72.7161 45.6913 72.5728 45.6013 72.4061 45.5413C72.2461 45.4746 72.0995 45.438 71.9661 45.4313C71.8461 45.4313 71.7361 45.4513 71.6361 45.4913C71.5361 45.5246 71.4561 45.578 71.3961 45.6513C71.3361 45.718 71.3061 45.798 71.3061 45.8913C71.2995 46.0246 71.3428 46.1346 71.4361 46.2213C71.5361 46.3013 71.6628 46.368 71.8161 46.4213C71.9695 46.468 72.1195 46.518 72.2661 46.5713C72.4728 46.6313 72.6561 46.7146 72.8161 46.8213C72.9761 46.9213 73.1028 47.0446 73.1961 47.1913C73.2895 47.338 73.3361 47.5246 73.3361 47.7513C73.3361 47.998 73.2761 48.2313 73.1561 48.4513C73.0361 48.6646 72.8528 48.838 72.6061 48.9713C72.3595 49.098 72.0495 49.1613 71.6761 49.1613ZM83.3701 48.5213C83.2635 48.5946 83.1035 48.6846 82.8901 48.7913C82.6835 48.8913 82.4368 48.978 82.1501 49.0513C81.8701 49.1246 81.5601 49.158 81.2201 49.1513C80.6535 49.1446 80.1435 49.0446 79.6901 48.8513C79.2435 48.658 78.8635 48.3946 78.5501 48.0613C78.2368 47.7213 77.9935 47.3346 77.8201 46.9013C77.6535 46.4613 77.5701 45.9946 77.5701 45.5013C77.5701 44.9546 77.6568 44.4546 77.8301 44.0013C78.0035 43.5413 78.2501 43.1413 78.5701 42.8013C78.8968 42.4613 79.2768 42.198 79.7101 42.0113C80.1501 41.8246 80.6301 41.7313 81.1501 41.7313C81.5968 41.7313 82.0001 41.7913 82.3601 41.9113C82.7201 42.0313 83.0235 42.1713 83.2701 42.3313L82.8501 43.3313C82.6568 43.198 82.4168 43.0713 82.1301 42.9513C81.8501 42.8246 81.5368 42.7613 81.1901 42.7613C80.8501 42.7613 80.5268 42.8313 80.2201 42.9713C79.9201 43.1046 79.6535 43.2946 79.4201 43.5413C79.1935 43.7813 79.0135 44.0646 78.8801 44.3913C78.7468 44.7113 78.6801 45.0613 78.6801 45.4413C78.6801 45.828 78.7401 46.1846 78.8601 46.5113C78.9801 46.838 79.1501 47.1213 79.3701 47.3613C79.5968 47.6013 79.8668 47.788 80.1801 47.9213C80.4935 48.0546 80.8468 48.1213 81.2401 48.1213C81.6135 48.1213 81.9401 48.0646 82.2201 47.9513C82.5068 47.838 82.7401 47.708 82.9201 47.5613L83.3701 48.5213ZM84.3832 46.9313C84.3832 46.5113 84.4832 46.1346 84.6832 45.8013C84.8832 45.4613 85.1599 45.1946 85.5132 45.0013C85.8666 44.808 86.2699 44.7113 86.7233 44.7113C87.1832 44.7113 87.5866 44.808 87.9332 45.0013C88.2799 45.1946 88.5466 45.4613 88.7332 45.8013C88.9266 46.1346 89.0232 46.5113 89.0232 46.9313C89.0232 47.3513 88.9266 47.7313 88.7332 48.0713C88.5466 48.4113 88.2799 48.6813 87.9332 48.8813C87.5866 49.0746 87.1799 49.1713 86.7132 49.1713C86.2666 49.1713 85.8666 49.0813 85.5132 48.9013C85.1666 48.7213 84.8899 48.4646 84.6832 48.1313C84.4832 47.7913 84.3832 47.3913 84.3832 46.9313ZM85.4232 46.9413C85.4232 47.2013 85.4799 47.438 85.5932 47.6513C85.7066 47.858 85.8599 48.0246 86.0532 48.1513C86.2466 48.2713 86.4632 48.3313 86.7032 48.3313C86.9499 48.3313 87.1699 48.2713 87.3633 48.1513C87.5566 48.0246 87.7066 47.858 87.8132 47.6513C87.9266 47.438 87.9832 47.2013 87.9832 46.9413C87.9832 46.6813 87.9266 46.448 87.8132 46.2413C87.7066 46.0346 87.5566 45.868 87.3633 45.7413C87.1699 45.6146 86.9499 45.5513 86.7032 45.5513C86.4566 45.5513 86.2366 45.6146 86.0432 45.7413C85.8499 45.868 85.6966 46.038 85.5833 46.2513C85.4766 46.458 85.4232 46.688 85.4232 46.9413ZM91.1613 44.8813L91.2513 45.8413L91.2113 45.7113C91.3513 45.4113 91.568 45.1713 91.8613 44.9913C92.1546 44.8046 92.5013 44.7113 92.9013 44.7113C93.2946 44.7113 93.618 44.828 93.8713 45.0613C94.1313 45.2946 94.2646 45.598 94.2713 45.9713L94.2713 49.0713L93.2413 49.0713L93.2413 46.3313C93.2346 46.118 93.1713 45.9446 93.0513 45.8113C92.9313 45.6713 92.7446 45.598 92.4913 45.5913C92.2646 45.5913 92.058 45.6613 91.8713 45.8013C91.6846 45.9346 91.538 46.118 91.4313 46.3513C91.3246 46.5846 91.2713 46.8546 91.2713 47.1613L91.2713 49.0713L90.2413 49.0713L90.2413 44.8813L91.1613 44.8813ZM96.2468 43.0413L97.2768 43.0413L97.2768 44.8913L98.3968 44.8913L98.3968 45.7013L97.2768 45.7013L97.2768 49.0713L96.2468 49.0713L96.2468 45.7013L95.5068 45.7013L95.5068 44.8913L96.2468 44.8913L96.2468 43.0413ZM100.429 44.8813L100.529 46.0813L100.479 45.9213C100.592 45.668 100.752 45.4513 100.959 45.2713C101.166 45.0913 101.379 44.9546 101.599 44.8613C101.826 44.7613 102.016 44.7113 102.169 44.7113L102.119 45.7313C101.799 45.7113 101.519 45.7713 101.279 45.9113C101.046 46.0513 100.862 46.238 100.729 46.4713C100.596 46.7046 100.529 46.9546 100.529 47.2213L100.529 49.0713L99.5089 49.0713L99.5089 44.8813L100.429 44.8813ZM102.801 46.9313C102.801 46.5113 102.901 46.1346 103.101 45.8013C103.301 45.4613 103.578 45.1946 103.931 45.0013C104.285 44.808 104.688 44.7113 105.141 44.7113C105.601 44.7113 106.005 44.808 106.351 45.0013C106.698 45.1946 106.965 45.4613 107.151 45.8013C107.345 46.1346 107.441 46.5113 107.441 46.9313C107.441 47.3513 107.345 47.7313 107.151 48.0713C106.965 48.4113 106.698 48.6813 106.351 48.8813C106.005 49.0746 105.598 49.1713 105.131 49.1713C104.685 49.1713 104.285 49.0813 103.931 48.9013C103.585 48.7213 103.308 48.4646 103.101 48.1313C102.901 47.7913 102.801 47.3913 102.801 46.9313ZM103.841 46.9413C103.841 47.2013 103.898 47.438 104.011 47.6513C104.125 47.858 104.278 48.0246 104.471 48.1513C104.665 48.2713 104.881 48.3313 105.121 48.3313C105.368 48.3313 105.588 48.2713 105.781 48.1513C105.975 48.0246 106.125 47.858 106.231 47.6513C106.345 47.438 106.401 47.2013 106.401 46.9413C106.401 46.6813 106.345 46.448 106.231 46.2413C106.125 46.0346 105.975 45.868 105.781 45.7413C105.588 45.6146 105.368 45.5513 105.121 45.5513C104.875 45.5513 104.655 45.6146 104.461 45.7413C104.268 45.868 104.115 46.038 104.001 46.2513C103.895 46.458 103.841 46.688 103.841 46.9413ZM108.659 41.3013L109.689 41.3013L109.689 49.0713L108.659 49.0713L108.659 41.3013ZM111.257 41.3013L112.287 41.3013L112.287 49.0713L111.257 49.0713L111.257 41.3013ZM115.825 49.1713C115.338 49.1713 114.921 49.078 114.575 48.8913C114.228 48.698 113.961 48.4346 113.775 48.1013C113.588 47.7613 113.495 47.3746 113.495 46.9413C113.495 46.528 113.598 46.1546 113.805 45.8213C114.018 45.4813 114.301 45.2113 114.655 45.0113C115.015 44.8113 115.411 44.7113 115.845 44.7113C116.405 44.7113 116.868 44.8746 117.235 45.2013C117.608 45.528 117.858 45.9846 117.985 46.5713L114.575 47.7513L114.335 47.1513L117.065 46.1713L116.855 46.3013C116.775 46.0946 116.648 45.9146 116.475 45.7613C116.301 45.6013 116.065 45.5213 115.765 45.5213C115.525 45.5213 115.308 45.5813 115.115 45.7013C114.928 45.8146 114.778 45.9746 114.665 46.1813C114.558 46.3813 114.505 46.618 114.505 46.8913C114.505 47.1713 114.561 47.418 114.675 47.6313C114.795 47.838 114.955 48.0013 115.155 48.1213C115.361 48.2413 115.591 48.3013 115.845 48.3013C116.025 48.3013 116.195 48.268 116.355 48.2013C116.521 48.1346 116.678 48.0513 116.825 47.9513L117.295 48.7113C117.075 48.8513 116.835 48.9646 116.575 49.0513C116.321 49.1313 116.071 49.1713 115.825 49.1713ZM120.048 44.8813L120.148 46.0813L120.098 45.9213C120.211 45.668 120.371 45.4513 120.578 45.2713C120.785 45.0913 120.998 44.9546 121.218 44.8613C121.445 44.7613 121.635 44.7113 121.788 44.7113L121.738 45.7313C121.418 45.7113 121.138 45.7713 120.898 45.9113C120.665 46.0513 120.481 46.238 120.348 46.4713C120.215 46.7046 120.148 46.9546 120.148 47.2213L120.148 49.0713L119.128 49.0713L119.128 44.8813L120.048 44.8813Z" fill="#446381" fill-opacity="1.000000" fill-rule="evenodd"/>
		<path id="$50 Per Hour" d="M42.27 61.62L41.83 62.62C41.5767 62.5267 41.3233 62.4533 41.07 62.4C40.8167 62.34 40.58 62.3033 40.36 62.29L40.36 64.21C40.6067 64.3033 40.8567 64.4067 41.11 64.52C41.37 64.6333 41.6033 64.7733 41.81 64.94C42.0167 65.1067 42.1833 65.31 42.31 65.55C42.4433 65.7833 42.51 66.07 42.51 66.41C42.51 66.99 42.3167 67.4633 41.93 67.83C41.55 68.1967 41.0267 68.43 40.36 68.53L40.36 69.18L39.66 69.18L39.66 68.58L39.64 68.58C39.3533 68.58 39.09 68.56 38.85 68.52C38.61 68.48 38.3933 68.43 38.2 68.37C38.0133 68.3033 37.8467 68.2367 37.7 68.17C37.56 68.0967 37.44 68.03 37.34 67.97L37.87 66.9C38.15 67.0533 38.45 67.1733 38.77 67.26C39.09 67.34 39.3733 67.38 39.62 67.38L39.66 67.38L39.66 65.14C39.42 65.0533 39.1833 64.9567 38.95 64.85C38.7233 64.7433 38.5167 64.6167 38.33 64.47C38.1433 64.3233 37.9933 64.15 37.88 63.95C37.7667 63.7433 37.71 63.5 37.71 63.22C37.71 62.9933 37.75 62.77 37.83 62.55C37.91 62.33 38.03 62.13 38.19 61.95C38.3567 61.7633 38.56 61.6067 38.8 61.48C39.0467 61.3467 39.3333 61.2567 39.66 61.21L39.66 60.54L40.36 60.54L40.36 61.18C40.6 61.1933 40.8267 61.2233 41.04 61.27C41.26 61.31 41.4567 61.3567 41.63 61.41C41.8033 61.4567 41.9467 61.5033 42.06 61.55C42.1733 61.59 42.2433 61.6133 42.27 61.62ZM41.3 66.4C41.3 66.1667 41.21 65.9733 41.03 65.82C40.85 65.6667 40.6267 65.5333 40.36 65.42L40.36 67.28C40.48 67.2533 40.5933 67.2167 40.7 67.17C40.8133 67.1167 40.9133 67.0567 41 66.99C41.0933 66.9167 41.1667 66.8333 41.22 66.74C41.2733 66.64 41.3 66.5267 41.3 66.4ZM38.92 63.14C38.92 63.3267 38.9867 63.4833 39.12 63.61C39.26 63.7367 39.44 63.8467 39.66 63.94L39.66 62.36C39.4267 62.4267 39.2433 62.53 39.11 62.67C38.9833 62.8033 38.92 62.96 38.92 63.14ZM43.708 65.51L43.708 61.9L46.628 61.9L46.628 62.89L44.598 62.89L44.598 64.16C44.6313 64.1467 44.6613 64.1367 44.688 64.13C44.7213 64.1233 44.768 64.12 44.828 64.12C45.168 64.12 45.478 64.18 45.758 64.3C46.038 64.4133 46.2746 64.57 46.468 64.77C46.6613 64.97 46.8113 65.2033 46.918 65.47C47.0246 65.73 47.078 66.0067 47.078 66.3C47.078 66.62 47.018 66.92 46.898 67.2C46.778 67.48 46.6146 67.7233 46.408 67.93C46.2013 68.13 45.9613 68.29 45.688 68.41C45.4146 68.5233 45.1246 68.58 44.818 68.58C44.518 68.58 44.2346 68.5267 43.968 68.42C43.708 68.3067 43.4746 68.15 43.268 67.95C43.3946 67.83 43.5213 67.7133 43.648 67.6C43.7746 67.4867 43.898 67.3733 44.018 67.26C44.1246 67.3533 44.2446 67.43 44.378 67.49C44.518 67.55 44.6713 67.58 44.838 67.58C45.0046 67.58 45.1613 67.5467 45.308 67.48C45.4546 67.4133 45.5813 67.3267 45.688 67.22C45.8013 67.1067 45.8913 66.9767 45.958 66.83C46.0246 66.6767 46.058 66.5133 46.058 66.34C46.058 66.1733 46.0246 66.0167 45.958 65.87C45.8913 65.7167 45.8013 65.5833 45.688 65.47C45.5813 65.3567 45.4513 65.27 45.298 65.21C45.1513 65.1433 44.9946 65.11 44.828 65.11C44.6546 65.11 44.468 65.1333 44.268 65.18C44.068 65.22 43.8813 65.33 43.708 65.51ZM47.9483 65.17C47.9483 64.61 48.0216 64.12 48.1683 63.7C48.3149 63.28 48.5116 62.93 48.7583 62.65C49.0116 62.37 49.3016 62.1633 49.6283 62.03C49.9616 61.89 50.3116 61.82 50.6783 61.82C51.0783 61.82 51.4449 61.9 51.7783 62.06C52.1116 62.2133 52.3983 62.4367 52.6383 62.73C52.8783 63.0233 53.0649 63.38 53.1983 63.8C53.3316 64.22 53.395 64.6933 53.3883 65.22C53.3816 65.7533 53.3083 66.23 53.1683 66.65C53.0283 67.07 52.8349 67.4233 52.5883 67.71C52.3483 67.9967 52.0616 68.2167 51.7283 68.37C51.3949 68.5167 51.035 68.59 50.6483 68.59C50.2749 68.59 49.9216 68.5167 49.5883 68.37C49.2616 68.2167 48.9749 67.9967 48.7283 67.71C48.4883 67.4233 48.2983 67.0667 48.1583 66.64C48.0183 66.2133 47.9483 65.7233 47.9483 65.17ZM48.9783 65.2C48.9783 65.52 49.0183 65.8233 49.0983 66.11C49.1849 66.3967 49.3016 66.65 49.4483 66.87C49.6016 67.0833 49.7816 67.2567 49.9883 67.39C50.1949 67.5167 50.4149 67.58 50.6483 67.58C50.8816 67.58 51.1016 67.5167 51.3083 67.39C51.5149 67.2633 51.6949 67.0933 51.8483 66.88C52.0016 66.66 52.1216 66.4067 52.2083 66.12C52.3016 65.8267 52.3483 65.52 52.3483 65.2C52.3483 64.9867 52.3216 64.7433 52.2683 64.47C52.2216 64.19 52.1349 63.93 52.0083 63.69C51.8883 63.4433 51.7183 63.2367 51.4983 63.07C51.285 62.8967 51.0149 62.81 50.6883 62.81C50.3416 62.81 50.0583 62.9 49.8383 63.08C49.6183 63.26 49.4449 63.4767 49.3183 63.73C49.1916 63.9767 49.1016 64.2367 49.0483 64.51C49.0016 64.7833 48.9783 65.0133 48.9783 65.2ZM58.1811 64.84L59.1611 64.84C59.4144 64.84 59.6244 64.7967 59.7911 64.71C59.9578 64.6233 60.0911 64.5167 60.1911 64.39C60.2911 64.2567 60.3611 64.12 60.4011 63.98C60.4411 63.8333 60.4611 63.7033 60.4611 63.59C60.4611 63.4833 60.4411 63.36 60.4011 63.22C60.3678 63.0733 60.3011 62.9367 60.2011 62.81C60.1078 62.6833 59.9778 62.5767 59.8111 62.49C59.6444 62.4033 59.4311 62.36 59.1711 62.36L58.1811 62.36L58.1811 64.84ZM56.9611 68.5L56.9611 61.21L59.0211 61.21C59.4211 61.21 59.7844 61.2633 60.1111 61.37C60.4444 61.4767 60.7244 61.63 60.9511 61.83C61.1844 62.03 61.3644 62.2767 61.4911 62.57C61.6178 62.8633 61.6811 63.1933 61.6811 63.56C61.6811 63.8533 61.6378 64.1467 61.5511 64.44C61.4644 64.7267 61.3211 64.9867 61.1211 65.22C60.9278 65.4467 60.6744 65.6333 60.3611 65.78C60.0478 65.92 59.6611 65.99 59.2011 65.99L58.1811 65.99L58.1811 68.5L56.9611 68.5ZM65.6931 68.01C65.4865 68.1967 65.2365 68.3433 64.9431 68.45C64.6498 68.5567 64.3498 68.61 64.0431 68.61C63.7298 68.61 63.4331 68.5533 63.1531 68.44C62.8798 68.32 62.6398 68.16 62.4331 67.96C62.2331 67.7533 62.0731 67.5167 61.9531 67.25C61.8331 66.9767 61.7731 66.6867 61.7731 66.38C61.7731 66.0733 61.8331 65.7867 61.9531 65.52C62.0731 65.2467 62.2331 65.01 62.4331 64.81C62.6398 64.6033 62.8765 64.4433 63.1431 64.33C63.4165 64.21 63.7031 64.15 64.0031 64.15C64.4831 64.15 64.9031 64.2967 65.2631 64.59C65.6298 64.8767 65.8898 65.2567 66.0431 65.73C65.8431 65.8033 65.6098 65.8933 65.3431 66C65.0831 66.1 64.8098 66.2067 64.5231 66.32C64.2365 66.4333 63.9498 66.55 63.6631 66.67C63.3765 66.7833 63.1131 66.8867 62.8731 66.98C62.9865 67.1867 63.1431 67.3533 63.3431 67.48C63.5431 67.6067 63.7698 67.67 64.0231 67.67C64.1965 67.67 64.3698 67.64 64.5431 67.58C64.7231 67.5133 64.8698 67.4267 64.9831 67.32L65.6931 68.01ZM64.8531 65.51C64.7731 65.3633 64.6531 65.2567 64.4931 65.19C64.3331 65.1167 64.1765 65.08 64.0231 65.08C63.8431 65.08 63.6731 65.1167 63.5131 65.19C63.3531 65.2567 63.2165 65.35 63.1031 65.47C62.9898 65.5833 62.8998 65.7167 62.8331 65.87C62.7665 66.0167 62.7331 66.17 62.7331 66.33L62.7331 66.37C62.8998 66.3033 63.0765 66.2333 63.2631 66.16C63.4565 66.08 63.6465 66 63.8331 65.92C64.0265 65.84 64.2098 65.7667 64.3831 65.7C64.5565 65.6267 64.7131 65.5633 64.8531 65.51ZM69.1595 65.38C68.9728 65.38 68.7928 65.4033 68.6195 65.45C68.4528 65.4967 68.3028 65.57 68.1694 65.67C68.0428 65.7633 67.9395 65.8833 67.8595 66.03C67.7794 66.17 67.7395 66.3367 67.7395 66.53L67.7395 68.5L66.7794 68.5L66.7794 64.25L67.6195 64.25C67.6328 64.49 67.6461 64.6867 67.6595 64.84C67.6795 64.9867 67.6961 65.1533 67.7095 65.34C67.7961 65.1533 67.9128 64.9867 68.0595 64.84C68.2061 64.6933 68.3561 64.57 68.5095 64.47C68.6694 64.3633 68.8261 64.2833 68.9795 64.23C69.1328 64.17 69.2628 64.14 69.3695 64.14L69.1595 65.38ZM72.3517 68.5L72.3517 61.21L73.5817 61.21L73.5817 64.25L77.0617 64.25L77.0617 61.21L78.3017 61.21C78.3017 61.29 78.3017 61.5133 78.3017 61.88C78.3017 62.2467 78.3017 62.69 78.3017 63.21C78.3017 63.7233 78.2984 64.2733 78.2917 64.86C78.2917 65.44 78.2917 65.99 78.2917 66.51C78.2917 67.0233 78.2917 67.4633 78.2917 67.83C78.2917 68.1967 78.2917 68.42 78.2917 68.5L77.0617 68.5L77.0617 65.42L73.5817 65.42L73.5817 68.5L72.3517 68.5ZM79.2829 66.37C79.2829 66.0633 79.3396 65.7767 79.4529 65.51C79.5729 65.2367 79.7362 65 79.9429 64.8C80.1496 64.6 80.3896 64.4433 80.6629 64.33C80.9429 64.21 81.2396 64.15 81.5529 64.15C81.8729 64.15 82.1696 64.21 82.4429 64.33C82.7162 64.4433 82.9496 64.6 83.1429 64.8C83.3429 65 83.4996 65.2367 83.6129 65.51C83.7262 65.7767 83.7829 66.0633 83.7829 66.37C83.7829 66.6767 83.7262 66.9667 83.6129 67.24C83.5062 67.5133 83.3529 67.7533 83.1529 67.96C82.9529 68.16 82.7162 68.32 82.4429 68.44C82.1696 68.5533 81.8696 68.61 81.5429 68.61C81.2296 68.61 80.9362 68.5567 80.6629 68.45C80.3896 68.3433 80.1496 68.1933 79.9429 68C79.7429 67.8 79.5829 67.5633 79.4629 67.29C79.3429 67.01 79.2829 66.7033 79.2829 66.37ZM80.2329 66.38C80.2329 66.56 80.2662 66.73 80.3329 66.89C80.3996 67.0433 80.4896 67.18 80.6029 67.3C80.7229 67.4133 80.8596 67.5033 81.0129 67.57C81.1729 67.6367 81.3429 67.67 81.5229 67.67C81.7029 67.67 81.8696 67.6367 82.0229 67.57C82.1829 67.5033 82.3196 67.4133 82.4329 67.3C82.5529 67.18 82.6462 67.0433 82.7129 66.89C82.7862 66.73 82.8229 66.56 82.8229 66.38C82.8229 66.2 82.7862 66.0333 82.7129 65.88C82.6462 65.72 82.5529 65.5833 82.4329 65.47C82.3196 65.35 82.1829 65.2567 82.0229 65.19C81.8696 65.1167 81.7029 65.08 81.5229 65.08C81.3429 65.08 81.1729 65.1167 81.0129 65.19C80.8596 65.2567 80.7229 65.35 80.6029 65.47C80.4896 65.5833 80.3996 65.72 80.3329 65.88C80.2662 66.0333 80.2329 66.2 80.2329 66.38ZM88.7296 68.6L87.9296 68.6L87.8096 67.42C87.6563 67.76 87.4429 68.0433 87.1696 68.27C86.9029 68.49 86.5496 68.6 86.1096 68.6C85.6696 68.6 85.3196 68.4867 85.0596 68.26C84.8063 68.0267 84.6729 67.72 84.6596 67.34L84.6596 64.25L85.6196 64.25L85.6196 66.89C85.6329 67.0967 85.7029 67.2733 85.8296 67.42C85.9629 67.56 86.1729 67.6367 86.4596 67.65C86.6529 67.65 86.8296 67.6167 86.9896 67.55C87.1496 67.4833 87.2863 67.39 87.3996 67.27C87.5196 67.15 87.6129 67.0067 87.6796 66.84C87.7463 66.6733 87.7796 66.4933 87.7796 66.3L87.7796 64.25L88.7296 64.25L88.7296 68.6ZM92.2942 65.38C92.1076 65.38 91.9276 65.4033 91.7542 65.45C91.5876 65.4967 91.4376 65.57 91.3042 65.67C91.1776 65.7633 91.0742 65.8833 90.9942 66.03C90.9142 66.17 90.8742 66.3367 90.8742 66.53L90.8742 68.5L89.9142 68.5L89.9142 64.25L90.7542 64.25C90.7675 64.49 90.7809 64.6867 90.7942 64.84C90.8142 64.9867 90.8309 65.1533 90.8442 65.34C90.9309 65.1533 91.0476 64.9867 91.1942 64.84C91.3409 64.6933 91.4909 64.57 91.6442 64.47C91.8042 64.3633 91.9609 64.2833 92.1142 64.23C92.2675 64.17 92.3976 64.14 92.5042 64.14L92.2942 65.38Z" fill="#EB8382" fill-opacity="1.000000" fill-rule="evenodd"/>
		<path id="125+Review" d="M91.9636 79.93L93.3876 79.93L93.3876 85.202L92.5316 85.202L92.5316 80.754L91.9636 80.754L91.9636 79.93ZM94.6359 85.202C94.9665 84.866 95.2865 84.5407 95.5959 84.226C95.9052 83.9114 96.1825 83.6047 96.4279 83.306C96.6785 83.0074 96.8732 82.7194 97.0119 82.442C97.1559 82.1647 97.2279 81.8954 97.2279 81.634C97.2279 81.474 97.2012 81.3354 97.1479 81.218C97.0999 81.0954 97.0305 80.9967 96.9399 80.922C96.8492 80.842 96.7479 80.7834 96.6359 80.746C96.5239 80.7034 96.4039 80.682 96.2759 80.682C96.1105 80.682 95.9692 80.7087 95.8519 80.762C95.7345 80.8154 95.6385 80.8847 95.5639 80.97C95.4945 81.05 95.4412 81.138 95.4039 81.234C95.3665 81.33 95.3479 81.426 95.3479 81.522C95.3479 81.698 95.3745 81.8554 95.4279 81.994C95.4865 82.1327 95.5639 82.2527 95.6599 82.354L95.1399 82.834C95.0065 82.754 94.8919 82.6394 94.7959 82.49C94.7052 82.3354 94.6359 82.1727 94.5879 82.002C94.5399 81.8314 94.5159 81.6794 94.5159 81.546C94.5159 81.2527 94.5879 80.9807 94.7319 80.73C94.8812 80.474 95.0972 80.266 95.3799 80.106C95.6679 79.946 96.0145 79.866 96.4199 79.866C96.7612 79.866 97.0572 79.9434 97.3079 80.098C97.5639 80.2527 97.7612 80.4607 97.8999 80.722C98.0439 80.978 98.1159 81.258 98.1159 81.562C98.1159 81.8234 98.0652 82.0794 97.9639 82.33C97.8625 82.5807 97.7265 82.8287 97.5559 83.074C97.3905 83.314 97.2039 83.554 96.9959 83.794C96.7932 84.0287 96.5905 84.266 96.3879 84.506L96.0039 84.378L98.2679 84.378L98.2679 85.202L94.6359 85.202ZM100.578 85.266C100.29 85.266 100.012 85.2127 99.7457 85.106C99.4791 84.9994 99.2657 84.8687 99.1057 84.714L99.5537 84.042C99.6604 84.1647 99.8017 84.2634 99.9777 84.338C100.159 84.4127 100.335 84.45 100.506 84.45C100.692 84.45 100.855 84.41 100.994 84.33C101.138 84.25 101.25 84.138 101.33 83.994C101.415 83.85 101.458 83.6847 101.458 83.498C101.458 83.2954 101.42 83.1167 101.346 82.962C101.271 82.802 101.159 82.6767 101.01 82.586C100.86 82.4954 100.679 82.45 100.466 82.45C100.284 82.45 100.114 82.4767 99.9537 82.53C99.7991 82.578 99.6311 82.6527 99.4497 82.754L99.4417 82.754L99.4417 79.93L101.986 79.93L101.986 80.746L100.186 80.746L100.186 81.994L100.074 81.818C100.164 81.7914 100.26 81.77 100.362 81.754C100.463 81.738 100.564 81.73 100.666 81.73C101.028 81.73 101.332 81.81 101.578 81.97C101.828 82.13 102.018 82.3407 102.146 82.602C102.274 82.8634 102.338 83.1514 102.338 83.466C102.338 83.802 102.26 84.106 102.106 84.378C101.956 84.65 101.748 84.866 101.482 85.026C101.215 85.186 100.914 85.266 100.578 85.266ZM104.589 81.866L105.341 81.866L105.341 82.97L106.421 82.97L106.421 83.69L105.341 83.69L105.341 84.786L104.589 84.786L104.589 83.69L103.509 83.69L103.509 82.97L104.589 82.97L104.589 81.866ZM109.62 79.394C109.924 79.394 110.204 79.4367 110.46 79.522C110.721 79.602 110.942 79.7194 111.124 79.874C111.31 80.0287 111.454 80.2207 111.556 80.45C111.662 80.674 111.716 80.9354 111.716 81.234C111.716 81.4634 111.681 81.69 111.612 81.914C111.542 82.138 111.43 82.3407 111.276 82.522C111.121 82.7034 110.918 82.85 110.668 82.962C110.417 83.0687 110.105 83.122 109.732 83.122L108.884 83.122L108.884 85.202L108.028 85.202L108.028 79.394L109.62 79.394ZM109.716 82.306C109.934 82.306 110.116 82.2714 110.26 82.202C110.409 82.1327 110.524 82.0474 110.604 81.946C110.689 81.8394 110.748 81.7274 110.78 81.61C110.817 81.4874 110.836 81.37 110.836 81.258C110.836 81.1514 110.817 81.0394 110.78 80.922C110.748 80.8047 110.689 80.6927 110.604 80.586C110.524 80.4794 110.414 80.3914 110.276 80.322C110.137 80.2527 109.966 80.218 109.764 80.218L108.884 80.218L108.884 82.306L109.716 82.306ZM110.7 82.802L112.204 85.202L111.212 85.202L109.684 82.826L110.7 82.802ZM114.623 85.282C114.233 85.282 113.9 85.2074 113.623 85.058C113.345 84.9034 113.132 84.6927 112.983 84.426C112.833 84.154 112.759 83.8447 112.759 83.498C112.759 83.1674 112.841 82.8687 113.007 82.602C113.177 82.33 113.404 82.114 113.687 81.954C113.975 81.794 114.292 81.714 114.639 81.714C115.087 81.714 115.457 81.8447 115.751 82.106C116.049 82.3674 116.249 82.7327 116.351 83.202L113.623 84.146L113.431 83.666L115.615 82.882L115.447 82.986C115.383 82.8207 115.281 82.6767 115.143 82.554C115.004 82.426 114.815 82.362 114.575 82.362C114.383 82.362 114.209 82.41 114.055 82.506C113.905 82.5967 113.785 82.7247 113.695 82.89C113.609 83.05 113.567 83.2394 113.567 83.458C113.567 83.682 113.612 83.8794 113.703 84.05C113.799 84.2154 113.927 84.346 114.087 84.442C114.252 84.538 114.436 84.586 114.639 84.586C114.783 84.586 114.919 84.5594 115.047 84.506C115.18 84.4527 115.305 84.386 115.423 84.306L115.799 84.914C115.623 85.026 115.431 85.1167 115.223 85.186C115.02 85.25 114.82 85.282 114.623 85.282ZM118.541 85.29L116.645 81.85L117.621 81.85L118.853 84.442L118.349 84.418L119.469 81.85L120.389 81.85L118.573 85.29L118.541 85.29ZM121.156 81.85L121.98 81.85L121.98 85.202L121.156 85.202L121.156 81.85ZM121.108 80.65C121.108 80.522 121.159 80.4154 121.26 80.33C121.362 80.2447 121.471 80.202 121.588 80.202C121.711 80.202 121.82 80.2447 121.916 80.33C122.012 80.4154 122.06 80.522 122.06 80.65C122.06 80.778 122.012 80.8847 121.916 80.97C121.82 81.05 121.711 81.09 121.588 81.09C121.471 81.09 121.362 81.05 121.26 80.97C121.159 80.8847 121.108 80.778 121.108 80.65ZM124.81 85.282C124.421 85.282 124.088 85.2074 123.81 85.058C123.533 84.9034 123.32 84.6927 123.17 84.426C123.021 84.154 122.946 83.8447 122.946 83.498C122.946 83.1674 123.029 82.8687 123.194 82.602C123.365 82.33 123.592 82.114 123.874 81.954C124.162 81.794 124.48 81.714 124.826 81.714C125.274 81.714 125.645 81.8447 125.938 82.106C126.237 82.3674 126.437 82.7327 126.538 83.202L123.81 84.146L123.618 83.666L125.802 82.882L125.634 82.986C125.57 82.8207 125.469 82.6767 125.33 82.554C125.192 82.426 125.002 82.362 124.762 82.362C124.57 82.362 124.397 82.41 124.242 82.506C124.093 82.5967 123.973 82.7247 123.882 82.89C123.797 83.05 123.754 83.2394 123.754 83.458C123.754 83.682 123.8 83.8794 123.89 84.05C123.986 84.2154 124.114 84.346 124.274 84.442C124.44 84.538 124.624 84.586 124.826 84.586C124.97 84.586 125.106 84.5594 125.234 84.506C125.368 84.4527 125.493 84.386 125.61 84.306L125.986 84.914C125.81 85.026 125.618 85.1167 125.41 85.186C125.208 85.25 125.008 85.282 124.81 85.282ZM129.559 81.85L130.495 84.002L130.335 84.01L131.191 81.85L131.999 81.85L130.463 85.402L129.391 83.122L128.407 85.402L126.863 81.85L127.671 81.85L128.663 84.106L128.375 84.058L129.095 82.394L128.847 81.85L129.559 81.85Z" fill="#446381" fill-opacity="1.000000" fill-rule="evenodd"/>
		<rect id="bi:star-fill" width="6.785714" height="6.785714" transform="translate(68.928589 79.463867)" fill="#FFFFFF" fill-opacity="0"/>
		<g clip-path="url(#clip1_153)">
			<path id="Vector" d="M70.4605 86.0134C70.2968 86.0974 70.111 85.9502 70.1441 85.7623L70.4961 83.7563L69.002 82.333C68.8625 82.1998 68.935 81.9564 69.122 81.9302L71.1993 81.6349L72.1255 79.7998C72.2091 79.6344 72.4352 79.6344 72.5187 79.7998L73.4449 81.6349L75.5222 81.9302C75.7093 81.9564 75.7818 82.1998 75.6418 82.333L74.1481 83.7563L74.5001 85.7623C74.5332 85.9502 74.3474 86.0974 74.1837 86.0134L72.3215 85.0566L70.4601 86.0134L70.4605 86.0134Z" fill="#FFB359" fill-opacity="1.000000" fill-rule="nonzero"/>
		</g>
		<rect id="bi:star-fill" width="6.785714" height="6.785714" transform="translate(58.750061 79.463867)" fill="#FFFFFF" fill-opacity="0"/>
		<g clip-path="url(#clip1_156)">
			<path id="Vector" d="M60.2819 86.0134C60.1182 86.0974 59.9324 85.9502 59.9655 85.7623L60.3175 83.7563L58.8234 82.333C58.6839 82.1998 58.7564 81.9564 58.9434 81.9302L61.0207 81.6349L61.947 79.7998C62.0305 79.6344 62.2566 79.6344 62.3401 79.7998L63.2664 81.6349L65.3436 81.9302C65.5307 81.9564 65.6032 82.1998 65.4632 82.333L63.9695 83.7563L64.3215 85.7623C64.3546 85.9502 64.1689 86.0974 64.0051 86.0134L62.1429 85.0566L60.2815 86.0134L60.2819 86.0134Z" fill="#FFB359" fill-opacity="1.000000" fill-rule="nonzero"/>
		</g>
		<rect id="bi:star-fill" width="6.785714" height="6.785714" transform="translate(48.571472 79.463867)" fill="#FFFFFF" fill-opacity="0"/>
		<g clip-path="url(#clip1_159)">
			<path id="Vector" d="M50.1033 86.0134C49.9396 86.0974 49.7539 85.9502 49.7869 85.7623L50.139 83.7563L48.6448 82.333C48.5053 82.1998 48.5778 81.9564 48.7648 81.9302L50.8421 81.6349L51.7684 79.7998C51.8519 79.6344 52.078 79.6344 52.1615 79.7998L53.0878 81.6349L55.165 81.9302C55.3521 81.9564 55.4246 82.1998 55.2846 82.333L53.7909 83.7563L54.1429 85.7623C54.176 85.9502 53.9903 86.0974 53.8266 86.0134L51.9643 85.0566L50.1029 86.0134L50.1033 86.0134Z" fill="#FFB359" fill-opacity="1.000000" fill-rule="nonzero"/>
		</g>
		<rect id="bi:star-fill" width="6.785714" height="6.785714" transform="translate(38.392883 79.463989)" fill="#FFFFFF" fill-opacity="0"/>
		<g clip-path="url(#clip1_162)">
			<path id="Vector" d="M39.9247 86.0134C39.761 86.0974 39.5753 85.9502 39.6084 85.7623L39.9604 83.7563L38.4662 82.333C38.3267 82.1998 38.3992 81.9564 38.5863 81.9302L40.6635 81.6349L41.5898 79.7998C41.6733 79.6344 41.8994 79.6344 41.9829 79.7998L42.9092 81.6349L44.9865 81.9302C45.1735 81.9564 45.246 82.1998 45.1061 82.333L43.6124 83.7563L43.9644 85.7623C43.9974 85.9502 43.8117 86.0974 43.648 86.0134L41.7857 85.0566L39.9243 86.0134L39.9247 86.0134Z" fill="#FFB359" fill-opacity="1.000000" fill-rule="nonzero"/>
		</g>
		<rect id="bi:star-fill" width="6.785714" height="6.785714" transform="translate(79.107178 79.463867)" fill="#FFFFFF" fill-opacity="0"/>
		<g clip-path="url(#clip1_165)">
			<path id="Vector" d="M80.639 86.0134C80.4753 86.0974 80.2896 85.9502 80.3226 85.7623L80.6747 83.7563L79.1805 82.333C79.041 82.1998 79.1135 81.9564 79.3006 81.9302L81.3778 81.6349L82.3041 79.7998C82.3876 79.6344 82.6137 79.6344 82.6972 79.7998L83.6235 81.6349L85.7007 81.9302C85.8878 81.9564 85.9603 82.1998 85.8203 82.333L84.3266 83.7563L84.6786 85.7623C84.7117 85.9502 84.526 86.0974 84.3623 86.0134L82.5 85.0566L80.6386 86.0134L80.639 86.0134Z" fill="#FFB359" fill-opacity="1.000000" fill-rule="nonzero"/>
		</g>
	</g>
</svg>
