<svg width="122.740479" height="108.992676" viewBox="0 0 122.74 108.993" fill="none" xmlns="http://www.w3.org/2000/svg" xmlns:xlink="http://www.w3.org/1999/xlink">
	<desc>
			Created with Pixso.
	</desc>
	<defs>
		<clipPath id="clip1_237">
			<rect id="Frame" width="58.919067" height="52.045174" transform="translate(63.821411 0.000000)" fill="white" fill-opacity="0"/>
		</clipPath>
		<clipPath id="clip1_292">
			<rect id="Frame" width="58.919067" height="52.045174" transform="matrix(-1 0 0 1 58.9191 0)" fill="white" fill-opacity="0"/>
		</clipPath>
		<clipPath id="clip1_347">
			<rect id="Frame" width="58.919067" height="52.045174" transform="matrix(1 0 0 -1 63.8214 108.993)" fill="white" fill-opacity="0"/>
		</clipPath>
		<clipPath id="clip1_402">
			<rect id="Frame" width="58.919067" height="52.045174" transform="translate(58.919067 108.992676) rotate(180.000000)" fill="white" fill-opacity="0"/>
		</clipPath>
	</defs>
	<rect id="Frame" width="58.919067" height="52.045174" transform="translate(63.821411 0.000000)" fill="#FFFFFF" fill-opacity="0"/>
	<g clip-path="url(#clip1_237)">
		<path id="Vector" d="M89.8211 51.7651C88.9498 51.6697 88.369 51.2305 88.369 50.3268C88.3626 49.4359 88.9119 48.895 89.7958 48.9013C90.6166 48.9013 91.1343 49.4168 91.1785 50.2314C91.2291 51.1351 90.6735 51.6124 89.8211 51.7651Z" fill="#446381" fill-opacity="1.000000" fill-rule="nonzero"/>
		<path id="Vector" d="M91.0711 17.4312C91.008 16.6802 90.4839 16.1902 89.7263 16.2347C88.9119 16.2793 88.4067 16.8265 88.4762 17.6603C88.5394 18.4113 89.0634 18.8121 89.8147 18.8822C90.6229 18.7358 91.1406 18.2712 91.0711 17.4312Z" fill="#446381" fill-opacity="1.000000" fill-rule="nonzero"/>
		<path id="Vector" d="M81.8659 0.146362C81.0451 0.108276 80.5084 0.61731 80.4832 1.4447C80.4642 2.20837 80.9567 2.72388 81.7017 2.76208C82.5288 2.80664 82.9834 2.27832 83.1097 1.47009C83.0276 0.706421 82.6172 0.18457 81.8659 0.146362Z" fill="#446381" fill-opacity="1.000000" fill-rule="nonzero"/>
		<path id="Vector" d="M88.5583 9.56519C88.5963 10.3606 89.095 10.7743 89.8653 10.7234C90.5787 10.6788 90.9891 10.2269 90.9828 9.50781C90.9828 8.7124 90.5156 8.3114 89.7454 8.2605C88.9688 8.34326 88.5205 8.776 88.5583 9.56519Z" fill="#446381" fill-opacity="1.000000" fill-rule="nonzero"/>
		<path id="Vector" d="M97.7384 49.054C96.9618 49.0668 96.4946 49.5504 96.5009 50.3268C96.5072 51.1096 96.9871 51.5806 97.7637 51.5742C98.5402 51.5678 98.9506 51.0778 99.0137 50.3014C98.9443 49.525 98.5213 49.0477 97.7384 49.054Z" fill="#446381" fill-opacity="1.000000" fill-rule="nonzero"/>
		<path id="Vector" d="M107.12 33.9204C107.102 33.2649 106.691 32.8385 106.047 32.8385C105.327 32.8385 104.892 33.2968 104.936 34.0222C104.98 34.665 105.428 35.0087 106.135 35.0659C106.685 34.9132 107.139 34.5886 107.12 33.9204Z" fill="#446381" fill-opacity="1.000000" fill-rule="nonzero"/>
		<path id="Vector" d="M106.142 49.1941C105.416 49.1241 104.955 49.5377 104.904 50.2696C104.86 50.9378 105.264 51.377 105.908 51.4406C106.641 51.517 107.038 51.0715 107.165 50.3842C107.127 49.7032 106.792 49.2513 106.142 49.1941Z" fill="#446381" fill-opacity="1.000000" fill-rule="nonzero"/>
		<path id="Vector" d="M104.961 25.9144C104.968 26.5126 105.365 26.9199 105.946 26.9581C106.609 27.0027 107.051 26.589 107.083 25.9335C107.121 25.2653 106.672 24.9088 106.028 24.7943C105.391 24.8898 104.955 25.2397 104.961 25.9144Z" fill="#446381" fill-opacity="1.000000" fill-rule="nonzero"/>
		<path id="Vector" d="M104.904 41.9645C104.911 42.6964 105.353 43.1292 106.079 43.1036C106.729 43.0782 107.139 42.6519 107.139 41.99C107.139 41.2517 106.679 40.8889 105.971 40.819C105.334 40.9463 104.904 41.2963 104.904 41.9645Z" fill="#446381" fill-opacity="1.000000" fill-rule="nonzero"/>
		<path id="Vector" d="M97.8394 0.426392C97.1891 0.381836 96.7598 0.789185 96.7346 1.4447C96.7156 2.0365 97.1071 2.44385 97.6753 2.48206C98.3256 2.52649 98.6918 2.11292 98.8054 1.43835C98.7233 0.884644 98.414 0.4646 97.8394 0.426392Z" fill="#446381" fill-opacity="1.000000" fill-rule="nonzero"/>
		<path id="Vector" d="M88.634 1.41284C88.6151 2.13196 89.0192 2.57751 89.7327 2.60291C90.4461 2.62842 90.8817 2.22107 90.9133 1.49561C90.9449 0.770142 90.5155 0.388306 89.7327 0.267334C89.1392 0.369141 88.6467 0.668213 88.634 1.41284Z" fill="#446381" fill-opacity="1.000000" fill-rule="nonzero"/>
		<path id="Vector" d="M96.665 9.49524C96.665 10.1506 97.0754 10.5835 97.7194 10.6025C98.4392 10.6152 98.8812 10.1635 98.8495 9.43787C98.8243 8.78882 98.376 8.44507 97.7321 8.37512C97.0944 8.48962 96.665 8.83972 96.665 9.49524Z" fill="#446381" fill-opacity="1.000000" fill-rule="nonzero"/>
		<path id="Vector" d="M96.6146 17.4884C96.5829 18.2076 96.9807 18.6594 97.6942 18.6976C98.4076 18.7358 98.8495 18.3285 98.8938 17.6094C98.938 16.8839 98.5087 16.4956 97.8268 16.3811C97.1133 16.4193 96.6524 16.7629 96.6146 17.4884Z" fill="#446381" fill-opacity="1.000000" fill-rule="nonzero"/>
		<path id="Vector" d="M105.012 17.6793C105.081 18.2584 105.498 18.6339 106.079 18.583C106.716 18.5258 107.114 18.0929 107.032 17.431C106.963 16.8519 106.546 16.5465 105.971 16.5083C105.34 16.642 104.93 17.0111 105.012 17.6793Z" fill="#446381" fill-opacity="1.000000" fill-rule="nonzero"/>
		<path id="Vector" d="M106.129 8.60413C105.593 8.55322 105.208 8.79504 105.144 9.36145C105.081 9.96606 105.353 10.3669 105.99 10.3988C106.54 10.4243 106.855 10.1251 106.919 9.57153C106.925 9.02417 106.685 8.66138 106.129 8.60413Z" fill="#446381" fill-opacity="1.000000" fill-rule="nonzero"/>
		<path id="Vector" d="M106.849 1.58459C106.931 1.03735 106.628 0.674561 106.091 0.61731C105.612 0.566406 105.277 0.859131 105.208 1.32373C105.125 1.87744 105.441 2.18921 105.953 2.30383C106.445 2.29736 106.78 2.05554 106.849 1.58459Z" fill="#446381" fill-opacity="1.000000" fill-rule="nonzero"/>
		<path id="Vector" d="M114.899 34.0349C114.943 33.494 114.703 33.1057 114.141 33.0485C113.535 32.9849 113.144 33.2649 113.119 33.9141C113.1 34.4677 113.396 34.7859 113.939 34.8431C114.495 34.8431 114.848 34.595 114.899 34.0349Z" fill="#446381" fill-opacity="1.000000" fill-rule="nonzero"/>
		<path id="Vector" d="M114.091 41.0863C113.548 41.0481 113.175 41.3091 113.125 41.8691C113.074 42.48 113.365 42.8683 114.002 42.881C114.558 42.8937 114.855 42.5819 114.911 41.9518C114.886 41.4872 114.653 41.1182 114.091 41.0863Z" fill="#446381" fill-opacity="1.000000" fill-rule="nonzero"/>
		<path id="Vector" d="M114.836 17.6602C114.899 17.1129 114.596 16.7565 114.047 16.7183C113.56 16.6802 113.238 16.9856 113.182 17.4502C113.118 17.9974 113.44 18.3093 113.958 18.4111C114.457 18.3857 114.785 18.1248 114.836 17.6602Z" fill="#446381" fill-opacity="1.000000" fill-rule="nonzero"/>
		<path id="Vector" d="M114.065 49.4168C113.523 49.3914 113.163 49.6586 113.125 50.2187C113.081 50.836 113.39 51.2051 114.028 51.2051C114.583 51.2051 114.874 50.8869 114.911 50.3205C114.893 49.7859 114.627 49.4487 114.065 49.4168Z" fill="#446381" fill-opacity="1.000000" fill-rule="nonzero"/>
		<path id="Vector" d="M114.874 25.8571C114.861 25.3544 114.583 25.0488 114.091 25.0171C113.535 24.9789 113.182 25.2653 113.156 25.838C113.131 26.4108 113.447 26.7098 114.084 26.7672C114.545 26.7035 114.886 26.4426 114.874 25.8571Z" fill="#446381" fill-opacity="1.000000" fill-rule="nonzero"/>
		<path id="Vector" d="M113.276 9.45691C113.245 9.88965 113.529 10.1952 113.933 10.2333C114.419 10.2778 114.741 9.97241 114.741 9.47595C114.735 9.05603 114.438 8.81409 113.971 8.74414C113.611 8.82056 113.308 9.03052 113.276 9.45691Z" fill="#446381" fill-opacity="1.000000" fill-rule="nonzero"/>
		<path id="Vector" d="M121.951 42.7218C122.381 42.7537 122.684 42.4673 122.722 42.0599C122.766 41.5699 122.463 41.2454 121.97 41.2454C121.554 41.2517 121.314 41.5508 121.25 41.9708C121.295 42.3972 121.535 42.6836 121.951 42.7218Z" fill="#446381" fill-opacity="1.000000" fill-rule="nonzero"/>
		<path id="Vector" d="M122.071 49.5823C121.642 49.525 121.332 49.805 121.276 50.2059C121.206 50.696 121.503 51.0269 121.989 51.0524C122.412 51.0715 122.652 50.7723 122.74 50.3459C122.715 49.9259 122.475 49.6332 122.071 49.5823Z" fill="#446381" fill-opacity="1.000000" fill-rule="nonzero"/>
		<path id="Vector" d="M113.99 0.871826C113.674 0.878174 113.466 1.0564 113.434 1.37463C113.403 1.75012 113.573 2.01099 113.964 2.0365C114.35 2.06189 114.558 1.85828 114.596 1.4574C114.571 1.07556 114.381 0.859131 113.99 0.871826Z" fill="#446381" fill-opacity="1.000000" fill-rule="nonzero"/>
		<path id="Vector" d="M121.926 25.3035C121.604 25.3289 121.434 25.5326 121.421 25.8507C121.408 26.2389 121.61 26.468 122.002 26.4617C122.393 26.4617 122.576 26.2325 122.583 25.8571C122.532 25.4562 122.305 25.2716 121.926 25.3035Z" fill="#446381" fill-opacity="1.000000" fill-rule="nonzero"/>
		<path id="Vector" d="M122.614 34.0349C122.658 33.5958 122.456 33.3094 121.989 33.3031C121.604 33.3031 121.389 33.5131 121.37 33.9014C121.351 34.2896 121.547 34.5059 121.977 34.5696C122.299 34.5696 122.576 34.4296 122.614 34.0349Z" fill="#446381" fill-opacity="1.000000" fill-rule="nonzero"/>
		<path id="Vector" d="M91.1533 33.9904C91.1785 33.1057 90.6418 32.5458 89.7579 32.5393C88.9435 32.533 88.4194 33.0612 88.3879 33.8759C88.3563 34.7732 88.9245 35.2377 89.7642 35.365C90.5787 35.2441 91.1343 34.8113 91.1533 33.9904Z" fill="#446381" fill-opacity="1.000000" fill-rule="nonzero"/>
		<path id="Vector" d="M88.4131 25.7935C88.35 26.6144 88.8551 27.1808 89.6443 27.2507C90.5219 27.3335 91.0964 26.7863 91.128 25.908C91.1596 25.087 90.6103 24.6415 89.8211 24.4824C89.0256 24.5588 88.4763 24.9852 88.4131 25.7935Z" fill="#446381" fill-opacity="1.000000" fill-rule="nonzero"/>
		<path id="Vector" d="M97.7131 24.6608C96.9997 24.6798 96.5704 25.1062 96.5451 25.819C96.5199 26.6018 96.9492 27.0854 97.7321 27.1045C98.515 27.1237 98.9254 26.6591 98.9885 25.8762C98.9127 25.0935 98.496 24.6416 97.7131 24.6608Z" fill="#446381" fill-opacity="1.000000" fill-rule="nonzero"/>
		<path id="Vector" d="M99.0074 41.9963C99.0137 41.2135 98.5465 40.7299 97.77 40.7235C96.9933 40.7108 96.5135 41.1881 96.5072 41.9708C96.4946 42.7537 96.9681 43.1801 97.7826 43.2692C98.5086 43.1864 99.0011 42.7855 99.0074 41.9963Z" fill="#446381" fill-opacity="1.000000" fill-rule="nonzero"/>
		<path id="Vector" d="M97.7448 32.6731C96.9681 32.6858 96.501 33.1631 96.5073 33.9458C96.5135 34.7286 96.9934 35.1996 97.77 35.1932C98.5466 35.1869 98.957 34.6968 99.0201 33.9204C98.9443 33.1376 98.5213 32.6666 97.7448 32.6731Z" fill="#446381" fill-opacity="1.000000" fill-rule="nonzero"/>
		<path id="Vector" d="M83.1539 9.53967C83.1791 8.71875 82.6614 8.17139 81.8658 8.13318C80.9883 8.09497 80.4263 8.64868 80.4327 9.53333C80.439 10.3479 80.9946 10.787 81.7901 10.908C82.5793 10.7933 83.1286 10.3606 83.1539 9.53967Z" fill="#446381" fill-opacity="1.000000" fill-rule="nonzero"/>
		<path id="Vector" d="M72.4207 1.38733C72.3954 2.27832 72.9258 2.83826 73.8097 2.84473C74.6178 2.85742 75.1481 2.33557 75.186 1.521C75.2239 0.623657 74.662 0.159058 73.7402 0.019043C73.0268 0.165405 72.4459 0.559937 72.4207 1.38733Z" fill="#446381" fill-opacity="1.000000" fill-rule="nonzero"/>
		<path id="Vector" d="M91.1533 42.0919C91.2164 41.2073 90.686 40.6217 89.8085 40.59C88.9308 40.5645 88.3815 41.1245 88.3879 42.0155C88.3942 42.8364 88.9371 43.2756 89.7264 43.4092C90.5408 43.3265 91.0964 42.9001 91.1533 42.0919Z" fill="#446381" fill-opacity="1.000000" fill-rule="nonzero"/>
		<path id="Vector" d="M81.7396 16.1329C80.925 16.1583 80.4073 16.6738 80.3821 17.4884C80.3569 18.3794 80.8809 18.9395 81.7648 18.9585C82.6613 18.9777 83.1096 18.4049 83.2233 17.533C83.097 16.6675 82.636 16.1074 81.7396 16.1329Z" fill="#446381" fill-opacity="1.000000" fill-rule="nonzero"/>
		<path id="Vector" d="M81.8343 24.4315C80.9377 24.4125 80.3884 24.8961 80.3505 25.8062C80.3127 26.7799 80.8367 27.34 81.8153 27.34C82.7245 27.34 83.1727 26.7863 83.2548 25.8953C83.1854 25.0044 82.7434 24.4507 81.8343 24.4315Z" fill="#446381" fill-opacity="1.000000" fill-rule="nonzero"/>
		<path id="Vector" d="M73.8538 8.05054C72.8815 8.03784 72.3385 8.58508 72.3701 9.56519C72.3953 10.4752 72.932 10.9716 73.8348 10.9589C74.744 10.9462 75.1923 10.4116 75.2807 9.43787C75.1796 8.64233 74.7693 8.06323 73.8538 8.05054Z" fill="#446381" fill-opacity="1.000000" fill-rule="nonzero"/>
		<path id="Vector" d="M65.5135 0C64.6106 0.019165 64.0929 0.534546 64.0929 1.4447C64.0929 2.43103 64.6611 2.95288 65.6271 2.90845C66.5363 2.86389 66.9593 2.29102 66.9972 1.38098C66.8898 0.502808 66.4163 -0.019043 65.5135 0Z" fill="#446381" fill-opacity="1.000000" fill-rule="nonzero"/>
		<path id="Vector" d="M81.8153 40.4882C80.925 40.469 80.3694 40.9463 80.3126 41.85C80.2495 42.8046 80.7167 43.4219 81.6953 43.4728C82.655 43.5238 83.1917 43.0083 83.2927 42.0409C83.2485 41.08 82.7939 40.5009 81.8153 40.4882Z" fill="#446381" fill-opacity="1.000000" fill-rule="nonzero"/>
		<path id="Vector" d="M80.338 33.7422C80.2496 34.7031 80.6915 35.3268 81.6765 35.4032C82.5604 35.4731 83.1538 35.0341 83.2485 34.1177C83.3495 33.1503 82.876 32.5839 81.8974 32.4312C81.0388 32.4567 80.42 32.8193 80.338 33.7422Z" fill="#446381" fill-opacity="1.000000" fill-rule="nonzero"/>
		<path id="Vector" d="M81.7648 48.8186C80.8682 48.825 80.3379 49.3277 80.3063 50.2314C80.2684 51.1987 80.7672 51.7779 81.7395 51.8097C82.7119 51.8351 83.2169 51.2942 83.2864 50.3269C83.2296 49.3659 82.7371 48.8123 81.7648 48.8186Z" fill="#446381" fill-opacity="1.000000" fill-rule="nonzero"/>
		<path id="Vector" d="M72.3196 17.5265C72.3069 18.4238 72.7805 18.9839 73.677 19.0411C74.6241 19.1049 75.2365 18.6276 75.287 17.6411C75.3375 16.6737 74.8261 16.1328 73.8665 16.0374C72.9067 16.0756 72.3385 16.5402 72.3196 17.5265Z" fill="#446381" fill-opacity="1.000000" fill-rule="nonzero"/>
		<path id="Vector" d="M65.6524 7.98694C64.7054 7.92322 64.093 8.40686 64.0298 9.38062C63.9667 10.3352 64.4465 10.9525 65.4125 11.0161C66.3596 11.0798 66.9278 10.5897 67.0541 9.61609C67.0541 8.67419 66.6247 8.05054 65.6524 7.98694Z" fill="#446381" fill-opacity="1.000000" fill-rule="nonzero"/>
		<path id="Vector" d="M75.3754 25.978C75.4196 24.9852 74.8135 24.3297 73.8286 24.3042C72.9067 24.2788 72.288 24.877 72.2375 25.7935C72.187 26.7926 72.8057 27.3527 73.7844 27.4927C74.6998 27.3972 75.3312 26.8944 75.3754 25.978Z" fill="#446381" fill-opacity="1.000000" fill-rule="nonzero"/>
		<path id="Vector" d="M73.8096 32.323C72.8941 32.3102 72.269 32.9084 72.2059 33.8185C72.1428 34.8176 72.7489 35.4858 73.7212 35.5432C74.7061 35.6005 75.2617 34.9576 75.4322 33.9585C75.3249 32.9912 74.8008 32.3357 73.8096 32.323Z" fill="#446381" fill-opacity="1.000000" fill-rule="nonzero"/>
		<path id="Vector" d="M65.5703 15.891C64.5854 15.9292 63.9982 16.502 63.8909 17.4757C63.7899 18.3539 64.6864 19.2767 65.564 19.2067C66.5426 19.1302 67.0667 18.5194 67.1866 17.6284C67.1929 16.7119 66.4037 15.8591 65.5703 15.891Z" fill="#446381" fill-opacity="1.000000" fill-rule="nonzero"/>
		<path id="Vector" d="M73.8475 48.6595C72.8625 48.6913 72.2753 49.2641 72.1554 50.2378C72.0544 51.1097 72.9509 52.0388 73.8222 51.9752C74.8008 51.8988 75.3248 51.2942 75.4511 50.4033C75.4637 49.4868 74.6808 48.634 73.8475 48.6595Z" fill="#446381" fill-opacity="1.000000" fill-rule="nonzero"/>
		<path id="Vector" d="M73.7717 43.6255C74.7504 43.6445 75.3439 43.0209 75.4512 42.0472C75.5459 41.1689 74.6494 40.2462 73.7717 40.3225C72.7932 40.4053 72.2691 41.0099 72.1428 41.9835C72.2691 42.9509 72.7932 43.6064 73.7717 43.6255Z" fill="#446381" fill-opacity="1.000000" fill-rule="nonzero"/>
		<path id="Vector" d="M63.8599 25.8889C63.8536 26.8754 64.466 27.5182 65.432 27.5691C66.4801 27.6263 67.1556 27.0027 67.2062 25.9526C67.2567 24.8898 66.5874 24.3297 65.5646 24.1643C64.5418 24.2916 63.8726 24.8262 63.8599 25.8889Z" fill="#446381" fill-opacity="1.000000" fill-rule="nonzero"/>
		<path id="Vector" d="M65.4886 32.234C64.4469 32.2722 63.8155 32.9341 63.8471 33.9841C63.8787 35.0342 64.5353 35.6642 65.5833 35.6388C66.6314 35.6133 67.1555 34.9196 67.2628 33.8823C67.0923 32.864 66.543 32.1958 65.4886 32.234Z" fill="#446381" fill-opacity="1.000000" fill-rule="nonzero"/>
		<path id="Vector" d="M65.5323 40.2653C64.478 40.2717 63.8845 40.889 63.8214 41.9454C63.7645 42.9573 64.6042 43.7783 65.6018 43.7083C66.6625 43.632 67.1802 42.9891 67.2686 41.9327C67.136 40.9144 66.5994 40.2526 65.5323 40.2653Z" fill="#446381" fill-opacity="1.000000" fill-rule="nonzero"/>
		<path id="Vector" d="M63.8215 50.2696C63.8341 51.3324 64.4023 51.9561 65.4504 52.0452C66.4479 52.1279 67.2877 51.3069 67.2435 50.3015C67.1993 49.226 66.5742 48.6977 65.7281 48.5895C64.598 48.5768 63.8151 49.315 63.8215 50.2696Z" fill="#446381" fill-opacity="1.000000" fill-rule="nonzero"/>
	</g>
	<rect id="Frame" width="58.919067" height="52.045174" transform="matrix(-1 0 0 1 58.9191 0)" fill="#FFFFFF" fill-opacity="0"/>
	<g clip-path="url(#clip1_292)">
		<path id="Vector" d="M32.9194 51.7651C33.7906 51.6697 34.3715 51.2305 34.3715 50.3268C34.3779 49.4359 33.8286 48.895 32.9446 48.9013C32.1238 48.9013 31.6061 49.4168 31.562 50.2314C31.5114 51.1351 32.067 51.6124 32.9194 51.7651Z" fill="#446381" fill-opacity="1.000000" fill-rule="nonzero"/>
		<path id="Vector" d="M31.6694 17.4312C31.7325 16.6802 32.2565 16.1902 33.0142 16.2347C33.8286 16.2793 34.3337 16.8265 34.2643 17.6603C34.2011 18.4113 33.6771 18.8121 32.9258 18.8822C32.1176 18.7358 31.5999 18.2712 31.6694 17.4312Z" fill="#446381" fill-opacity="1.000000" fill-rule="nonzero"/>
		<path id="Vector" d="M40.8746 0.146362C41.6954 0.108276 42.2321 0.61731 42.2573 1.4447C42.2762 2.20837 41.7838 2.72388 41.0388 2.76208C40.2117 2.80664 39.7571 2.27832 39.6308 1.47009C39.7129 0.706421 40.1233 0.18457 40.8746 0.146362Z" fill="#446381" fill-opacity="1.000000" fill-rule="nonzero"/>
		<path id="Vector" d="M34.1821 9.56519C34.1442 10.3606 33.6454 10.7743 32.8752 10.7234C32.1617 10.6788 31.7513 10.2269 31.7577 9.50781C31.7577 8.7124 32.2249 8.3114 32.9951 8.2605C33.7717 8.34326 34.22 8.776 34.1821 9.56519Z" fill="#446381" fill-opacity="1.000000" fill-rule="nonzero"/>
		<path id="Vector" d="M25.0021 49.054C25.7787 49.0668 26.2458 49.5504 26.2396 50.3268C26.2333 51.1096 25.7534 51.5806 24.9768 51.5742C24.2003 51.5678 23.7899 51.0778 23.7267 50.3014C23.7962 49.525 24.2192 49.0477 25.0021 49.054Z" fill="#446381" fill-opacity="1.000000" fill-rule="nonzero"/>
		<path id="Vector" d="M15.62 33.9204C15.639 33.2649 16.0494 32.8385 16.6934 32.8385C17.4131 32.8385 17.8488 33.2968 17.8046 34.0222C17.7604 34.665 17.3121 35.0087 16.605 35.0659C16.0557 34.9132 15.6011 34.5886 15.62 33.9204Z" fill="#446381" fill-opacity="1.000000" fill-rule="nonzero"/>
		<path id="Vector" d="M16.5986 49.1941C17.3246 49.1241 17.7855 49.5377 17.8361 50.2696C17.8802 50.9378 17.4762 51.377 16.8322 51.4406C16.0998 51.517 15.702 51.0715 15.5758 50.3842C15.6136 49.7032 15.9483 49.2513 16.5986 49.1941Z" fill="#446381" fill-opacity="1.000000" fill-rule="nonzero"/>
		<path id="Vector" d="M17.7792 25.9144C17.7729 26.5126 17.3752 26.9199 16.7943 26.9581C16.1313 27.0027 15.6894 26.589 15.6578 25.9335C15.6199 25.2653 16.0682 24.9088 16.7122 24.7943C17.3499 24.8898 17.7855 25.2397 17.7792 25.9144Z" fill="#446381" fill-opacity="1.000000" fill-rule="nonzero"/>
		<path id="Vector" d="M17.8361 41.9645C17.8298 42.6964 17.3878 43.1292 16.6617 43.1036C16.0114 43.0782 15.601 42.6519 15.601 41.99C15.601 41.2517 16.062 40.8889 16.769 40.819C17.4067 40.9463 17.8361 41.2963 17.8361 41.9645Z" fill="#446381" fill-opacity="1.000000" fill-rule="nonzero"/>
		<path id="Vector" d="M24.9011 0.426392C25.5513 0.381836 25.9807 0.789185 26.0059 1.4447C26.0249 2.0365 25.6334 2.44385 25.0652 2.48206C24.4149 2.52649 24.0487 2.11292 23.9351 1.43835C24.0172 0.884644 24.3265 0.4646 24.9011 0.426392Z" fill="#446381" fill-opacity="1.000000" fill-rule="nonzero"/>
		<path id="Vector" d="M34.1064 1.41284C34.1254 2.13196 33.7213 2.57751 33.0078 2.60291C32.2944 2.62842 31.8588 2.22107 31.8272 1.49561C31.7956 0.770142 32.225 0.388306 33.0078 0.267334C33.6013 0.369141 34.0938 0.668213 34.1064 1.41284Z" fill="#446381" fill-opacity="1.000000" fill-rule="nonzero"/>
		<path id="Vector" d="M26.0754 9.49524C26.0754 10.1506 25.665 10.5835 25.0211 10.6025C24.3013 10.6152 23.8593 10.1635 23.8909 9.43787C23.9161 8.78882 24.3644 8.44507 25.0084 8.37512C25.6461 8.48962 26.0754 8.83972 26.0754 9.49524Z" fill="#446381" fill-opacity="1.000000" fill-rule="nonzero"/>
		<path id="Vector" d="M26.1259 17.4884C26.1575 18.2076 25.7598 18.6594 25.0463 18.6976C24.3329 18.7358 23.8909 18.3285 23.8467 17.6094C23.8025 16.8839 24.2318 16.4956 24.9137 16.3811C25.6271 16.4193 26.0881 16.7629 26.1259 17.4884Z" fill="#446381" fill-opacity="1.000000" fill-rule="nonzero"/>
		<path id="Vector" d="M17.7287 17.6793C17.6592 18.2584 17.2426 18.6339 16.6617 18.583C16.024 18.5258 15.6263 18.0929 15.7084 17.431C15.7778 16.8519 16.1945 16.5465 16.769 16.5083C17.4004 16.642 17.8108 17.0111 17.7287 17.6793Z" fill="#446381" fill-opacity="1.000000" fill-rule="nonzero"/>
		<path id="Vector" d="M16.6113 8.60413C17.1479 8.55322 17.5331 8.79504 17.5962 9.36145C17.6593 9.96606 17.3878 10.3669 16.7502 10.3988C16.2009 10.4243 15.8852 10.1251 15.822 9.57153C15.8157 9.02417 16.0557 8.66138 16.6113 8.60413Z" fill="#446381" fill-opacity="1.000000" fill-rule="nonzero"/>
		<path id="Vector" d="M15.8915 1.58459C15.8094 1.03735 16.1125 0.674561 16.6492 0.61731C17.129 0.566406 17.4636 0.859131 17.5331 1.32373C17.6152 1.87744 17.2995 2.18921 16.7881 2.30383C16.2956 2.29736 15.961 2.05554 15.8915 1.58459Z" fill="#446381" fill-opacity="1.000000" fill-rule="nonzero"/>
		<path id="Vector" d="M7.84161 34.0349C7.79742 33.494 8.03735 33.1057 8.59924 33.0485C9.20538 32.9849 9.5968 33.2649 9.62207 33.9141C9.64099 34.4677 9.3443 34.7859 8.80127 34.8431C8.24567 34.8431 7.89215 34.595 7.84161 34.0349Z" fill="#446381" fill-opacity="1.000000" fill-rule="nonzero"/>
		<path id="Vector" d="M8.64972 41.0863C9.19269 41.0481 9.56525 41.3091 9.61572 41.8691C9.66626 42.48 9.37579 42.8683 8.7381 42.881C8.1825 42.8937 7.8858 42.5819 7.82898 41.9518C7.85419 41.4872 8.08783 41.1182 8.64972 41.0863Z" fill="#446381" fill-opacity="1.000000" fill-rule="nonzero"/>
		<path id="Vector" d="M7.90472 17.6602C7.84161 17.1129 8.14465 16.7565 8.69391 16.7183C9.18005 16.6802 9.50208 16.9856 9.5589 17.4502C9.62201 17.9974 9.30005 18.3093 8.78235 18.4111C8.28357 18.3856 7.95526 18.1248 7.90472 17.6602Z" fill="#446381" fill-opacity="1.000000" fill-rule="nonzero"/>
		<path id="Vector" d="M8.67499 49.4168C9.21796 49.3914 9.57782 49.6586 9.61572 50.2187C9.65991 50.836 9.35052 51.2051 8.71289 51.2051C8.15729 51.2051 7.86682 50.8869 7.82898 50.3205C7.8479 49.7859 8.1131 49.4487 8.67499 49.4168Z" fill="#446381" fill-opacity="1.000000" fill-rule="nonzero"/>
		<path id="Vector" d="M7.86688 25.8571C7.87952 25.3544 8.15729 25.0488 8.64972 25.0171C9.20532 24.9789 9.5589 25.2653 9.58417 25.838C9.60944 26.4108 9.29376 26.7098 8.65607 26.7672C8.19519 26.7035 7.85425 26.4426 7.86688 25.8571Z" fill="#446381" fill-opacity="1.000000" fill-rule="nonzero"/>
		<path id="Vector" d="M9.46417 9.45691C9.49573 9.88965 9.21161 10.1952 8.80756 10.2333C8.32141 10.2778 7.99939 9.97241 7.99939 9.47595C8.00568 9.05603 8.30243 8.81409 8.76965 8.74414C9.12952 8.82056 9.43262 9.03052 9.46417 9.45691Z" fill="#446381" fill-opacity="1.000000" fill-rule="nonzero"/>
		<path id="Vector" d="M0.789185 42.7218C0.359863 42.7537 0.0568237 42.4673 0.0189209 42.0599C-0.0252686 41.5699 0.277771 41.2454 0.770264 41.2454C1.18695 41.2517 1.42688 41.5508 1.48999 41.9708C1.4458 42.3972 1.20587 42.6836 0.789185 42.7218Z" fill="#446381" fill-opacity="1.000000" fill-rule="nonzero"/>
		<path id="Vector" d="M0.669312 49.5823C1.09863 49.525 1.40802 49.805 1.46484 50.2059C1.53424 50.696 1.23755 51.0269 0.751404 51.0524C0.328369 51.0715 0.0884399 50.7723 6.10352e-05 50.3459C0.0253296 49.9259 0.265198 49.6332 0.669312 49.5823Z" fill="#446381" fill-opacity="1.000000" fill-rule="nonzero"/>
		<path id="Vector" d="M8.75079 0.871826C9.06647 0.878174 9.27478 1.0564 9.3064 1.37463C9.33795 1.75012 9.16748 2.01099 8.776 2.0365C8.39087 2.06189 8.18256 1.85828 8.14465 1.4574C8.16992 1.07556 8.35931 0.859131 8.75079 0.871826Z" fill="#446381" fill-opacity="1.000000" fill-rule="nonzero"/>
		<path id="Vector" d="M0.814392 25.3035C1.13641 25.3289 1.30688 25.5326 1.31952 25.8507C1.33215 26.2389 1.13013 26.468 0.738647 26.4617C0.347229 26.4617 0.164124 26.2325 0.157776 25.8571C0.208313 25.4562 0.435608 25.2716 0.814392 25.3035Z" fill="#446381" fill-opacity="1.000000" fill-rule="nonzero"/>
		<path id="Vector" d="M0.126282 34.0348C0.0820923 33.5957 0.284119 33.3093 0.751343 33.303C1.13647 33.303 1.35114 33.5129 1.37006 33.9012C1.38904 34.2894 1.1933 34.5057 0.763977 34.5695C0.441956 34.5695 0.164185 34.4294 0.126282 34.0348Z" fill="#446381" fill-opacity="1.000000" fill-rule="nonzero"/>
		<path id="Vector" d="M31.5872 33.9904C31.562 33.1057 32.0986 32.5458 32.9825 32.5393C33.797 32.533 34.321 33.0612 34.3526 33.8759C34.3842 34.7732 33.816 35.2377 32.9763 35.365C32.1618 35.2441 31.6062 34.8113 31.5872 33.9904Z" fill="#446381" fill-opacity="1.000000" fill-rule="nonzero"/>
		<path id="Vector" d="M34.3273 25.7935C34.3904 26.6144 33.8854 27.1808 33.0962 27.2507C32.2186 27.3335 31.644 26.7863 31.6125 25.908C31.5809 25.087 32.1302 24.6415 32.9194 24.4824C33.7149 24.5588 34.2642 24.9852 34.3273 25.7935Z" fill="#446381" fill-opacity="1.000000" fill-rule="nonzero"/>
		<path id="Vector" d="M25.0273 24.6608C25.7408 24.6798 26.1701 25.1062 26.1954 25.819C26.2206 26.6018 25.7913 27.0854 25.0084 27.1045C24.2255 27.1237 23.8151 26.6591 23.752 25.8762C23.8278 25.0935 24.2444 24.6416 25.0273 24.6608Z" fill="#446381" fill-opacity="1.000000" fill-rule="nonzero"/>
		<path id="Vector" d="M23.7331 41.9963C23.7267 41.2135 24.194 40.7299 24.9705 40.7235C25.7471 40.7108 26.227 41.1881 26.2333 41.9708C26.2459 42.7537 25.7724 43.1801 24.9579 43.2692C24.2319 43.1864 23.7394 42.7855 23.7331 41.9963Z" fill="#446381" fill-opacity="1.000000" fill-rule="nonzero"/>
		<path id="Vector" d="M24.9957 32.6731C25.7723 32.6858 26.2395 33.1631 26.2332 33.9458C26.2269 34.7286 25.7471 35.1996 24.9705 35.1932C24.1939 35.1869 23.7835 34.6968 23.7204 33.9204C23.7961 33.1376 24.2192 32.6666 24.9957 32.6731Z" fill="#446381" fill-opacity="1.000000" fill-rule="nonzero"/>
		<path id="Vector" d="M39.5866 9.53967C39.5614 8.71875 40.0791 8.17139 40.8746 8.13318C41.7522 8.09497 42.3141 8.64868 42.3078 9.53333C42.3015 10.3479 41.7459 10.787 40.9504 10.908C40.1612 10.7933 39.6119 10.3606 39.5866 9.53967Z" fill="#446381" fill-opacity="1.000000" fill-rule="nonzero"/>
		<path id="Vector" d="M50.3198 1.38733C50.3451 2.27832 49.8147 2.83826 48.9308 2.84473C48.1227 2.85742 47.5923 2.33557 47.5544 1.521C47.5165 0.623657 48.0785 0.159058 49.0002 0.019043C49.7137 0.165405 50.2946 0.559937 50.3198 1.38733Z" fill="#446381" fill-opacity="1.000000" fill-rule="nonzero"/>
		<path id="Vector" d="M31.5872 42.0919C31.5241 41.2073 32.0544 40.6217 32.932 40.59C33.8096 40.5645 34.3589 41.1245 34.3526 42.0155C34.3463 42.8364 33.8033 43.2756 33.0141 43.4092C32.1996 43.3265 31.644 42.9001 31.5872 42.0919Z" fill="#446381" fill-opacity="1.000000" fill-rule="nonzero"/>
		<path id="Vector" d="M41.0009 16.1329C41.8154 16.1583 42.3331 16.6738 42.3584 17.4884C42.3836 18.3794 41.8596 18.9395 40.9757 18.9585C40.0792 18.9777 39.6309 18.4049 39.5172 17.533C39.6435 16.6675 40.1044 16.1074 41.0009 16.1329Z" fill="#446381" fill-opacity="1.000000" fill-rule="nonzero"/>
		<path id="Vector" d="M40.9062 24.4315C41.8027 24.4125 42.3521 24.8961 42.39 25.8062C42.4278 26.7799 41.9037 27.34 40.9252 27.34C40.016 27.34 39.5677 26.7863 39.4857 25.8953C39.5551 25.0044 39.9971 24.4507 40.9062 24.4315Z" fill="#446381" fill-opacity="1.000000" fill-rule="nonzero"/>
		<path id="Vector" d="M48.8867 8.05054C49.859 8.03784 50.402 8.58508 50.3704 9.56519C50.3452 10.4752 49.8085 10.9716 48.9056 10.9589C47.9965 10.9462 47.5482 10.4116 47.4598 9.43787C47.5609 8.64233 47.9712 8.06323 48.8867 8.05054Z" fill="#446381" fill-opacity="1.000000" fill-rule="nonzero"/>
		<path id="Vector" d="M57.227 0C58.1299 0.019165 58.6476 0.534546 58.6476 1.4447C58.6476 2.43103 58.0793 2.95288 57.1133 2.90845C56.2042 2.86389 55.7812 2.29102 55.7433 1.38098C55.8506 0.502808 56.3242 -0.019043 57.227 0Z" fill="#446381" fill-opacity="1.000000" fill-rule="nonzero"/>
		<path id="Vector" d="M40.9252 40.4882C41.8154 40.469 42.371 40.9463 42.4279 41.85C42.491 42.8046 42.0237 43.4219 41.0452 43.4728C40.0854 43.5238 39.5488 43.0083 39.4478 42.0409C39.492 41.08 39.9465 40.5009 40.9252 40.4882Z" fill="#446381" fill-opacity="1.000000" fill-rule="nonzero"/>
		<path id="Vector" d="M42.4025 33.7422C42.4909 34.7031 42.049 35.3268 41.064 35.4032C40.1801 35.4731 39.5867 35.0341 39.4919 34.1177C39.3909 33.1503 39.8644 32.5839 40.8431 32.4312C41.7017 32.4567 42.3204 32.8193 42.4025 33.7422Z" fill="#446381" fill-opacity="1.000000" fill-rule="nonzero"/>
		<path id="Vector" d="M40.9756 48.8186C41.8721 48.825 42.4025 49.3277 42.434 50.2314C42.4719 51.1987 41.9731 51.7779 41.0009 51.8097C40.0285 51.8351 39.5234 51.2942 39.454 50.3269C39.5108 49.3659 40.0033 48.8123 40.9756 48.8186Z" fill="#446381" fill-opacity="1.000000" fill-rule="nonzero"/>
		<path id="Vector" d="M50.4209 17.5265C50.4335 18.4238 49.96 18.9839 49.0635 19.0411C48.1164 19.1049 47.504 18.6276 47.4535 17.6411C47.403 16.6737 47.9144 16.1328 48.874 16.0374C49.8337 16.0756 50.402 16.5402 50.4209 17.5265Z" fill="#446381" fill-opacity="1.000000" fill-rule="nonzero"/>
		<path id="Vector" d="M57.0882 7.98694C58.0352 7.92322 58.6476 8.40686 58.7108 9.38062C58.7739 10.3352 58.2941 10.9525 57.3281 11.0161C56.381 11.0798 55.8128 10.5897 55.6865 9.61609C55.6865 8.67419 56.1159 8.05054 57.0882 7.98694Z" fill="#446381" fill-opacity="1.000000" fill-rule="nonzero"/>
		<path id="Vector" d="M47.3651 25.978C47.3209 24.9852 47.927 24.3297 48.9119 24.3042C49.8337 24.2788 50.4525 24.877 50.503 25.7935C50.5535 26.7926 49.9348 27.3527 48.9561 27.4927C48.0406 27.3972 47.4093 26.8944 47.3651 25.978Z" fill="#446381" fill-opacity="1.000000" fill-rule="nonzero"/>
		<path id="Vector" d="M48.9309 32.323C49.8464 32.3102 50.4714 32.9084 50.5345 33.8185C50.5977 34.8176 49.9916 35.4858 49.0193 35.5432C48.0344 35.6005 47.4788 34.9576 47.3083 33.9585C47.4156 32.9912 47.9396 32.3357 48.9309 32.323Z" fill="#446381" fill-opacity="1.000000" fill-rule="nonzero"/>
		<path id="Vector" d="M57.1702 15.891C58.1551 15.9292 58.7423 16.502 58.8496 17.4757C58.9506 18.3539 58.0541 19.2767 57.1765 19.2067C56.1979 19.1302 55.6738 18.5194 55.5539 17.6284C55.5475 16.7119 56.3368 15.8591 57.1702 15.891Z" fill="#446381" fill-opacity="1.000000" fill-rule="nonzero"/>
		<path id="Vector" d="M48.893 48.6595C49.8779 48.6913 50.4651 49.2641 50.5851 50.2378C50.6861 51.1097 49.7896 52.0388 48.9183 51.9752C47.9396 51.8988 47.4156 51.2942 47.2894 50.4033C47.2767 49.4868 48.0596 48.634 48.893 48.6595Z" fill="#446381" fill-opacity="1.000000" fill-rule="nonzero"/>
		<path id="Vector" d="M48.9688 43.6255C47.9901 43.6445 47.3966 43.0209 47.2893 42.0472C47.1946 41.1689 48.0911 40.2462 48.9688 40.3225C49.9473 40.4053 50.4714 41.0099 50.5977 41.9835C50.4714 42.9509 49.9473 43.6064 48.9688 43.6255Z" fill="#446381" fill-opacity="1.000000" fill-rule="nonzero"/>
		<path id="Vector" d="M58.8806 25.8889C58.8869 26.8754 58.2745 27.5182 57.3085 27.5691C56.2604 27.6263 55.5848 27.0027 55.5343 25.9526C55.4838 24.8898 56.1531 24.3297 57.1759 24.1643C58.1987 24.2916 58.8679 24.8262 58.8806 25.8889Z" fill="#446381" fill-opacity="1.000000" fill-rule="nonzero"/>
		<path id="Vector" d="M57.2518 32.2339C58.2936 32.2721 58.925 32.934 58.8934 33.984C58.8618 35.0341 58.2052 35.6641 57.1572 35.6387C56.1091 35.6132 55.585 34.9194 55.4777 33.8822C55.6482 32.8639 56.1974 32.1957 57.2518 32.2339Z" fill="#446381" fill-opacity="1.000000" fill-rule="nonzero"/>
		<path id="Vector" d="M57.2078 40.2653C58.2621 40.2717 58.8557 40.889 58.9188 41.9454C58.9756 42.9573 58.1359 43.7783 57.1383 43.7083C56.0776 43.632 55.5599 42.9891 55.4715 41.9327C55.6041 40.9144 56.1407 40.2526 57.2078 40.2653Z" fill="#446381" fill-opacity="1.000000" fill-rule="nonzero"/>
		<path id="Vector" d="M58.919 50.2696C58.9064 51.3324 58.3382 51.9561 57.2901 52.0452C56.2925 52.1279 55.4528 51.3069 55.497 50.3015C55.5412 49.226 56.1663 48.6977 57.0123 48.5895C58.1425 48.5768 58.9254 49.315 58.919 50.2696Z" fill="#446381" fill-opacity="1.000000" fill-rule="nonzero"/>
	</g>
	<rect id="Frame" width="58.919067" height="52.045174" transform="matrix(1 0 0 -1 63.8214 108.993)" fill="#FFFFFF" fill-opacity="0"/>
	<g clip-path="url(#clip1_347)">
		<path id="Vector" d="M89.8211 57.2275C88.9498 57.323 88.369 57.7621 88.369 58.6658C88.3626 59.5568 88.9119 60.0977 89.7958 60.0914C90.6166 60.0914 91.1343 59.5759 91.1785 58.7613C91.2291 57.8576 90.6735 57.3803 89.8211 57.2275Z" fill="#446381" fill-opacity="1.000000" fill-rule="nonzero"/>
		<path id="Vector" d="M91.0711 91.5616C91.008 92.3125 90.4839 92.8026 89.7263 92.758C88.9119 92.7134 88.4067 92.1661 88.4762 91.3325C88.5394 90.5815 89.0634 90.1805 89.8147 90.1105C90.6229 90.257 91.1406 90.7215 91.0711 91.5616Z" fill="#446381" fill-opacity="1.000000" fill-rule="nonzero"/>
		<path id="Vector" d="M81.8659 108.846C81.0451 108.885 80.5084 108.375 80.4832 107.548C80.4642 106.784 80.9567 106.269 81.7017 106.231C82.5288 106.186 82.9834 106.714 83.1097 107.523C83.0276 108.286 82.6172 108.808 81.8659 108.846Z" fill="#446381" fill-opacity="1.000000" fill-rule="nonzero"/>
		<path id="Vector" d="M88.5583 99.4276C88.5963 98.632 89.095 98.2184 89.8653 98.2693C90.5787 98.3138 90.9891 98.7657 90.9828 99.4848C90.9828 100.28 90.5156 100.681 89.7454 100.732C88.9688 100.649 88.5205 100.217 88.5583 99.4276Z" fill="#446381" fill-opacity="1.000000" fill-rule="nonzero"/>
		<path id="Vector" d="M97.7384 59.9387C96.9618 59.9259 96.4946 59.4423 96.5009 58.6658C96.5072 57.8831 96.9871 57.4121 97.7637 57.4185C98.5402 57.4249 98.9506 57.9149 99.0137 58.6913C98.9443 59.4677 98.5213 59.945 97.7384 59.9387Z" fill="#446381" fill-opacity="1.000000" fill-rule="nonzero"/>
		<path id="Vector" d="M107.12 75.0723C107.102 75.7278 106.691 76.1542 106.047 76.1542C105.327 76.1542 104.892 75.696 104.936 74.9705C104.98 74.3278 105.428 73.9841 106.135 73.9268C106.685 74.0795 107.139 74.4041 107.12 75.0723Z" fill="#446381" fill-opacity="1.000000" fill-rule="nonzero"/>
		<path id="Vector" d="M106.142 59.7986C105.416 59.8686 104.955 59.455 104.904 58.7231C104.86 58.0549 105.264 57.6157 105.908 57.5521C106.641 57.4757 107.038 57.9212 107.165 58.6085C107.127 59.2895 106.792 59.7413 106.142 59.7986Z" fill="#446381" fill-opacity="1.000000" fill-rule="nonzero"/>
		<path id="Vector" d="M104.961 83.0783C104.968 82.48 105.365 82.0728 105.946 82.0346C106.609 81.9901 107.051 82.4037 107.083 83.0592C107.121 83.7274 106.672 84.0838 106.028 84.1984C105.391 84.1029 104.955 83.7529 104.961 83.0783Z" fill="#446381" fill-opacity="1.000000" fill-rule="nonzero"/>
		<path id="Vector" d="M104.904 67.0282C104.911 66.2963 105.353 65.8635 106.079 65.889C106.729 65.9144 107.139 66.3408 107.139 67.0027C107.139 67.741 106.679 68.1037 105.971 68.1737C105.334 68.0464 104.904 67.6964 104.904 67.0282Z" fill="#446381" fill-opacity="1.000000" fill-rule="nonzero"/>
		<path id="Vector" d="M97.8394 108.566C97.1891 108.611 96.7598 108.204 96.7346 107.548C96.7156 106.956 97.1071 106.549 97.6753 106.511C98.3256 106.466 98.6918 106.88 98.8054 107.554C98.7233 108.108 98.414 108.528 97.8394 108.566Z" fill="#446381" fill-opacity="1.000000" fill-rule="nonzero"/>
		<path id="Vector" d="M88.634 107.58C88.6151 106.861 89.0192 106.415 89.7327 106.39C90.4461 106.364 90.8817 106.772 90.9133 107.497C90.9449 108.223 90.5155 108.604 89.7327 108.725C89.1392 108.624 88.6467 108.324 88.634 107.58Z" fill="#446381" fill-opacity="1.000000" fill-rule="nonzero"/>
		<path id="Vector" d="M96.665 99.4976C96.665 98.842 97.0754 98.4093 97.7194 98.3902C98.4392 98.3775 98.8812 98.8293 98.8495 99.5548C98.8243 100.204 98.376 100.548 97.7321 100.618C97.0944 100.503 96.665 100.153 96.665 99.4976Z" fill="#446381" fill-opacity="1.000000" fill-rule="nonzero"/>
		<path id="Vector" d="M96.6146 91.5043C96.5829 90.7852 96.9807 90.3333 97.6942 90.2951C98.4076 90.257 98.8495 90.6642 98.8938 91.3834C98.938 92.1089 98.5087 92.4971 97.8268 92.6116C97.1133 92.5734 96.6524 92.2298 96.6146 91.5043Z" fill="#446381" fill-opacity="1.000000" fill-rule="nonzero"/>
		<path id="Vector" d="M105.012 91.3134C105.081 90.7343 105.498 90.3588 106.079 90.4097C106.716 90.467 107.114 90.8997 107.032 91.5616C106.963 92.1407 106.546 92.4462 105.971 92.4844C105.34 92.3507 104.93 91.9816 105.012 91.3134Z" fill="#446381" fill-opacity="1.000000" fill-rule="nonzero"/>
		<path id="Vector" d="M106.129 100.389C105.593 100.439 105.208 100.198 105.144 99.6312C105.081 99.0266 105.353 98.6257 105.99 98.5939C106.54 98.5684 106.855 98.8675 106.919 99.4212C106.925 99.9685 106.685 100.331 106.129 100.389Z" fill="#446381" fill-opacity="1.000000" fill-rule="nonzero"/>
		<path id="Vector" d="M106.849 107.408C106.931 107.955 106.628 108.318 106.091 108.375C105.612 108.426 105.277 108.134 105.208 107.669C105.125 107.115 105.441 106.803 105.953 106.689C106.445 106.695 106.78 106.937 106.849 107.408Z" fill="#446381" fill-opacity="1.000000" fill-rule="nonzero"/>
		<path id="Vector" d="M114.899 74.9578C114.943 75.4987 114.703 75.8869 114.141 75.9442C113.535 76.0078 113.144 75.7278 113.119 75.0787C113.1 74.525 113.396 74.2068 113.939 74.1495C114.495 74.1495 114.848 74.3977 114.899 74.9578Z" fill="#446381" fill-opacity="1.000000" fill-rule="nonzero"/>
		<path id="Vector" d="M114.091 67.9064C113.548 67.9446 113.175 67.6837 113.125 67.1236C113.074 66.5126 113.365 66.1245 114.002 66.1117C114.558 66.099 114.855 66.4108 114.911 67.0409C114.886 67.5054 114.653 67.8746 114.091 67.9064Z" fill="#446381" fill-opacity="1.000000" fill-rule="nonzero"/>
		<path id="Vector" d="M114.836 91.3325C114.899 91.8798 114.596 92.2362 114.047 92.2744C113.56 92.3126 113.238 92.0071 113.182 91.5425C113.118 90.9952 113.44 90.6833 113.958 90.5815C114.457 90.607 114.785 90.8679 114.836 91.3325Z" fill="#446381" fill-opacity="1.000000" fill-rule="nonzero"/>
		<path id="Vector" d="M114.065 59.5759C113.523 59.6013 113.163 59.334 113.125 58.774C113.081 58.1567 113.39 57.7875 114.028 57.7875C114.583 57.7875 114.874 58.1058 114.911 58.6722C114.893 59.2067 114.627 59.544 114.065 59.5759Z" fill="#446381" fill-opacity="1.000000" fill-rule="nonzero"/>
		<path id="Vector" d="M114.874 83.1356C114.861 83.6383 114.583 83.9438 114.091 83.9756C113.535 84.0138 113.182 83.7274 113.156 83.1547C113.131 82.5819 113.447 82.2828 114.084 82.2255C114.545 82.2891 114.886 82.55 114.874 83.1356Z" fill="#446381" fill-opacity="1.000000" fill-rule="nonzero"/>
		<path id="Vector" d="M113.276 99.5357C113.245 99.103 113.529 98.7975 113.933 98.7593C114.419 98.7147 114.741 99.0202 114.741 99.5166C114.735 99.9366 114.438 100.178 113.971 100.248C113.611 100.172 113.308 99.9621 113.276 99.5357Z" fill="#446381" fill-opacity="1.000000" fill-rule="nonzero"/>
		<path id="Vector" d="M121.951 66.2709C122.381 66.239 122.684 66.5254 122.722 66.9327C122.766 67.4227 122.463 67.7473 121.97 67.7473C121.554 67.741 121.314 67.4418 121.25 67.0218C121.295 66.5954 121.535 66.309 121.951 66.2709Z" fill="#446381" fill-opacity="1.000000" fill-rule="nonzero"/>
		<path id="Vector" d="M122.071 59.4104C121.642 59.4677 121.332 59.1877 121.276 58.7867C121.206 58.2967 121.503 57.9658 121.989 57.9403C122.412 57.9212 122.652 58.2203 122.74 58.6467C122.715 59.0668 122.475 59.3595 122.071 59.4104Z" fill="#446381" fill-opacity="1.000000" fill-rule="nonzero"/>
		<path id="Vector" d="M113.99 108.121C113.674 108.114 113.466 107.936 113.434 107.618C113.403 107.243 113.573 106.982 113.964 106.956C114.35 106.931 114.558 107.134 114.596 107.535C114.571 107.917 114.381 108.134 113.99 108.121Z" fill="#446381" fill-opacity="1.000000" fill-rule="nonzero"/>
		<path id="Vector" d="M121.926 83.6892C121.604 83.6638 121.434 83.4601 121.421 83.1419C121.408 82.7537 121.61 82.5246 122.002 82.531C122.393 82.531 122.576 82.7601 122.583 83.1356C122.532 83.5365 122.305 83.7211 121.926 83.6892Z" fill="#446381" fill-opacity="1.000000" fill-rule="nonzero"/>
		<path id="Vector" d="M122.614 74.9578C122.658 75.3969 122.456 75.6833 121.989 75.6896C121.604 75.6896 121.389 75.4796 121.37 75.0914C121.351 74.7032 121.547 74.4868 121.977 74.4232C122.299 74.4232 122.576 74.5632 122.614 74.9578Z" fill="#446381" fill-opacity="1.000000" fill-rule="nonzero"/>
		<path id="Vector" d="M91.1533 75.0023C91.1785 75.8869 90.6418 76.447 89.7579 76.4533C88.9435 76.4597 88.4194 75.9315 88.3879 75.1169C88.3563 74.2195 88.9245 73.7549 89.7642 73.6277C90.5787 73.7486 91.1343 74.1813 91.1533 75.0023Z" fill="#446381" fill-opacity="1.000000" fill-rule="nonzero"/>
		<path id="Vector" d="M88.4131 83.1992C88.35 82.3782 88.8551 81.8118 89.6443 81.7418C90.5219 81.6591 91.0964 82.2064 91.128 83.0847C91.1596 83.9056 90.6103 84.3511 89.8211 84.5102C89.0256 84.4338 88.4763 84.0074 88.4131 83.1992Z" fill="#446381" fill-opacity="1.000000" fill-rule="nonzero"/>
		<path id="Vector" d="M97.7131 84.332C96.9997 84.3129 96.5704 83.8865 96.5451 83.1738C96.5199 82.391 96.9492 81.9073 97.7321 81.8882C98.515 81.8691 98.9254 82.3337 98.9885 83.1165C98.9127 83.8992 98.496 84.3511 97.7131 84.332Z" fill="#446381" fill-opacity="1.000000" fill-rule="nonzero"/>
		<path id="Vector" d="M99.0074 66.9963C99.0137 67.7791 98.5465 68.2628 97.77 68.2692C96.9933 68.2819 96.5135 67.8046 96.5072 67.0218C96.4946 66.239 96.9681 65.8126 97.7826 65.7236C98.5086 65.8063 99.0011 66.2072 99.0074 66.9963Z" fill="#446381" fill-opacity="1.000000" fill-rule="nonzero"/>
		<path id="Vector" d="M97.7448 76.3196C96.9681 76.3069 96.501 75.8296 96.5073 75.0468C96.5135 74.264 96.9934 73.7931 97.77 73.7995C98.5466 73.8058 98.957 74.2959 99.0201 75.0723C98.9443 75.855 98.5213 76.326 97.7448 76.3196Z" fill="#446381" fill-opacity="1.000000" fill-rule="nonzero"/>
		<path id="Vector" d="M83.1539 99.453C83.1791 100.274 82.6614 100.821 81.8658 100.859C80.9883 100.898 80.4263 100.344 80.4327 99.4594C80.439 98.6448 80.9946 98.2057 81.7901 98.0848C82.5793 98.1993 83.1286 98.6321 83.1539 99.453Z" fill="#446381" fill-opacity="1.000000" fill-rule="nonzero"/>
		<path id="Vector" d="M72.4207 107.605C72.3954 106.714 72.9258 106.154 73.8097 106.148C74.6178 106.135 75.1481 106.657 75.186 107.472C75.2239 108.369 74.662 108.834 73.7402 108.974C73.0268 108.827 72.4459 108.433 72.4207 107.605Z" fill="#446381" fill-opacity="1.000000" fill-rule="nonzero"/>
		<path id="Vector" d="M91.1533 66.9009C91.2164 67.7855 90.686 68.371 89.8085 68.4028C88.9308 68.4282 88.3815 67.8682 88.3879 66.9772C88.3942 66.1562 88.9371 65.7172 89.7264 65.5835C90.5408 65.6663 91.0964 66.0927 91.1533 66.9009Z" fill="#446381" fill-opacity="1.000000" fill-rule="nonzero"/>
		<path id="Vector" d="M81.7396 92.8598C80.925 92.8344 80.4073 92.3189 80.3821 91.5043C80.3569 90.6133 80.8809 90.0533 81.7648 90.0342C82.6613 90.0151 83.1096 90.5879 83.2233 91.4597C83.097 92.3253 82.636 92.8853 81.7396 92.8598Z" fill="#446381" fill-opacity="1.000000" fill-rule="nonzero"/>
		<path id="Vector" d="M81.8343 84.5611C80.9377 84.5802 80.3884 84.0965 80.3505 83.1865C80.3127 82.2128 80.8367 81.6527 81.8153 81.6527C82.7245 81.6527 83.1727 82.2064 83.2548 83.0974C83.1854 83.9883 82.7434 84.542 81.8343 84.5611Z" fill="#446381" fill-opacity="1.000000" fill-rule="nonzero"/>
		<path id="Vector" d="M73.8538 100.942C72.8815 100.955 72.3385 100.408 72.3701 99.4276C72.3953 98.5175 72.932 98.0211 73.8348 98.0338C74.744 98.0465 75.1923 98.5811 75.2807 99.5548C75.1796 100.35 74.7693 100.929 73.8538 100.942Z" fill="#446381" fill-opacity="1.000000" fill-rule="nonzero"/>
		<path id="Vector" d="M65.5135 108.993C64.6106 108.974 64.0929 108.458 64.0929 107.548C64.0929 106.562 64.6611 106.04 65.6271 106.084C66.5363 106.129 66.9593 106.702 66.9972 107.612C66.8898 108.49 66.4163 109.012 65.5135 108.993Z" fill="#446381" fill-opacity="1.000000" fill-rule="nonzero"/>
		<path id="Vector" d="M81.8153 68.5046C80.925 68.5237 80.3694 68.0464 80.3126 67.1427C80.2495 66.1881 80.7167 65.5708 81.6953 65.5199C82.655 65.469 83.1917 65.9845 83.2927 66.9518C83.2485 67.9128 82.7939 68.4919 81.8153 68.5046Z" fill="#446381" fill-opacity="1.000000" fill-rule="nonzero"/>
		<path id="Vector" d="M80.338 75.2505C80.2496 74.2896 80.6915 73.6659 81.6765 73.5895C82.5604 73.5195 83.1538 73.9586 83.2485 74.8751C83.3495 75.8424 82.876 76.4088 81.8974 76.5615C81.0388 76.5361 80.42 76.1733 80.338 75.2505Z" fill="#446381" fill-opacity="1.000000" fill-rule="nonzero"/>
		<path id="Vector" d="M81.7648 60.1741C80.8682 60.1677 80.3379 59.665 80.3063 58.7612C80.2684 57.7939 80.7672 57.2148 81.7395 57.183C82.7119 57.1575 83.2169 57.6985 83.2864 58.6658C83.2296 59.6268 82.7371 60.1804 81.7648 60.1741Z" fill="#446381" fill-opacity="1.000000" fill-rule="nonzero"/>
		<path id="Vector" d="M72.3196 91.4661C72.3069 90.5688 72.7805 90.0088 73.677 89.9515C74.6241 89.8879 75.2365 90.3652 75.287 91.3516C75.3375 92.3189 74.8261 92.8599 73.8665 92.9553C72.9067 92.9171 72.3385 92.4526 72.3196 91.4661Z" fill="#446381" fill-opacity="1.000000" fill-rule="nonzero"/>
		<path id="Vector" d="M65.6524 101.006C64.7054 101.069 64.093 100.586 64.0298 99.6121C63.9667 98.6575 64.4465 98.0402 65.4125 97.9765C66.3596 97.9128 66.9278 98.4029 67.0541 99.3766C67.0541 100.318 66.6247 100.942 65.6524 101.006Z" fill="#446381" fill-opacity="1.000000" fill-rule="nonzero"/>
		<path id="Vector" d="M75.3754 83.0147C75.4196 84.0074 74.8135 84.663 73.8286 84.6884C72.9067 84.7139 72.288 84.1157 72.2375 83.1992C72.187 82.2001 72.8057 81.6401 73.7844 81.5001C74.6998 81.5955 75.3312 82.0983 75.3754 83.0147Z" fill="#446381" fill-opacity="1.000000" fill-rule="nonzero"/>
		<path id="Vector" d="M73.8096 76.6697C72.8941 76.6824 72.269 76.0842 72.2059 75.1742C72.1428 74.175 72.7489 73.5068 73.7212 73.4495C74.7061 73.3922 75.2617 74.035 75.4322 75.0342C75.3249 76.0015 74.8008 76.657 73.8096 76.6697Z" fill="#446381" fill-opacity="1.000000" fill-rule="nonzero"/>
		<path id="Vector" d="M65.5703 93.1017C64.5854 93.0635 63.9982 92.4907 63.8909 91.517C63.7899 90.6388 64.6864 89.716 65.564 89.786C66.5426 89.8624 67.0667 90.4733 67.1866 91.3643C67.1929 92.2807 66.4037 93.1335 65.5703 93.1017Z" fill="#446381" fill-opacity="1.000000" fill-rule="nonzero"/>
		<path id="Vector" d="M73.8475 60.3332C72.8625 60.3014 72.2753 59.7286 72.1554 58.7549C72.0544 57.883 72.9509 56.9539 73.8222 57.0175C74.8008 57.0939 75.3248 57.6985 75.4511 58.5894C75.4637 59.5059 74.6808 60.3586 73.8475 60.3332Z" fill="#446381" fill-opacity="1.000000" fill-rule="nonzero"/>
		<path id="Vector" d="M73.7717 65.3672C74.7504 65.3481 75.3439 65.9717 75.4512 66.9455C75.5459 67.8237 74.6494 68.7465 73.7717 68.6701C72.7932 68.5874 72.2691 67.9828 72.1428 67.0091C72.2691 66.0417 72.7932 65.3863 73.7717 65.3672Z" fill="#446381" fill-opacity="1.000000" fill-rule="nonzero"/>
		<path id="Vector" d="M63.8599 83.1037C63.8536 82.1173 64.466 81.4745 65.432 81.4236C66.4801 81.3663 67.1556 81.99 67.2062 83.0401C67.2567 84.1028 66.5874 84.6629 65.5646 84.8284C64.5418 84.7011 63.8726 84.1665 63.8599 83.1037Z" fill="#446381" fill-opacity="1.000000" fill-rule="nonzero"/>
		<path id="Vector" d="M65.4886 76.7589C64.4469 76.7206 63.8155 76.0588 63.8471 75.0087C63.8787 73.9586 64.5353 73.3286 65.5833 73.3541C66.6314 73.3795 67.1555 74.0732 67.2628 75.1105C67.0923 76.1288 66.543 76.797 65.4886 76.7589Z" fill="#446381" fill-opacity="1.000000" fill-rule="nonzero"/>
		<path id="Vector" d="M65.5323 68.7274C64.478 68.721 63.8845 68.1037 63.8214 67.0472C63.7645 66.0353 64.6042 65.2144 65.6018 65.2844C66.6625 65.3608 67.1802 66.0035 67.2686 67.06C67.136 68.0782 66.5994 68.7401 65.5323 68.7274Z" fill="#446381" fill-opacity="1.000000" fill-rule="nonzero"/>
		<path id="Vector" d="M63.8215 58.7231C63.8341 57.6603 64.4023 57.0366 65.4504 56.9475C66.4479 56.8647 67.2877 57.6857 67.2435 58.6912C67.1993 59.7667 66.5742 60.295 65.7281 60.4031C64.598 60.4159 63.8151 59.6777 63.8215 58.7231Z" fill="#446381" fill-opacity="1.000000" fill-rule="nonzero"/>
	</g>
	<rect id="Frame" width="58.919067" height="52.045174" transform="translate(58.919067 108.992676) rotate(180.000000)" fill="#FFFFFF" fill-opacity="0"/>
	<g clip-path="url(#clip1_402)">
		<path id="Vector" d="M32.9194 57.2275C33.7906 57.323 34.3715 57.7621 34.3715 58.6658C34.3779 59.5568 33.8286 60.0977 32.9446 60.0914C32.1238 60.0914 31.6061 59.5759 31.562 58.7613C31.5114 57.8576 32.067 57.3803 32.9194 57.2275Z" fill="#446381" fill-opacity="1.000000" fill-rule="nonzero"/>
		<path id="Vector" d="M31.6694 91.5616C31.7325 92.3125 32.2565 92.8026 33.0142 92.758C33.8286 92.7134 34.3337 92.1661 34.2643 91.3325C34.2011 90.5815 33.6771 90.1805 32.9258 90.1105C32.1176 90.257 31.5999 90.7215 31.6694 91.5616Z" fill="#446381" fill-opacity="1.000000" fill-rule="nonzero"/>
		<path id="Vector" d="M40.8746 108.846C41.6954 108.885 42.2321 108.375 42.2573 107.548C42.2762 106.784 41.7838 106.269 41.0388 106.231C40.2117 106.186 39.7571 106.714 39.6308 107.523C39.7129 108.286 40.1233 108.808 40.8746 108.846Z" fill="#446381" fill-opacity="1.000000" fill-rule="nonzero"/>
		<path id="Vector" d="M34.1821 99.4276C34.1442 98.632 33.6454 98.2184 32.8752 98.2693C32.1617 98.3138 31.7513 98.7657 31.7577 99.4848C31.7577 100.28 32.2249 100.681 32.9951 100.732C33.7717 100.649 34.22 100.217 34.1821 99.4276Z" fill="#446381" fill-opacity="1.000000" fill-rule="nonzero"/>
		<path id="Vector" d="M25.0021 59.9386C25.7787 59.9258 26.2458 59.4422 26.2396 58.6658C26.2333 57.883 25.7534 57.412 24.9768 57.4185C24.2003 57.4248 23.7899 57.9149 23.7267 58.6912C23.7962 59.4677 24.2192 59.9449 25.0021 59.9386Z" fill="#446381" fill-opacity="1.000000" fill-rule="nonzero"/>
		<path id="Vector" d="M15.62 75.0723C15.639 75.7278 16.0494 76.1542 16.6934 76.1542C17.4131 76.1542 17.8488 75.696 17.8046 74.9705C17.7604 74.3277 17.3121 73.984 16.605 73.9268C16.0557 74.0795 15.6011 74.4041 15.62 75.0723Z" fill="#446381" fill-opacity="1.000000" fill-rule="nonzero"/>
		<path id="Vector" d="M16.5986 59.7986C17.3246 59.8686 17.7855 59.455 17.8361 58.7231C17.8802 58.0549 17.4762 57.6157 16.8322 57.5521C16.0998 57.4757 15.702 57.9212 15.5758 58.6085C15.6136 59.2895 15.9483 59.7413 16.5986 59.7986Z" fill="#446381" fill-opacity="1.000000" fill-rule="nonzero"/>
		<path id="Vector" d="M17.7792 83.0783C17.7729 82.48 17.3752 82.0728 16.7943 82.0346C16.1313 81.9901 15.6894 82.4037 15.6578 83.0592C15.6199 83.7274 16.0682 84.0838 16.7122 84.1984C17.3499 84.1029 17.7855 83.7529 17.7792 83.0783Z" fill="#446381" fill-opacity="1.000000" fill-rule="nonzero"/>
		<path id="Vector" d="M17.8361 67.0282C17.8298 66.2963 17.3878 65.8635 16.6617 65.889C16.0114 65.9144 15.601 66.3408 15.601 67.0027C15.601 67.741 16.062 68.1037 16.769 68.1737C17.4067 68.0464 17.8361 67.6964 17.8361 67.0282Z" fill="#446381" fill-opacity="1.000000" fill-rule="nonzero"/>
		<path id="Vector" d="M24.9011 108.566C25.5513 108.611 25.9807 108.203 26.0059 107.548C26.0249 106.956 25.6334 106.549 25.0652 106.511C24.4149 106.466 24.0487 106.88 23.9351 107.554C24.0172 108.108 24.3265 108.528 24.9011 108.566Z" fill="#446381" fill-opacity="1.000000" fill-rule="nonzero"/>
		<path id="Vector" d="M34.1064 107.58C34.1254 106.861 33.7213 106.415 33.0078 106.39C32.2944 106.364 31.8588 106.772 31.8272 107.497C31.7956 108.223 32.225 108.604 33.0078 108.725C33.6013 108.624 34.0938 108.324 34.1064 107.58Z" fill="#446381" fill-opacity="1.000000" fill-rule="nonzero"/>
		<path id="Vector" d="M26.0754 99.4975C26.0754 98.842 25.665 98.4092 25.0211 98.3901C24.3013 98.3774 23.8593 98.8293 23.8909 99.5547C23.9161 100.204 24.3644 100.548 25.0084 100.618C25.6461 100.503 26.0754 100.153 26.0754 99.4975Z" fill="#446381" fill-opacity="1.000000" fill-rule="nonzero"/>
		<path id="Vector" d="M26.1259 91.5043C26.1575 90.7852 25.7598 90.3333 25.0463 90.2951C24.3329 90.257 23.8909 90.6642 23.8467 91.3834C23.8025 92.1089 24.2318 92.4971 24.9137 92.6116C25.6271 92.5734 26.0881 92.2298 26.1259 91.5043Z" fill="#446381" fill-opacity="1.000000" fill-rule="nonzero"/>
		<path id="Vector" d="M17.7287 91.3134C17.6592 90.7343 17.2426 90.3588 16.6617 90.4097C16.024 90.467 15.6263 90.8997 15.7084 91.5616C15.7778 92.1407 16.1945 92.4462 16.769 92.4844C17.4004 92.3507 17.8108 91.9816 17.7287 91.3134Z" fill="#446381" fill-opacity="1.000000" fill-rule="nonzero"/>
		<path id="Vector" d="M16.6113 100.388C17.1479 100.439 17.5331 100.198 17.5962 99.6312C17.6593 99.0266 17.3878 98.6256 16.7502 98.5938C16.2009 98.5684 15.8852 98.8674 15.822 99.4211C15.8157 99.9684 16.0557 100.331 16.6113 100.388Z" fill="#446381" fill-opacity="1.000000" fill-rule="nonzero"/>
		<path id="Vector" d="M15.8915 107.408C15.8094 107.955 16.1125 108.318 16.6492 108.375C17.129 108.426 17.4636 108.134 17.5331 107.669C17.6152 107.115 17.2995 106.803 16.7881 106.689C16.2956 106.695 15.961 106.937 15.8915 107.408Z" fill="#446381" fill-opacity="1.000000" fill-rule="nonzero"/>
		<path id="Vector" d="M7.84161 74.9578C7.79742 75.4987 8.03735 75.8869 8.59924 75.9442C9.20538 76.0078 9.5968 75.7278 9.62207 75.0787C9.64099 74.525 9.3443 74.2068 8.80127 74.1495C8.24567 74.1495 7.89215 74.3977 7.84161 74.9578Z" fill="#446381" fill-opacity="1.000000" fill-rule="nonzero"/>
		<path id="Vector" d="M8.64972 67.9064C9.19269 67.9446 9.56525 67.6837 9.61572 67.1236C9.66626 66.5126 9.37579 66.1245 8.7381 66.1117C8.1825 66.099 7.8858 66.4108 7.82898 67.0409C7.85419 67.5054 8.08783 67.8746 8.64972 67.9064Z" fill="#446381" fill-opacity="1.000000" fill-rule="nonzero"/>
		<path id="Vector" d="M7.90472 91.3325C7.84161 91.8798 8.14465 92.2361 8.69391 92.2743C9.18005 92.3125 9.50208 92.007 9.5589 91.5424C9.62201 90.9951 9.30005 90.6833 8.78235 90.5815C8.28357 90.6069 7.95526 90.8679 7.90472 91.3325Z" fill="#446381" fill-opacity="1.000000" fill-rule="nonzero"/>
		<path id="Vector" d="M8.67499 59.5759C9.21796 59.6013 9.57782 59.334 9.61572 58.774C9.65991 58.1567 9.35052 57.7875 8.71289 57.7875C8.15729 57.7875 7.86682 58.1058 7.82898 58.6722C7.8479 59.2067 8.1131 59.544 8.67499 59.5759Z" fill="#446381" fill-opacity="1.000000" fill-rule="nonzero"/>
		<path id="Vector" d="M7.86688 83.1356C7.87952 83.6383 8.15729 83.9438 8.64972 83.9756C9.20532 84.0138 9.5589 83.7274 9.58417 83.1547C9.60944 82.5819 9.29376 82.2828 8.65607 82.2255C8.19519 82.2891 7.85425 82.55 7.86688 83.1356Z" fill="#446381" fill-opacity="1.000000" fill-rule="nonzero"/>
		<path id="Vector" d="M9.46417 99.5357C9.49573 99.103 9.21161 98.7975 8.80756 98.7593C8.32141 98.7147 7.99939 99.0202 7.99939 99.5166C8.00568 99.9366 8.30243 100.178 8.76965 100.248C9.12952 100.172 9.43262 99.9621 9.46417 99.5357Z" fill="#446381" fill-opacity="1.000000" fill-rule="nonzero"/>
		<path id="Vector" d="M0.789185 66.2709C0.359863 66.239 0.0568237 66.5254 0.0189209 66.9327C-0.0252686 67.4227 0.277771 67.7473 0.770264 67.7473C1.18695 67.741 1.42688 67.4418 1.48999 67.0218C1.4458 66.5954 1.20587 66.309 0.789185 66.2709Z" fill="#446381" fill-opacity="1.000000" fill-rule="nonzero"/>
		<path id="Vector" d="M0.669312 59.4104C1.09863 59.4677 1.40802 59.1877 1.46484 58.7867C1.53424 58.2967 1.23755 57.9658 0.751404 57.9403C0.328369 57.9212 0.0884399 58.2203 6.10352e-05 58.6467C0.0253296 59.0668 0.265198 59.3595 0.669312 59.4104Z" fill="#446381" fill-opacity="1.000000" fill-rule="nonzero"/>
		<path id="Vector" d="M8.75079 108.121C9.06647 108.114 9.27478 107.936 9.3064 107.618C9.33795 107.243 9.16748 106.982 8.776 106.956C8.39087 106.931 8.18256 107.134 8.14465 107.535C8.16992 107.917 8.35931 108.134 8.75079 108.121Z" fill="#446381" fill-opacity="1.000000" fill-rule="nonzero"/>
		<path id="Vector" d="M0.814392 83.6892C1.13641 83.6638 1.30688 83.4601 1.31952 83.1419C1.33215 82.7537 1.13013 82.5246 0.738647 82.531C0.347229 82.531 0.164124 82.7601 0.157776 83.1356C0.208313 83.5365 0.435608 83.7211 0.814392 83.6892Z" fill="#446381" fill-opacity="1.000000" fill-rule="nonzero"/>
		<path id="Vector" d="M0.126282 74.9578C0.0820923 75.3969 0.284119 75.6833 0.751343 75.6896C1.13647 75.6896 1.35114 75.4796 1.37006 75.0914C1.38904 74.7032 1.1933 74.4868 0.763977 74.4232C0.441956 74.4232 0.164185 74.5632 0.126282 74.9578Z" fill="#446381" fill-opacity="1.000000" fill-rule="nonzero"/>
		<path id="Vector" d="M31.5872 75.0023C31.562 75.8869 32.0986 76.447 32.9825 76.4533C33.797 76.4597 34.321 75.9315 34.3526 75.1169C34.3842 74.2195 33.816 73.7549 32.9763 73.6277C32.1618 73.7486 31.6062 74.1813 31.5872 75.0023Z" fill="#446381" fill-opacity="1.000000" fill-rule="nonzero"/>
		<path id="Vector" d="M34.3273 83.1992C34.3904 82.3782 33.8854 81.8118 33.0962 81.7418C32.2186 81.6591 31.644 82.2064 31.6125 83.0847C31.5809 83.9056 32.1302 84.3511 32.9194 84.5102C33.7149 84.4338 34.2642 84.0074 34.3273 83.1992Z" fill="#446381" fill-opacity="1.000000" fill-rule="nonzero"/>
		<path id="Vector" d="M25.0273 84.332C25.7408 84.3129 26.1701 83.8865 26.1954 83.1738C26.2206 82.391 25.7913 81.9073 25.0084 81.8882C24.2255 81.8691 23.8151 82.3337 23.752 83.1165C23.8278 83.8992 24.2444 84.3511 25.0273 84.332Z" fill="#446381" fill-opacity="1.000000" fill-rule="nonzero"/>
		<path id="Vector" d="M23.7331 66.9963C23.7267 67.7791 24.194 68.2628 24.9705 68.2692C25.7471 68.2819 26.227 67.8046 26.2333 67.0218C26.2459 66.239 25.7724 65.8126 24.9579 65.7236C24.2319 65.8063 23.7394 66.2072 23.7331 66.9963Z" fill="#446381" fill-opacity="1.000000" fill-rule="nonzero"/>
		<path id="Vector" d="M24.9957 76.3196C25.7723 76.3069 26.2395 75.8296 26.2332 75.0468C26.2269 74.264 25.7471 73.7931 24.9705 73.7995C24.1939 73.8058 23.7835 74.2959 23.7204 75.0723C23.7961 75.855 24.2192 76.326 24.9957 76.3196Z" fill="#446381" fill-opacity="1.000000" fill-rule="nonzero"/>
		<path id="Vector" d="M39.5866 99.4529C39.5614 100.274 40.0791 100.821 40.8746 100.859C41.7522 100.898 42.3141 100.344 42.3078 99.4594C42.3015 98.6447 41.7459 98.2056 40.9504 98.0847C40.1612 98.1992 39.6119 98.632 39.5866 99.4529Z" fill="#446381" fill-opacity="1.000000" fill-rule="nonzero"/>
		<path id="Vector" d="M50.3198 107.605C50.3451 106.714 49.8147 106.154 48.9308 106.148C48.1227 106.135 47.5923 106.657 47.5544 107.472C47.5165 108.369 48.0785 108.834 49.0002 108.974C49.7137 108.827 50.2946 108.433 50.3198 107.605Z" fill="#446381" fill-opacity="1.000000" fill-rule="nonzero"/>
		<path id="Vector" d="M31.5872 66.9009C31.5241 67.7855 32.0544 68.371 32.932 68.4028C33.8096 68.4282 34.3589 67.8682 34.3526 66.9772C34.3463 66.1562 33.8033 65.7172 33.0141 65.5835C32.1996 65.6663 31.644 66.0927 31.5872 66.9009Z" fill="#446381" fill-opacity="1.000000" fill-rule="nonzero"/>
		<path id="Vector" d="M41.0009 92.8598C41.8154 92.8344 42.3331 92.3189 42.3584 91.5043C42.3836 90.6133 41.8596 90.0533 40.9757 90.0342C40.0792 90.0151 39.6309 90.5879 39.5172 91.4597C39.6435 92.3253 40.1044 92.8853 41.0009 92.8598Z" fill="#446381" fill-opacity="1.000000" fill-rule="nonzero"/>
		<path id="Vector" d="M40.9062 84.5611C41.8027 84.5802 42.3521 84.0965 42.39 83.1865C42.4278 82.2128 41.9037 81.6527 40.9252 81.6527C40.016 81.6527 39.5677 82.2064 39.4857 83.0974C39.5551 83.9883 39.9971 84.542 40.9062 84.5611Z" fill="#446381" fill-opacity="1.000000" fill-rule="nonzero"/>
		<path id="Vector" d="M48.8867 100.942C49.859 100.955 50.402 100.408 50.3704 99.4276C50.3452 98.5175 49.8085 98.0211 48.9056 98.0338C47.9965 98.0465 47.5482 98.5811 47.4598 99.5548C47.5609 100.35 47.9712 100.929 48.8867 100.942Z" fill="#446381" fill-opacity="1.000000" fill-rule="nonzero"/>
		<path id="Vector" d="M57.227 108.993C58.1299 108.974 58.6476 108.458 58.6476 107.548C58.6476 106.562 58.0793 106.04 57.1133 106.084C56.2042 106.129 55.7812 106.702 55.7433 107.612C55.8506 108.49 56.3242 109.012 57.227 108.993Z" fill="#446381" fill-opacity="1.000000" fill-rule="nonzero"/>
		<path id="Vector" d="M40.9252 68.5046C41.8154 68.5237 42.371 68.0464 42.4279 67.1426C42.491 66.188 42.0237 65.5707 41.0452 65.5198C40.0854 65.4689 39.5488 65.9844 39.4478 66.9517C39.492 67.9127 39.9465 68.4918 40.9252 68.5046Z" fill="#446381" fill-opacity="1.000000" fill-rule="nonzero"/>
		<path id="Vector" d="M42.4025 75.2505C42.4909 74.2896 42.049 73.6659 41.064 73.5895C40.1801 73.5195 39.5867 73.9586 39.4919 74.8751C39.3909 75.8424 39.8644 76.4088 40.8431 76.5615C41.7017 76.5361 42.3204 76.1733 42.4025 75.2505Z" fill="#446381" fill-opacity="1.000000" fill-rule="nonzero"/>
		<path id="Vector" d="M40.9756 60.1741C41.8721 60.1677 42.4025 59.665 42.434 58.7612C42.4719 57.7939 41.9731 57.2148 41.0009 57.183C40.0285 57.1575 39.5234 57.6985 39.454 58.6658C39.5108 59.6268 40.0033 60.1804 40.9756 60.1741Z" fill="#446381" fill-opacity="1.000000" fill-rule="nonzero"/>
		<path id="Vector" d="M50.4209 91.4661C50.4335 90.5687 49.96 90.0087 49.0635 89.9514C48.1164 89.8878 47.504 90.3651 47.4535 91.3515C47.403 92.3188 47.9144 92.8598 48.874 92.9553C49.8337 92.9171 50.402 92.4525 50.4209 91.4661Z" fill="#446381" fill-opacity="1.000000" fill-rule="nonzero"/>
		<path id="Vector" d="M57.0882 101.006C58.0352 101.069 58.6476 100.586 58.7108 99.6121C58.7739 98.6575 58.2941 98.0402 57.3281 97.9765C56.381 97.9128 55.8128 98.4029 55.6865 99.3766C55.6865 100.318 56.1159 100.942 57.0882 101.006Z" fill="#446381" fill-opacity="1.000000" fill-rule="nonzero"/>
		<path id="Vector" d="M47.3651 83.0146C47.3209 84.0074 47.927 84.6629 48.9119 84.6884C49.8337 84.7138 50.4525 84.1156 50.503 83.1992C50.5535 82.2 49.9348 81.64 48.9561 81.5C48.0406 81.5955 47.4093 82.0982 47.3651 83.0146Z" fill="#446381" fill-opacity="1.000000" fill-rule="nonzero"/>
		<path id="Vector" d="M48.9309 76.6697C49.8464 76.6824 50.4714 76.0842 50.5345 75.1742C50.5977 74.175 49.9916 73.5068 49.0193 73.4495C48.0344 73.3922 47.4788 74.035 47.3083 75.0342C47.4156 76.0015 47.9396 76.657 48.9309 76.6697Z" fill="#446381" fill-opacity="1.000000" fill-rule="nonzero"/>
		<path id="Vector" d="M57.1702 93.1017C58.1551 93.0635 58.7423 92.4907 58.8496 91.517C58.9506 90.6388 58.0541 89.716 57.1765 89.786C56.1979 89.8624 55.6738 90.4733 55.5539 91.3643C55.5475 92.2807 56.3368 93.1335 57.1702 93.1017Z" fill="#446381" fill-opacity="1.000000" fill-rule="nonzero"/>
		<path id="Vector" d="M48.893 60.3332C49.8779 60.3014 50.4651 59.7286 50.5851 58.7549C50.6861 57.883 49.7896 56.9539 48.9183 57.0175C47.9396 57.0939 47.4156 57.6985 47.2894 58.5894C47.2767 59.5059 48.0596 60.3586 48.893 60.3332Z" fill="#446381" fill-opacity="1.000000" fill-rule="nonzero"/>
		<path id="Vector" d="M48.9688 65.3671C47.9901 65.348 47.3966 65.9717 47.2893 66.9454C47.1946 67.8237 48.0911 68.7465 48.9688 68.67C49.9473 68.5873 50.4714 67.9827 50.5977 67.009C50.4714 66.0417 49.9473 65.3862 48.9688 65.3671Z" fill="#446381" fill-opacity="1.000000" fill-rule="nonzero"/>
		<path id="Vector" d="M58.8806 83.1037C58.8869 82.1173 58.2745 81.4745 57.3085 81.4236C56.2604 81.3663 55.5848 81.99 55.5343 83.0401C55.4838 84.1028 56.1531 84.6629 57.1759 84.8284C58.1987 84.7011 58.8679 84.1665 58.8806 83.1037Z" fill="#446381" fill-opacity="1.000000" fill-rule="nonzero"/>
		<path id="Vector" d="M57.2518 76.7588C58.2936 76.7206 58.925 76.0587 58.8934 75.0087C58.8618 73.9586 58.2052 73.3286 57.1572 73.354C56.1091 73.3795 55.585 74.0731 55.4777 75.1105C55.6482 76.1287 56.1974 76.7969 57.2518 76.7588Z" fill="#446381" fill-opacity="1.000000" fill-rule="nonzero"/>
		<path id="Vector" d="M57.2078 68.7274C58.2621 68.721 58.8557 68.1037 58.9188 67.0472C58.9756 66.0353 58.1359 65.2144 57.1383 65.2844C56.0776 65.3608 55.5599 66.0035 55.4715 67.06C55.6041 68.0782 56.1407 68.7401 57.2078 68.7274Z" fill="#446381" fill-opacity="1.000000" fill-rule="nonzero"/>
		<path id="Vector" d="M58.919 58.7231C58.9064 57.6603 58.3382 57.0366 57.2901 56.9475C56.2925 56.8647 55.4528 57.6857 55.497 58.6912C55.5412 59.7667 56.1663 60.295 57.0123 60.4031C58.1425 60.4159 58.9254 59.6777 58.919 58.7231Z" fill="#446381" fill-opacity="1.000000" fill-rule="nonzero"/>
	</g>
</svg>
