<svg width="13.315613" height="9.263916" viewBox="0 0 13.3156 9.26392" fill="none" xmlns="http://www.w3.org/2000/svg" xmlns:xlink="http://www.w3.org/1999/xlink">
	<desc>
			Created with Pixso.
	</desc>
	<defs/>
	<path id="Vector" d="M13.1456 0.170044C13.1995 0.223877 13.2422 0.28772 13.2714 0.358032C13.3006 0.428345 13.3156 0.503784 13.3156 0.579956C13.3156 0.656006 13.3006 0.731445 13.2714 0.801758C13.2422 0.87207 13.1995 0.935913 13.1456 0.989746L5.0415 9.09387C4.98773 9.14771 4.92383 9.19055 4.85352 9.21973C4.7832 9.2489 4.70776 9.26392 4.63165 9.26392C4.55548 9.26392 4.4801 9.2489 4.40979 9.21973C4.33948 9.19055 4.27557 9.14771 4.2218 9.09387L0.169739 5.04175C0.0610352 4.93311 0 4.78564 0 4.63196C0 4.47827 0.0610352 4.33081 0.169739 4.22217C0.278442 4.1134 0.425903 4.05237 0.57959 4.05237C0.733337 4.05237 0.880737 4.1134 0.989441 4.22217L4.63165 7.86548L12.3259 0.170044C12.3796 0.116211 12.4435 0.0733643 12.5139 0.0441895C12.5842 0.0150146 12.6596 0 12.7357 0C12.8119 0 12.8873 0.0150146 12.9576 0.0441895C13.0279 0.0733643 13.0918 0.116211 13.1456 0.170044Z" fill="#486482" fill-opacity="1.000000" fill-rule="evenodd"/>
</svg>
