<svg width="556.783325" height="586.844360" viewBox="0 0 556.783 586.844" fill="none" xmlns="http://www.w3.org/2000/svg" xmlns:xlink="http://www.w3.org/1999/xlink">
	<desc>
			Created with Pixso.
	</desc>
	<defs>
		<linearGradient id="paint_linear_1_473_0" x1="278.391724" y1="580.645020" x2="278.391724" y2="15.856934" gradientUnits="userSpaceOnUse">
			<stop stop-color="#EB8382"/>
			<stop offset="1.000000" stop-color="#EB8382" stop-opacity="0.000000"/>
		</linearGradient>
		<linearGradient id="paint_linear_1_473_1" x1="278.391724" y1="580.645020" x2="278.391724" y2="15.856934" gradientUnits="userSpaceOnUse">
			<stop stop-color="#EB8382"/>
			<stop offset="1.000000" stop-color="#EB8382" stop-opacity="0.000000"/>
		</linearGradient>
		<linearGradient id="paint_linear_1_475_0" x1="340.602325" y1="358.816589" x2="197.857910" y2="605.153320" gradientUnits="userSpaceOnUse">
			<stop stop-color="#DFB8BF"/>
			<stop offset="0.961700" stop-color="#EB8382"/>
		</linearGradient>
		<linearGradient id="paint_linear_1_511_0" x1="133.739227" y1="396.565948" x2="202.660904" y2="461.781158" gradientUnits="userSpaceOnUse">
			<stop stop-color="#4499D9"/>
			<stop offset="1.000000" stop-color="#6E6CC1"/>
		</linearGradient>
		<linearGradient id="paint_linear_1_512_0" x1="107.272385" y1="387.880127" x2="143.543152" y2="440.840759" gradientUnits="userSpaceOnUse">
			<stop stop-color="#4499D9"/>
			<stop offset="1.000000" stop-color="#6E6CC1"/>
		</linearGradient>
		<linearGradient id="paint_linear_1_522_0" x1="198.001617" y1="191.512451" x2="198.001617" y2="230.337341" gradientUnits="userSpaceOnUse">
			<stop stop-color="#6379E3"/>
			<stop offset="1.000000" stop-color="#D574C9"/>
		</linearGradient>
		<linearGradient id="paint_linear_1_559_0" x1="174.516312" y1="220.856934" x2="174.516312" y2="245.097900" gradientUnits="userSpaceOnUse">
			<stop stop-color="#EB8382"/>
			<stop offset="1.000000" stop-color="#EB8382" stop-opacity="0.000000"/>
		</linearGradient>
		<linearGradient id="paint_linear_1_563_0" x1="167.757980" y1="194.343384" x2="167.757980" y2="232.304062" gradientUnits="userSpaceOnUse">
			<stop stop-color="#EB8382"/>
			<stop offset="1.000000" stop-color="#EB8382" stop-opacity="0.000000"/>
		</linearGradient>
		<linearGradient id="paint_linear_1_564_0" x1="139.555374" y1="413.838867" x2="161.128342" y2="428.045074" gradientUnits="userSpaceOnUse">
			<stop stop-color="#4499D9"/>
			<stop offset="1.000000" stop-color="#6E6CC1"/>
		</linearGradient>
		<linearGradient id="paint_linear_1_565_0" x1="106.024376" y1="399.279572" x2="119.333626" y2="415.763275" gradientUnits="userSpaceOnUse">
			<stop stop-color="#4499D9"/>
			<stop offset="1.000000" stop-color="#6E6CC1"/>
		</linearGradient>
	</defs>
	<path id="Vector" d="M320.61 580.595C396.11 579.258 512.909 550.664 546.528 477.164C558.272 451.495 557.474 413.757 555.88 338.281C555.413 316.099 554.636 283.766 549.191 243.645C537.895 160.304 530.195 103.581 501.068 70.5307C428.095 -12.2488 164.477 -9.84668 51.897 139.168C-9.50653 220.456 -18.9562 336.111 37.1974 431.677C99.0287 536.929 219.541 582.377 320.61 580.595Z" fill="url(#paint_linear_1_473_0)" fill-opacity="0.170000" fill-rule="nonzero"/>
	<path id="Vector" d="M320.61 580.595C396.11 579.258 512.909 550.664 546.528 477.164C558.272 451.495 557.474 413.757 555.88 338.281C555.413 316.099 554.636 283.766 549.191 243.645C537.895 160.304 530.195 103.581 501.068 70.5307C428.095 -12.2488 164.477 -9.84668 51.897 139.168C-9.50653 220.456 -18.9562 336.111 37.1974 431.677C99.0287 536.929 219.541 582.377 320.61 580.595Z" fill="url(#paint_linear_1_473_1)" fill-opacity="0" fill-rule="nonzero"/>
	<g opacity="0.500000">
		<path id="Vector" d="M193.794 574.212C236.944 551.833 308.762 511.786 361.96 477.628C415.159 443.47 440.576 416.673 409.839 398.711C374.669 378.393 308.466 401.95 249.357 440.819C184.632 483.517 155.964 507.074 125.523 530.042C106.017 544.766 116.361 557.133 135.276 568.912C154.487 580.985 169.855 586.58 193.794 574.212Z" fill="url(#paint_linear_1_475_0)" fill-opacity="1.000000" fill-rule="nonzero"/>
	</g>
	<path id="Vector" d="M232.216 3.73315L514.641 166.129L514.641 388.489L232.216 226.094L232.216 3.73315Z" fill="#826F8C" fill-opacity="0.900000" fill-rule="nonzero"/>
	<path id="Vector" d="M520.964 162.395L514.641 166.129L514.641 388.489L520.964 384.756L520.964 162.395Z" fill="#446381" fill-opacity="1.000000" fill-rule="nonzero"/>
	<path id="Vector" d="M508.786 170.095L508.786 302.158L237.602 146.063L237.602 14.2329L508.786 170.095Z" fill="#506898" fill-opacity="1.000000" fill-rule="nonzero"/>
	<path id="Vector" d="M341.345 205.794L408.321 244.293L429.632 332.257L293.572 253.86L341.345 205.794Z" fill="#786D8A" fill-opacity="1.000000" fill-rule="nonzero"/>
	<path id="Vector" d="M260.552 68.8314C260.552 62.9982 264.299 60.1983 268.748 62.7649C269.685 63.4649 270.856 64.1649 271.793 65.0981C273.666 62.2982 276.945 61.5983 280.692 63.6982C285.141 66.2648 288.654 71.8647 290.293 77.6978C291.698 76.7645 293.572 76.7645 295.679 78.1645C298.724 80.0311 301.534 83.7643 302.939 87.7309C303.876 87.7309 304.812 87.9642 305.983 88.4309C309.028 90.0641 311.604 94.2641 312.306 98.2306L260.552 68.8314Z" fill="#FFFFFF" fill-opacity="1.000000" fill-rule="nonzero"/>
	<path id="Vector" d="M491.691 202.061C491.457 194.828 487.241 186.428 481.855 183.395C480.684 182.695 479.513 182.228 478.342 182.228C476.001 176.395 472.254 171.029 467.804 168.462C462.652 165.429 458.203 167.062 456.095 171.962C454.456 168.929 452.114 166.362 449.538 164.962C445.791 162.862 442.747 163.562 440.873 166.596C439.702 165.196 438.531 164.029 437.126 163.329C433.613 161.229 430.569 162.629 429.632 166.362L491.691 202.061Z" fill="#FFFFFF" fill-opacity="1.000000" fill-rule="nonzero"/>
	<path id="Vector" d="M314.414 112.464C314.882 108.964 317.224 107.33 320.269 109.197C321.674 109.897 322.845 111.297 324.015 112.93C325.186 110.597 327.762 109.897 330.338 111.53C333.617 113.397 336.427 117.83 337.364 122.263C338.066 122.03 339.237 122.263 340.174 122.73C342.282 123.897 344.155 126.93 344.858 129.963L314.414 112.464Z" fill="#FFFFFF" fill-opacity="1.000000" fill-rule="nonzero"/>
	<path id="Vector" d="M410.898 185.728C411.366 182.462 413.474 181.062 416.284 182.695C417.455 183.395 418.626 184.795 419.562 186.195C420.733 184.095 422.841 183.395 425.417 184.795C428.461 186.428 431.037 190.628 431.74 194.595C432.443 194.361 433.379 194.595 434.316 195.061C436.424 196.228 438.063 199.028 438.766 201.595L410.898 185.728Z" fill="#FFFFFF" fill-opacity="1.000000" fill-rule="nonzero"/>
	<path id="Vector" d="M248.609 97.2975C249.077 94.0309 251.185 92.631 253.995 94.2642C255.166 94.9642 256.337 96.3642 257.273 97.7641C258.444 95.6642 260.552 94.9642 263.128 96.3642C266.172 97.9975 268.748 102.197 269.451 106.164C270.153 105.931 271.09 106.164 272.027 106.631C274.134 107.797 275.774 110.597 276.476 113.164L248.609 97.2975Z" fill="#FFFFFF" fill-opacity="1.000000" fill-rule="nonzero"/>
	<path id="Vector" d="M392.631 161.929C393.1 158.662 395.207 157.262 398.018 158.896C399.189 159.596 400.359 160.996 401.296 162.396C402.467 160.296 404.575 159.596 407.151 160.996C410.195 162.629 412.771 166.829 413.474 170.795C414.176 170.562 415.113 170.795 416.05 171.262C418.157 172.429 419.797 175.229 420.499 177.795L392.631 161.929Z" fill="#FFFFFF" fill-opacity="1.000000" fill-rule="nonzero"/>
	<path id="Vector" d="M430.569 223.527C431.506 219.794 434.784 222.594 437.595 224.227C435.955 219.094 437.126 213.961 441.107 216.761C441.107 214.427 441.81 212.094 443.683 212.794C444.152 212.794 444.386 213.027 444.854 213.494C444.386 211.394 444.62 209.528 445.557 208.361C448.133 205.794 452.114 209.994 453.285 214.894C456.329 214.427 460.545 215.594 462.418 221.194C467.57 220.261 472.722 231.927 470.38 235.66C473.659 238.227 475.532 244.993 472.722 245.927C478.108 253.393 477.874 263.659 472.02 264.126C472.722 271.359 467.336 274.159 462.652 266.926C461.95 267.159 461.481 267.393 460.779 267.393C460.076 271.126 459.374 275.792 459.374 279.526C459.14 286.292 459.374 294.692 459.374 302.625C459.374 309.392 460.31 318.725 460.545 321.291L449.304 314.758C450.006 313.125 451.646 307.992 452.114 302.858C452.582 296.792 452.817 280.226 450.943 275.792C449.07 271.593 443.683 263.426 442.044 257.36C441.342 255.026 440.873 252.693 440.639 250.826C436.19 247.793 431.74 240.327 434.784 234.96C432.208 231.927 429.867 227.027 430.569 223.527ZM444.152 259.226C446.962 264.359 452.348 272.993 452.348 272.993C452.348 272.993 452.348 266.926 452.817 261.793C452.582 261.326 452.582 260.86 452.348 260.626C450.475 260.86 448.367 258.993 446.494 255.96C445.791 255.026 445.089 253.86 444.62 252.693C443.918 252.926 442.981 252.926 442.278 252.46C442.513 254.326 442.981 256.893 444.152 259.226Z" fill="#EFC8C5" fill-opacity="1.000000" fill-rule="nonzero"/>
	<path id="Vector" d="M322.845 150.962C321.908 146.062 318.629 145.129 315.819 143.729C317.458 140.463 316.288 133.929 312.306 132.296C312.306 129.963 311.604 126.93 309.73 125.296C309.262 125.063 309.028 124.83 308.559 124.83C309.028 123.43 308.794 121.096 307.857 118.763C305.281 113.397 301.3 112.93 300.129 116.43C297.084 112.463 292.869 108.73 290.996 112.23C285.844 105.23 280.692 111.063 283.034 117.596C279.755 116.197 277.881 121.096 280.692 125.296C275.305 126.463 275.54 136.963 281.394 144.429C280.692 150.962 286.078 159.829 290.762 158.195C291.464 159.129 291.932 160.062 292.635 160.995C293.338 165.429 294.04 171.028 294.04 174.762C294.274 181.761 294.04 189.928 294.04 197.861C294.04 204.628 293.103 212.794 292.869 215.127L304.11 221.66C303.407 219.327 301.768 212.094 301.3 206.494C300.831 199.728 300.597 182.928 302.471 181.061C304.344 179.195 309.73 176.862 311.37 172.895C312.072 171.262 312.541 169.628 312.775 168.228C317.224 170.328 321.674 167.762 318.629 159.362C321.205 157.729 323.781 155.629 322.845 150.962ZM309.262 171.262C306.452 173.362 301.066 175.462 301.066 175.462C301.066 175.462 301.066 169.395 300.597 163.795C300.831 163.562 300.831 163.329 301.066 163.095C302.939 165.662 305.047 166.129 306.92 165.195C307.623 164.962 308.325 164.729 308.794 164.029C309.496 164.962 310.433 165.895 311.135 166.595C310.901 168.462 310.433 170.328 309.262 171.262Z" fill="#EFC8C5" fill-opacity="1.000000" fill-rule="nonzero"/>
	<path id="Vector" d="M436.189 300.058C435.955 298.892 436.189 297.725 436.892 297.025C438.063 295.859 439.702 296.559 441.107 297.958C441.341 296.325 441.81 294.925 442.98 295.159C443.917 295.392 444.854 296.325 445.791 297.492C445.557 296.092 445.791 294.925 446.493 294.225C447.43 292.825 449.303 293.292 450.943 294.459C452.582 295.625 453.753 297.958 454.455 300.292C454.924 300.525 455.392 300.992 456.095 301.458C457.266 302.158 458.202 302.858 459.139 304.025C460.544 305.892 461.013 307.992 460.778 309.858C462.652 311.025 464.76 312.891 465.696 315.925C466.633 319.425 465.228 320.591 463.354 320.825C463.823 322.225 464.057 323.625 463.589 324.791C462.886 327.591 460.31 326.658 458.202 325.258C456.563 327.358 453.05 325.491 450.709 322.225C448.835 323.158 444.854 320.825 443.215 316.858C441.81 318.258 439.702 317.791 437.594 315.225C435.252 312.425 435.252 309.392 436.189 307.525C435.252 306.592 434.55 304.958 434.316 303.558C433.379 300.758 434.55 299.592 436.189 300.058Z" fill="#F5E2E1" fill-opacity="1.000000" fill-rule="nonzero"/>
	<path id="Vector" d="M286.078 203.928C285.844 202.761 286.078 201.594 286.781 200.895C287.952 199.728 289.591 200.428 290.996 201.828C291.23 200.194 291.698 198.795 292.869 199.028C293.806 199.261 294.743 200.195 295.68 201.361C295.445 199.961 295.68 198.795 296.382 198.095C297.319 196.695 299.192 197.161 300.832 198.328C302.471 199.495 303.642 201.828 304.344 204.161C304.813 204.394 305.281 204.861 305.984 205.328C307.154 206.028 308.091 206.728 309.028 207.894C310.433 209.761 310.901 211.861 310.667 213.727C312.541 214.894 314.648 216.761 315.585 219.794C316.522 223.294 315.117 224.461 313.243 224.694C313.712 226.094 313.946 227.494 313.477 228.66C312.775 231.46 310.199 230.527 308.091 229.127C306.452 231.227 302.939 229.36 300.597 226.094C298.724 227.027 294.743 224.694 293.103 220.727C291.698 222.127 289.591 221.661 287.483 219.094C285.141 216.294 285.141 213.261 286.078 211.394C285.141 210.461 284.439 208.828 284.205 207.428C283.268 204.628 284.673 203.228 286.078 203.928Z" fill="#F5E2E1" fill-opacity="1.000000" fill-rule="nonzero"/>
	<path id="Vector" d="M259.147 202.294C258.912 201.594 259.147 200.661 259.615 200.428C260.318 199.728 261.254 200.194 262.191 201.128C262.191 200.194 262.659 199.261 263.362 199.494C263.83 199.494 264.533 200.194 265.001 200.894C264.767 199.961 265.001 199.261 265.47 198.794C266.172 197.861 267.109 198.094 268.28 199.028C269.217 199.728 270.153 201.128 270.622 202.528C270.856 202.761 271.324 202.994 271.793 203.228C272.495 203.694 272.964 203.928 273.666 204.861C274.603 206.027 274.837 207.427 274.603 208.594C275.774 209.294 277.179 210.461 277.647 212.327C278.35 214.661 277.413 215.361 276.242 215.361C276.476 216.061 276.71 216.994 276.476 217.694C276.008 219.327 274.369 218.86 272.963 217.927C272.027 219.094 269.685 217.927 268.28 216.061C267.109 216.527 264.533 215.127 263.596 212.561C262.659 213.494 261.254 213.261 260.083 211.627C258.678 209.994 258.678 208.127 259.147 206.727C258.678 206.027 258.21 205.094 257.976 204.394C257.507 202.761 258.21 201.828 259.147 202.294Z" fill="#F5E2E1" fill-opacity="1.000000" fill-rule="nonzero"/>
	<path id="Vector" d="M425.417 273.226C425.183 272.526 425.417 271.592 425.886 271.359C426.588 270.659 427.525 271.126 428.462 272.059C428.462 271.126 428.93 270.193 429.633 270.426C430.101 270.426 430.803 271.126 431.272 271.826C431.038 270.892 431.272 270.193 431.74 269.726C432.443 268.793 433.379 269.026 434.55 269.959C435.487 270.659 436.424 272.059 436.892 273.459C437.126 273.692 437.595 273.926 438.063 274.159C438.766 274.626 439.234 274.859 439.937 275.792C440.873 276.959 441.107 278.359 440.873 279.526C442.044 280.226 443.449 281.392 443.918 283.259C444.62 285.592 443.684 286.292 442.513 286.292C442.747 286.992 442.981 287.925 442.747 288.625C442.278 290.259 440.639 289.792 439.234 288.859C438.297 290.025 435.955 288.859 434.55 286.992C433.379 287.459 430.803 286.059 429.867 283.492C428.93 284.425 427.525 284.192 426.354 282.559C424.949 280.926 424.949 279.059 425.417 277.659C424.949 276.959 424.48 276.026 424.246 275.326C423.544 273.459 424.246 272.759 425.417 273.226Z" fill="#F5E2E1" fill-opacity="1.000000" fill-rule="nonzero"/>
	<path id="Vector" d="M249.545 172.429C249.311 171.495 249.545 170.562 250.014 170.095C250.95 169.162 252.121 169.862 253.292 171.029C253.526 169.862 253.761 168.695 254.932 168.695C255.634 168.695 256.571 169.629 257.039 170.562C256.805 169.395 257.039 168.462 257.508 167.762C258.21 166.829 259.615 166.829 261.02 167.995C262.191 168.929 263.362 170.795 263.831 172.662C264.299 172.895 264.533 173.129 265.236 173.595C266.172 174.062 266.875 174.529 267.577 175.695C268.514 177.329 268.983 178.962 268.983 180.362C270.622 181.295 272.261 182.695 272.964 185.262C273.666 188.062 272.495 188.995 271.09 189.228C271.559 190.162 271.559 191.328 271.324 192.261C270.622 194.361 268.748 193.895 266.875 192.495C265.47 194.128 262.66 192.728 261.02 190.162C259.615 190.862 256.337 188.995 255.166 185.728C253.995 186.895 252.356 186.428 250.482 184.562C248.609 182.228 248.609 179.895 249.311 178.262C248.609 177.562 247.906 176.162 247.672 175.229C247.438 172.895 248.374 171.962 249.545 172.429Z" fill="#F5E2E1" fill-opacity="1.000000" fill-rule="nonzero"/>
	<path id="Vector" d="M472.956 302.158C472.722 301.225 472.956 300.292 473.425 299.825C474.361 298.892 475.532 299.592 476.703 300.758C476.937 299.592 477.172 298.425 478.342 298.425C479.045 298.425 479.982 299.358 480.45 300.292C480.216 299.125 480.45 298.192 480.918 297.492C481.621 296.559 483.026 296.559 484.431 297.725C485.602 298.659 486.773 300.525 487.241 302.392C487.71 302.625 487.944 302.858 488.646 303.325C489.583 303.792 490.286 304.258 490.988 305.425C491.925 307.058 492.393 308.692 492.393 310.092C494.033 311.025 495.672 312.425 496.375 314.991C497.077 317.791 495.906 318.725 494.501 318.958C494.969 319.891 494.969 321.058 494.735 321.991C494.033 324.091 492.159 323.625 490.286 322.225C488.881 323.858 486.07 322.458 484.431 319.891C483.026 320.591 479.748 318.725 478.577 315.458C477.406 316.625 475.766 316.158 473.893 314.291C472.02 311.958 472.02 309.625 472.722 307.992C472.02 307.292 471.317 305.892 471.083 304.958C470.849 302.625 471.785 301.692 472.956 302.158Z" fill="#F5E2E1" fill-opacity="1.000000" fill-rule="nonzero"/>
	<path id="Vector" d="M370.618 237.527L375.536 225.161L377.644 226.327L375.302 240.094C373.897 239.394 372.257 238.46 370.618 237.527Z" fill="#FFFFFF" fill-opacity="1.000000" fill-rule="nonzero"/>
	<path id="Vector" d="M364.295 252.927L369.447 240.094C371.087 241.027 372.96 241.96 374.833 242.894L372.257 257.36C369.681 255.96 367.105 254.327 364.295 252.927Z" fill="#FFFFFF" fill-opacity="1.000000" fill-rule="nonzero"/>
	<path id="Vector" d="M357.27 269.96L363.358 255.26C366.169 256.893 368.979 258.527 371.789 260.16L368.276 276.726C364.764 274.393 361.017 272.06 357.27 269.96Z" fill="#FFFFFF" fill-opacity="1.000000" fill-rule="nonzero"/>
	<path id="Vector" d="M367.808 280.692L364.764 294.925L350.244 286.525L355.865 273.226C359.846 275.559 363.827 278.126 367.808 280.692Z" fill="#FFFFFF" fill-opacity="1.000000" fill-rule="nonzero"/>
	<path id="Vector" d="M520.964 162.396L514.641 166.129L232.216 3.73322L238.539 0L520.964 162.396Z" fill="#826F8C" fill-opacity="1.000000" fill-rule="nonzero"/>
	<path id="Vector" d="M230.103 240.385C236.186 240.385 240.916 243.415 240.916 246.781C240.916 250.485 236.186 253.178 230.103 253.178C224.021 253.178 219.29 250.148 219.29 246.781C219.29 243.415 224.359 240.385 230.103 240.385Z" fill="#002F68" fill-opacity="1.000000" fill-rule="nonzero"/>
	<path id="Vector" d="M230.441 240.385C234.834 240.385 238.551 242.405 238.551 244.761C238.551 247.118 234.834 249.138 230.441 249.138C226.048 249.138 222.331 247.118 222.331 244.761C222.331 242.405 226.048 240.385 230.441 240.385Z" fill="#DF8083" fill-opacity="1.000000" fill-rule="nonzero"/>
	<path id="Vector" d="M230.103 251.495C230.103 251.495 228.076 257.219 228.076 264.289C227.738 271.359 228.414 282.806 224.021 287.857C219.628 293.243 215.573 286.51 215.573 279.103C215.235 271.696 219.628 247.118 219.628 247.118L230.103 251.495Z" fill="#002F68" fill-opacity="1.000000" fill-rule="nonzero"/>
	<path id="Vector" d="M229.09 264.289C229.09 264.289 227.738 262.606 225.711 263.279C224.359 263.616 221.656 265.299 220.642 265.299C219.628 265.299 217.263 263.279 217.263 263.279L218.277 257.219C218.277 257.219 212.194 259.576 211.18 264.963C209.829 270.35 207.463 271.36 202.057 273.38C196.65 275.4 190.906 279.103 190.906 279.103L199.353 292.57C199.353 292.57 212.87 280.45 214.222 279.103C215.573 277.756 220.304 273.043 221.318 272.033C221.994 271.023 224.697 268.329 225.711 267.656C226.387 266.309 229.09 264.289 229.09 264.289Z" fill="#FFC5B3" fill-opacity="1.000000" fill-rule="nonzero"/>
	<path id="Vector" d="M227.738 473.367C227.738 473.367 211.18 504.342 207.463 517.472C205.436 524.542 200.705 550.803 200.705 550.803C200.705 550.803 203.746 546.763 208.477 545.417C211.518 544.743 215.911 544.07 218.614 547.773C223.345 553.834 224.021 558.21 216.587 564.944C213.546 567.974 207.801 572.688 203.07 577.065C197.326 582.115 190.567 587.165 184.823 586.828C178.74 586.492 174.685 583.461 175.023 576.391C175.361 572.351 178.402 565.954 178.402 563.597C179.078 557.2 180.43 517.472 183.133 492.894C184.485 480.437 187.864 473.367 187.864 473.367L227.738 473.367Z" fill="#FFC5B3" fill-opacity="1.000000" fill-rule="nonzero"/>
	<path id="Vector" d="M158.466 434.312C158.466 434.312 141.908 465.287 138.191 478.417C136.163 485.488 129.067 515.115 129.067 515.115C129.067 515.115 138.528 507.372 147.652 510.739C156.1 513.769 151.707 519.829 144.611 526.226C141.57 529.256 137.177 532.286 132.446 536.326C126.701 541.377 125.012 543.06 121.633 544.07C115.888 545.753 108.792 545.08 109.13 538.01C109.468 533.97 109.806 526.899 110.144 524.543C110.819 518.146 112.171 478.417 114.874 453.84C116.226 441.383 119.605 434.312 119.605 434.312L158.466 434.312Z" fill="#FFC5B3" fill-opacity="1.000000" fill-rule="nonzero"/>
	<path id="Vector" d="M188.202 398.961C188.202 398.961 212.87 433.302 220.304 447.78C222.669 452.493 229.09 462.93 229.09 467.98C229.09 473.704 227.062 480.438 227.062 480.438C227.062 480.438 212.194 492.558 200.029 490.538C185.836 488.181 181.443 480.101 181.443 480.101C181.443 480.101 161.506 455.86 153.059 447.78C144.611 439.699 130.418 422.865 125.687 410.745C121.97 401.654 119.267 378.423 125.687 371.016C132.108 363.61 188.202 398.961 188.202 398.961Z" fill="url(#paint_linear_1_511_0)" fill-opacity="1.000000" fill-rule="nonzero"/>
	<path id="Vector" d="M157.452 382.464L155.762 431.956C155.762 431.956 154.072 449.8 153.059 456.533C147.314 462.257 140.894 464.95 134.811 464.277C121.632 462.257 112.171 453.503 112.171 453.503C112.171 453.503 98.6541 401.991 101.357 390.544C104.061 379.097 113.185 366.303 113.185 366.303L157.452 382.464Z" fill="url(#paint_linear_1_512_0)" fill-opacity="1.000000" fill-rule="nonzero"/>
	<path id="Vector" d="M184.485 271.359C184.485 271.359 196.988 274.726 201.043 282.47C205.773 291.223 210.504 306.037 206.111 320.851C201.718 335.665 191.243 360.579 189.215 365.293C187.526 370.006 195.298 378.087 193.608 381.454C191.581 384.82 187.526 389.197 189.891 390.544C192.257 391.891 193.608 399.298 193.608 399.298C193.608 399.298 161.506 413.775 140.893 405.695C120.619 397.614 103.723 381.117 103.723 381.117C103.723 381.117 106.088 371.353 110.143 365.966C114.198 360.579 110.819 351.152 114.536 348.459C118.253 345.766 125.349 344.419 124.674 340.042C123.998 335.665 120.956 293.243 131.094 279.776C141.231 266.309 159.817 264.626 159.817 264.626L184.485 271.359Z" fill="#446381" fill-opacity="1.000000" fill-rule="nonzero"/>
	<path id="Vector" d="M167.927 205.37C156.438 207.053 147.652 213.113 147.652 220.183C147.652 220.52 147.652 220.52 147.652 220.857C147.652 222.204 148.328 223.55 149.004 224.897C150.017 223.214 151.369 221.53 153.397 220.183C157.114 217.49 162.182 215.47 167.927 214.46L167.927 205.37Z" fill="#0E58C4" fill-opacity="1.000000" fill-rule="nonzero"/>
	<path id="Vector" d="M167.927 205.707C156.438 207.39 147.99 213.45 147.99 220.52C147.99 220.857 147.99 220.857 147.99 221.194C147.99 222.541 148.666 223.887 149.341 225.234C150.355 223.551 151.707 221.867 153.734 220.52C157.114 217.827 162.182 215.807 167.927 215.134L167.927 205.707Z" fill="#37A0F5" fill-opacity="1.000000" fill-rule="nonzero"/>
	<path id="Vector" d="M186.174 210.42L216.587 227.928C218.276 228.938 219.966 227.928 219.966 225.571L219.966 213.45C219.966 211.094 218.614 208.4 216.587 207.39L186.174 189.883C184.485 188.873 182.795 189.883 182.795 192.239L182.795 204.36C183.133 206.717 184.485 209.41 186.174 210.42Z" fill="#786D8A" fill-opacity="1.000000" fill-rule="nonzero"/>
	<path id="Vector" d="M215.235 229.947L218.614 227.927L217.6 225.571L213.545 227.254C213.545 227.591 215.235 229.947 215.235 229.947Z" fill="#7A6D8B" fill-opacity="1.000000" fill-rule="nonzero"/>
	<path id="Vector" d="M180.768 191.566L184.147 189.546L185.499 190.893L182.457 193.923L180.768 191.566Z" fill="#806E8B" fill-opacity="1.000000" fill-rule="nonzero"/>
	<path id="Vector" d="M182.795 212.44L213.208 229.947C214.897 230.957 216.587 229.947 216.587 227.591L216.587 215.47C216.587 213.113 215.235 210.42 213.208 209.41L182.795 191.902C181.106 190.892 179.416 191.902 179.416 194.259L179.416 206.38C179.754 208.736 181.106 211.43 182.795 212.44Z" fill="url(#paint_linear_1_522_0)" fill-opacity="1.000000" fill-rule="nonzero"/>
	<path id="Vector" d="M180.768 191.566L168.941 198.299L203.408 236.681L215.235 229.947L180.768 191.566Z" fill="#A676D4" fill-opacity="1.000000" fill-rule="nonzero"/>
	<path id="Vector" d="M213.208 228.938L208.477 231.632C207.463 231.968 206.787 231.632 206.787 230.285L206.787 224.225C206.787 223.215 207.463 221.531 208.477 221.195L213.208 218.501C214.221 218.164 214.897 218.501 214.897 219.848L214.897 225.908C214.897 227.255 214.221 228.602 213.208 228.938Z" fill="#41A0E2" fill-opacity="1.000000" fill-rule="nonzero"/>
	<path id="Vector" d="M214.221 218.502L213.883 218.164L213.545 218.502L214.221 218.84L214.221 218.502Z" fill="#41A0E2" fill-opacity="1.000000" fill-rule="nonzero"/>
	<path id="Vector" d="M207.125 231.632L207.801 231.632L207.125 231.294L207.125 231.632Z" fill="#41A0E2" fill-opacity="1.000000" fill-rule="nonzero"/>
	<path id="Vector" d="M212.87 228.938L208.139 231.632C207.125 231.968 206.449 231.632 206.449 230.285L206.449 224.225C206.449 223.215 207.125 221.531 208.139 221.195L212.87 218.501C213.883 218.164 214.559 218.501 214.559 219.848L214.559 225.908C214.559 226.918 213.883 228.265 212.87 228.938Z" fill="#FFFFFF" fill-opacity="1.000000" fill-rule="nonzero"/>
	<path id="Vector" d="M212.532 223.888C212.532 225.234 211.518 226.918 210.504 227.591C209.491 228.265 208.477 227.591 208.477 226.244C208.477 224.898 209.491 223.214 210.504 222.541C211.856 221.531 212.532 222.204 212.532 223.888Z" fill="#786D8A" fill-opacity="1.000000" fill-rule="nonzero"/>
	<path id="Vector" d="M171.306 219.174L201.719 236.681C203.408 237.691 205.098 236.681 205.098 234.324L205.098 222.204C205.098 219.847 203.746 217.154 201.719 216.144L171.306 198.636C169.617 197.626 167.927 198.636 167.927 200.993L167.927 213.113C167.927 215.47 169.279 218.164 171.306 219.174Z" fill="#002F68" fill-opacity="1.000000" fill-rule="nonzero"/>
	<path id="Vector" d="M198.339 239.711L203.746 236.681C203.746 236.681 201.718 233.314 201.381 233.314L196.988 234.324L198.339 239.711Z" fill="#002F68" fill-opacity="1.000000" fill-rule="nonzero"/>
	<path id="Vector" d="M163.872 200.993L168.941 198.3L170.968 200.32L168.603 203.687L163.872 200.993Z" fill="#002F68" fill-opacity="1.000000" fill-rule="nonzero"/>
	<path id="Vector" d="M167.927 213.113L167.927 202.676C166.913 202.34 165.899 202.34 165.224 202.34C164.21 202.34 163.534 203.35 163.534 205.033L163.534 216.48C163.534 218.5 164.21 220.52 165.9 221.867C166.237 221.867 166.913 222.541 167.589 222.541C169.954 223.551 176.375 225.907 181.444 228.937C184.823 230.958 191.919 236.344 195.636 239.038C196.988 240.048 198.339 239.038 198.339 237.018L198.339 235.671L170.968 219.847C169.279 218.164 167.927 215.47 167.927 213.113Z" fill="#002F68" fill-opacity="1.000000" fill-rule="nonzero"/>
	<path id="Vector" d="M196.312 220.184C194.285 217.49 189.216 212.103 181.782 208.063C177.051 205.37 171.307 203.686 167.927 202.676L167.927 213.113C167.927 215.47 169.279 218.164 171.307 219.174L198.678 234.998L198.678 225.234C198.678 222.877 197.326 221.53 196.312 220.184Z" fill="#002F68" fill-opacity="1.000000" fill-rule="nonzero"/>
	<path id="Vector" d="M176.375 208.737C176.375 208.064 176.375 207.39 176.713 207.054C174.347 206.044 172.658 207.727 172.658 210.757C172.658 214.124 174.685 218.164 177.388 219.511C179.416 220.858 181.105 219.847 181.781 217.827C181.443 217.827 181.443 217.491 181.106 217.491C178.402 216.144 176.375 212.104 176.375 208.737Z" fill="#002F68" fill-opacity="1.000000" fill-rule="nonzero"/>
	<path id="Vector" d="M177.05 207.053C176.712 207.053 176.712 206.717 176.375 206.717C176.375 207.39 176.037 207.727 176.037 208.4C176.037 211.767 178.064 215.807 180.767 217.154C181.105 217.154 181.105 217.49 181.443 217.49C181.443 216.817 181.781 216.48 181.781 215.807C181.781 212.44 179.754 208.4 177.05 207.053Z" fill="#41A0E2" fill-opacity="1.000000" fill-rule="nonzero"/>
	<path id="Vector" d="M190.567 216.818C190.567 216.144 190.567 215.471 190.905 215.134C188.54 214.124 186.85 215.807 186.85 218.838C186.85 222.204 188.878 226.245 191.581 227.591C193.608 228.938 195.298 227.928 195.974 225.908C195.636 225.908 195.636 225.571 195.298 225.571C192.595 224.224 190.567 220.184 190.567 216.818Z" fill="#002F68" fill-opacity="1.000000" fill-rule="nonzero"/>
	<path id="Vector" d="M191.243 215.134C190.905 215.134 190.905 214.797 190.567 214.797C190.567 215.47 190.229 215.807 190.229 216.481C190.229 219.847 192.257 223.887 194.96 225.234C195.298 225.234 195.298 225.571 195.636 225.571C195.636 224.898 195.974 224.561 195.974 223.887C195.974 220.857 193.946 216.817 191.243 215.134Z" fill="#41A0E2" fill-opacity="1.000000" fill-rule="nonzero"/>
	<path id="Vector" d="M193.271 210.083L182.12 203.35L183.471 202.676L194.622 209.073L193.271 210.083Z" fill="#002F68" fill-opacity="1.000000" fill-rule="nonzero"/>
	<path id="Vector" d="M184.485 208.4C178.064 203.686 165.224 205.369 159.817 216.817C156.776 223.214 161.169 240.384 161.844 252.505C162.52 262.268 159.141 267.992 159.141 267.992C159.141 267.992 159.141 267.992 167.589 271.359C176.037 274.726 184.823 271.359 184.823 271.359L184.485 256.545C184.485 256.545 193.609 255.198 194.96 253.851C198.677 250.485 200.705 240.048 199.015 226.58C196.312 206.716 186.85 210.083 184.485 208.4Z" fill="#FFC5B3" fill-opacity="1.000000" fill-rule="nonzero"/>
	<path id="Vector" d="M228.752 257.555C228.752 257.555 229.428 258.228 230.103 259.238C230.779 260.248 230.441 261.259 229.765 261.259C229.428 261.595 229.09 261.595 229.09 261.595C229.09 261.595 229.765 262.942 230.441 263.952C230.779 264.962 229.427 265.635 229.09 265.635C228.752 265.635 230.103 266.645 230.103 267.655C230.103 268.665 228.076 268.329 228.076 268.329C228.076 268.329 227.4 260.248 228.752 257.555Z" fill="#FFC5B3" fill-opacity="1.000000" fill-rule="nonzero"/>
	<path id="Vector" d="M267.612 260.922C273.694 260.922 278.425 263.952 278.425 267.319C278.425 271.022 273.694 273.716 267.612 273.716C261.529 273.716 256.799 270.686 256.799 267.319C256.799 263.615 261.529 260.922 267.612 260.922Z" fill="#002F68" fill-opacity="1.000000" fill-rule="nonzero"/>
	<path id="Vector" d="M267.949 260.922C272.342 260.922 276.059 262.942 276.059 265.299C276.059 267.656 272.342 269.676 267.949 269.676C263.557 269.676 259.84 267.656 259.84 265.299C259.84 262.605 263.557 260.922 267.949 260.922Z" fill="#DD8084" fill-opacity="1.000000" fill-rule="nonzero"/>
	<path id="Vector" d="M267.612 271.696C267.612 271.696 265.584 277.419 265.584 284.49C265.246 291.56 265.922 303.007 261.529 308.057C257.136 313.444 253.081 306.711 253.081 299.304C252.743 291.897 257.136 267.319 257.136 267.319L267.612 271.696Z" fill="#002F68" fill-opacity="1.000000" fill-rule="nonzero"/>
	<path id="Vector" d="M195.298 278.766C202.394 279.439 216.249 306.711 222.669 320.178C227.4 315.801 236.862 307.721 247.675 300.65C250.716 298.63 248.351 285.5 254.433 281.796C254.771 285.5 258.15 285.5 260.178 285.163C264.233 284.826 265.585 283.816 265.585 281.123C266.598 280.786 267.95 280.786 269.302 282.133C270.653 281.796 273.357 283.816 272.681 285.836C275.384 287.856 274.708 292.907 273.019 295.263C269.302 300.314 261.867 305.701 257.475 311.424C253.42 316.811 232.469 344.755 217.938 349.132C216.925 348.796 212.87 348.796 210.166 346.102C200.705 336.675 186.512 312.771 185.836 298.63C185.161 287.183 190.229 278.093 195.298 278.766Z" fill="#FFC5B3" fill-opacity="1.000000" fill-rule="nonzero"/>
	<path id="Vector" d="M192.595 231.968C193.608 228.601 195.974 220.857 196.312 217.827C196.987 214.124 197.325 208.737 192.257 203.687C187.188 198.636 169.954 196.953 163.872 200.32C157.789 204.023 144.273 210.42 149.003 231.968C152.721 249.138 156.438 251.158 161.506 255.199C166.237 258.902 174.009 259.575 174.009 259.575C174.009 259.575 178.402 256.209 179.416 249.812C179.754 247.792 179.416 241.395 179.416 241.395C179.416 241.395 174.685 232.304 178.402 229.274C182.119 225.907 186.174 231.294 186.85 233.651C189.891 241.395 188.54 255.872 188.54 255.872C188.54 255.872 193.27 258.902 197.663 257.555C200.029 256.882 198.001 247.118 198.001 247.118C198.001 247.118 193.27 244.761 192.595 231.968Z" fill="#002F68" fill-opacity="1.000000" fill-rule="nonzero"/>
	<path id="Vector" d="M202.732 223.887L200.704 224.897L200.704 237.018L202.732 236.008L202.732 223.887Z" fill="#EB8382" fill-opacity="1.000000" fill-rule="nonzero"/>
	<path id="Vector" d="M200.704 224.898L200.367 224.561L200.367 236.345L200.704 237.018L200.704 224.898Z" fill="#C37A87" fill-opacity="1.000000" fill-rule="nonzero"/>
	<path id="Vector" d="M200.367 224.561L200.705 224.898L202.732 223.888L202.056 223.551L200.367 224.561Z" fill="#FFFFFF" fill-opacity="1.000000" fill-rule="nonzero"/>
	<path id="Vector" d="M201.719 225.234C200.705 225.907 198.678 227.927 198.002 228.601C193.271 232.641 184.823 235.334 175.699 235.334C166.238 235.334 158.128 232.641 153.397 228.601C152.045 227.254 150.694 225.907 150.018 224.561C149.342 223.214 149.004 220.857 148.666 219.51L148.328 221.867L148.666 228.601C148.666 228.937 148.666 228.937 148.666 229.274C148.666 237.691 160.831 244.425 175.699 244.425C186.513 244.425 195.974 240.721 200.367 235.671L202.395 225.234L201.719 225.234Z" fill="#C37A87" fill-opacity="1.000000" fill-rule="nonzero"/>
	<path id="Vector" d="M202.056 225.234C201.381 225.907 199.015 228.264 198.001 228.937C192.933 232.977 184.823 235.671 175.023 235.671C165.562 235.671 157.114 232.977 152.045 228.937C150.355 227.591 149.342 226.244 148.328 224.897C147.652 223.55 147.314 222.204 146.976 220.857L146.976 228.937C146.976 229.274 146.976 229.274 146.976 229.611C146.976 238.028 159.479 245.098 174.685 245.098C184.147 245.098 192.595 242.404 197.664 238.364C198.339 237.691 200.705 235.671 201.381 234.997L201.381 225.234L202.056 225.234Z" fill="url(#paint_linear_1_559_0)" fill-opacity="1.000000" fill-rule="nonzero"/>
	<path id="Vector" d="M179.078 196.28C175.699 193.923 171.306 193.923 166.575 196.954C158.803 201.33 150.693 213.114 149.003 225.571C150.693 230.285 156.775 232.305 157.789 231.632C159.141 219.511 166.237 208.064 175.023 202.677C175.023 202.677 175.361 202.677 175.361 202.34C177.726 200.994 180.092 200.32 182.119 200.32C183.133 200.32 184.147 200.32 184.822 200.32C185.836 200.32 186.512 200.657 186.512 200.657L179.078 196.28Z" fill="#C37A87" fill-opacity="1.000000" fill-rule="nonzero"/>
	<path id="Vector" d="M179.416 195.943C175.361 193.923 171.306 193.586 166.237 196.279C158.465 200.656 150.355 212.44 148.666 224.897C150.017 229.947 155.762 231.631 157.114 232.304C158.803 219.174 166.237 207.39 175.023 202.003C175.023 202.003 175.361 202.003 175.361 201.666C177.727 200.319 180.092 199.646 182.119 199.646C183.809 199.646 185.499 199.983 186.85 200.656L179.416 195.943Z" fill="url(#paint_linear_1_563_0)" fill-opacity="1.000000" fill-rule="nonzero"/>
	<path id="Vector" d="M162.52 414.448C163.872 417.815 166.237 424.885 168.603 427.915C171.982 432.292 163.872 433.302 158.465 434.312C152.721 434.985 143.259 428.252 139.88 422.528C136.839 416.805 135.825 408.388 135.825 408.051C144.273 413.438 152.721 416.805 162.52 414.448Z" fill="url(#paint_linear_1_564_0)" fill-opacity="1.000000" fill-rule="nonzero"/>
	<path id="Vector" d="M121.97 406.031C122.308 408.051 122.984 411.755 123.998 415.458C125.687 421.182 122.308 425.558 117.239 421.518C112.171 417.815 107.102 411.418 105.75 406.031C104.737 402.328 104.061 395.257 103.723 392.564C108.454 398.287 114.536 402.664 121.97 406.031Z" fill="url(#paint_linear_1_565_0)" fill-opacity="1.000000" fill-rule="nonzero"/>
	<path id="Vector" d="M179.754 391.218C179.754 391.218 167.251 397.278 153.059 393.574C138.866 389.871 129.405 383.137 129.405 383.137C129.405 383.137 147.99 384.484 157.452 386.504C166.575 388.524 179.754 391.218 179.754 391.218Z" fill="#C17A8C" fill-opacity="0" fill-rule="nonzero"/>
	<path id="Vector" d="M175.361 379.097C175.361 379.097 150.355 380.78 136.163 373.71C122.308 366.64 118.591 358.223 118.591 358.223C118.591 358.223 123.66 361.253 136.163 366.303C148.665 372.027 175.361 379.097 175.361 379.097Z" fill="#C17A8C" fill-opacity="0" fill-rule="nonzero"/>
	<path id="Vector" d="M183.133 360.243C183.133 360.243 161.507 366.303 149.342 362.6C137.177 358.896 129.405 355.193 129.405 355.193C129.405 355.193 168.941 355.193 183.133 360.243Z" fill="#C17A8C" fill-opacity="0" fill-rule="nonzero"/>
</svg>
