<svg width="174.000000" height="56.000000" viewBox="0 0 174 56" fill="none" xmlns="http://www.w3.org/2000/svg" xmlns:xlink="http://www.w3.org/1999/xlink">
	<desc>
			Created with Pixso.
	</desc>
	<defs>
		<filter id="filter_1_1050_dd" x="118.000000" y="0.000000" width="56.000000" height="56.000000" filterUnits="userSpaceOnUse" color-interpolation-filters="sRGB">
			<feFlood flood-opacity="0" result="BackgroundImageFix"/>
			<feColorMatrix in="SourceAlpha" type="matrix" values="0 0 0 0 0 0 0 0 0 0 0 0 0 0 0 0 0 0 127 0" result="hardAlpha"/>
			<feOffset dx="-1" dy="-1"/>
			<feGaussianBlur stdDeviation="2.66667"/>
			<feComposite in2="hardAlpha" operator="out" k2="-1" k3="1"/>
			<feColorMatrix type="matrix" values="0 0 0 0 1 0 0 0 0 1 0 0 0 0 1 0 0 0 0.078 0"/>
			<feBlend mode="normal" in2="BackgroundImageFix" result="effect_dropShadow_1"/>
			<feBlend mode="normal" in="SourceGraphic" in2="effect_dropShadow_1" result="shape"/>
		</filter>
		<filter id="filter_1_1052_dd" x="58.000000" y="0.000000" width="56.000000" height="56.000000" filterUnits="userSpaceOnUse" color-interpolation-filters="sRGB">
			<feFlood flood-opacity="0" result="BackgroundImageFix"/>
			<feColorMatrix in="SourceAlpha" type="matrix" values="0 0 0 0 0 0 0 0 0 0 0 0 0 0 0 0 0 0 127 0" result="hardAlpha"/>
			<feOffset dx="-1" dy="-1"/>
			<feGaussianBlur stdDeviation="2.66667"/>
			<feComposite in2="hardAlpha" operator="out" k2="-1" k3="1"/>
			<feColorMatrix type="matrix" values="0 0 0 0 1 0 0 0 0 1 0 0 0 0 1 0 0 0 0.078 0"/>
			<feBlend mode="normal" in2="BackgroundImageFix" result="effect_dropShadow_1"/>
			<feBlend mode="normal" in="SourceGraphic" in2="effect_dropShadow_1" result="shape"/>
		</filter>
		<filter id="filter_1_1054_dd" x="0.000000" y="0.000000" width="56.000000" height="56.000000" filterUnits="userSpaceOnUse" color-interpolation-filters="sRGB">
			<feFlood flood-opacity="0" result="BackgroundImageFix"/>
			<feColorMatrix in="SourceAlpha" type="matrix" values="0 0 0 0 0 0 0 0 0 0 0 0 0 0 0 0 0 0 127 0" result="hardAlpha"/>
			<feOffset dx="-1" dy="-1"/>
			<feGaussianBlur stdDeviation="2.66667"/>
			<feComposite in2="hardAlpha" operator="out" k2="-1" k3="1"/>
			<feColorMatrix type="matrix" values="0 0 0 0 1 0 0 0 0 1 0 0 0 0 1 0 0 0 0.078 0"/>
			<feBlend mode="normal" in2="BackgroundImageFix" result="effect_dropShadow_1"/>
			<feBlend mode="normal" in="SourceGraphic" in2="effect_dropShadow_1" result="shape"/>
		</filter>
	</defs>
	<g filter="url(#filter_1_1050_dd)">
		<rect id="Rectangle 123" x="127.000000" y="9.000000" rx="20.000000" width="40.000000" height="40.000000" fill="#FCD8CB" fill-opacity="1.000000"/>
	</g>
	<path id="Icon awesome-instagram" d="M147.012 23.8766C145.998 23.8751 145.006 24.1746 144.162 24.7371C143.318 25.2994 142.659 26.0997 142.27 27.0365C141.881 27.9731 141.778 29.0044 141.975 29.9994C142.172 30.9945 142.66 31.9088 143.377 32.6266C144.094 33.3444 145.007 33.8334 146.002 34.0319C146.997 34.2303 148.028 34.1292 148.965 33.7413C149.903 33.3535 150.704 32.6964 151.268 31.853C151.831 31.0098 152.132 30.0182 152.132 29.0038C152.133 28.3308 152.001 27.6642 151.745 27.0422C151.488 26.4202 151.111 25.855 150.635 25.3788C150.16 24.9026 149.595 24.5248 148.973 24.267C148.352 24.0093 147.685 23.8766 147.012 23.8766ZM147.012 32.3361C146.353 32.3375 145.708 32.1433 145.159 31.7781C144.61 31.4128 144.182 30.8929 143.928 30.2842C143.675 29.6754 143.608 29.0051 143.736 28.3583C143.864 27.7114 144.18 27.1169 144.646 26.6501C145.112 26.1833 145.706 25.8652 146.352 25.7361C146.999 25.6068 147.669 25.6724 148.278 25.9244C148.888 26.1764 149.409 26.6035 149.775 27.1516C150.142 27.6998 150.337 28.3444 150.337 29.0038C150.335 29.8856 149.985 30.731 149.362 31.3552C148.739 31.9795 147.894 32.332 147.012 32.3361ZM153.537 23.6591C153.537 23.8954 153.467 24.1265 153.336 24.323C153.204 24.5194 153.018 24.6726 152.799 24.7631C152.581 24.8535 152.341 24.8772 152.109 24.8311C151.877 24.7849 151.664 24.6711 151.497 24.504C151.33 24.3369 151.216 24.124 151.17 23.8922C151.124 23.6604 151.148 23.4202 151.238 23.2018C151.329 22.9835 151.482 22.7969 151.678 22.6655C151.875 22.5342 152.106 22.4641 152.342 22.4641C152.499 22.4639 152.655 22.4945 152.8 22.5544C152.945 22.6144 153.077 22.7024 153.188 22.8134C153.299 22.9244 153.387 23.0563 153.447 23.2014C153.507 23.3466 153.537 23.5021 153.537 23.6591ZM156.932 24.874C156.965 23.3196 156.385 21.8146 155.317 20.6843C154.184 19.6201 152.681 19.0405 151.127 19.0693C149.477 18.9769 144.528 18.9769 142.878 19.0693C141.323 19.0392 139.818 19.6188 138.685 20.6843C137.619 21.8156 137.04 23.3198 137.071 24.874C136.978 26.5239 136.978 31.4736 137.071 33.1235C137.037 34.6788 137.617 36.1848 138.685 37.3157C139.818 38.3793 141.322 38.9586 142.875 38.9307C144.525 39.0231 149.475 39.0231 151.125 38.9307C152.679 38.9635 154.184 38.3834 155.314 37.3157C156.379 36.1832 156.958 34.6798 156.929 33.126C157.022 31.4761 157.022 26.5314 156.929 24.8765L156.932 24.874ZM154.799 34.9083C154.63 35.3383 154.374 35.7288 154.047 36.0555C153.72 36.3823 153.329 36.6385 152.9 36.8082C150.964 37.2024 148.984 37.3344 147.012 37.2007C145.038 37.3297 143.056 37.1943 141.118 36.7982C140.688 36.6285 140.297 36.3723 139.971 36.0455C139.644 35.7188 139.388 35.3282 139.218 34.8984C138.817 32.9609 138.678 30.9783 138.805 29.0038C138.677 27.0297 138.812 25.0474 139.208 23.1091C139.378 22.6792 139.634 22.2888 139.961 21.9619C140.287 21.6351 140.678 21.3789 141.108 21.2092C143.049 20.8094 145.035 20.6732 147.012 20.8043C148.987 20.6753 150.969 20.8107 152.907 21.2068C153.337 21.3765 153.727 21.6327 154.054 21.9595C154.381 22.2863 154.637 22.6768 154.807 23.1066C155.205 25.0446 155.34 27.0272 155.209 29.0012C155.339 30.9797 155.201 32.9668 154.799 34.9083Z" fill="#446381" fill-opacity="1.000000" fill-rule="nonzero"/>
	<g filter="url(#filter_1_1052_dd)">
		<rect id="Rectangle 124" x="67.000000" y="9.000000" rx="20.000000" width="40.000000" height="40.000000" fill="#FCD8CB" fill-opacity="1.000000"/>
	</g>
	<path id="Icon awesome-twitter" d="M95.9468 24.9257C95.9597 25.1035 95.9597 25.2814 95.9597 25.4594C95.9702 26.9939 95.6758 28.5153 95.0934 29.9351C94.511 31.3549 93.6523 32.6448 92.5672 33.7299C91.4821 34.8149 90.1921 35.6737 88.7723 36.2561C87.3525 36.8385 85.8312 37.1329 84.2966 37.1224C82.0638 37.127 79.8772 36.4861 78 35.2771C78.3288 35.3136 78.6594 35.3307 78.9901 35.3286C80.8354 35.3335 82.6284 34.7167 84.0801 33.5776C83.2249 33.5626 82.3957 33.2809 81.7083 32.7717C81.021 32.2627 80.5097 31.5516 80.246 30.7379C80.502 30.7787 80.7606 30.8002 81.0197 30.8022C81.3813 30.8007 81.7413 30.7538 82.0913 30.6628C81.1642 30.4735 80.3312 29.9692 79.7336 29.2356C79.1359 28.502 78.8104 27.5842 78.8123 26.6381L78.8123 26.5887C79.3805 26.9061 80.0157 27.0845 80.6661 27.1095C79.7954 26.5293 79.1791 25.6387 78.9429 24.6194C78.7067 23.6002 78.8685 22.5292 79.3952 21.6251C80.4252 22.892 81.7099 23.9281 83.166 24.6665C84.6222 25.4049 86.2173 25.8291 87.8478 25.9115C87.7823 25.6029 87.7486 25.2883 87.7471 24.9728C87.7488 24.1508 87.9972 23.3483 88.4603 22.6691C88.9234 21.9899 89.5797 21.4655 90.3443 21.1636C91.1089 20.8618 91.9465 20.7965 92.7487 20.9763C93.5508 21.156 94.2804 21.5725 94.8431 22.1716C95.7612 21.9949 96.6415 21.6598 97.4449 21.1815C97.1391 22.1288 96.4982 22.932 95.6425 23.4404C96.456 23.3448 97.2506 23.1281 98 22.7975C97.4404 23.6174 96.7462 24.3369 95.9468 24.9257Z" fill="#446381" fill-opacity="1.000000" fill-rule="nonzero"/>
	<g filter="url(#filter_1_1054_dd)">
		<rect id="Rectangle 125" x="9.000000" y="9.000000" rx="20.000000" width="40.000000" height="40.000000" fill="#FCD8CB" fill-opacity="1.000000"/>
	</g>
	<path id="Icon awesome-facebook-f" d="M32.6525 30.256L33.2072 26.6389L29.7357 26.6389L29.7357 24.2832C29.7115 24.0131 29.7484 23.741 29.8436 23.4869C29.9388 23.233 30.0898 23.0037 30.2856 22.8159C30.4813 22.6282 30.7167 22.4869 30.9745 22.4025C31.2321 22.318 31.5056 22.2925 31.7744 22.3279L33.3528 22.3279L33.3528 19.2568C32.4263 19.1073 31.4901 19.0258 30.5516 19.0127C29.9059 18.9636 29.2573 19.057 28.6518 19.2865C28.0462 19.5159 27.4985 19.8757 27.0475 20.3405C26.5965 20.8052 26.2532 21.3633 26.042 21.9755C25.8307 22.5876 25.7567 23.2388 25.8252 23.8827L25.8252 26.6389L22.6471 26.6389L22.6471 30.256L25.8252 30.256L25.8252 39L29.7357 39L29.7357 30.256L32.6525 30.256Z" fill="#446381" fill-opacity="1.000000" fill-rule="nonzero"/>
</svg>
